<?xml version="1.0" standalone="no"?>
<mlt LC_NUMERIC="C" version="7.1.0" title="Shotcut version 21.09.22" producer="main_bin">
  <profile description="automatic" width="1600" height="900" progressive="1" sample_aspect_num="1" sample_aspect_den="1" display_aspect_num="16" display_aspect_den="9" frame_rate_num="60" frame_rate_den="1" colorspace="709"/>
  <chain id="chain0" out="00:20:37.600">
    <property name="length">00:20:37.617</property>
    <property name="eof">pause</property>
    <property name="resource">D:/Videos/Projects/Destiny/BRoll/Destiny 2 2021.10.11 - 13.13.35.02 - Low Conversion.mp4</property>
    <property name="mlt_service">avformat-novalidate</property>
    <property name="seekable">1</property>
    <property name="audio_index">1</property>
    <property name="video_index">0</property>
    <property name="mute_on_pause">0</property>
    <property name="shotcut:hash">47a693d9bde7de68f7e3d990f733e881</property>
    <property name="ignore_points">1</property>
    <property name="creation_time">2021-10-11T20:34:14</property>
    <property name="xml">was here</property>
    <property name="shotcut:caption">Destiny 2 2021.10.11 - 13.13.35.02 - Low Conversion.mp4</property>
  </chain>
  <chain id="chain1" out="00:00:01.217">
    <property name="length">00:00:01.233</property>
    <property name="eof">pause</property>
    <property name="resource">D:/Videos/Projects/Destiny/Addins/COD Hitmarker.mp4</property>
    <property name="mlt_service">avformat-novalidate</property>
    <property name="seekable">1</property>
    <property name="audio_index">1</property>
    <property name="video_index">0</property>
    <property name="mute_on_pause">0</property>
    <property name="xml">was here</property>
    <property name="shotcut:hash">724ebabcdf5e18998fbbbb84ae7947b1</property>
  </chain>
  <chain id="chain2" out="00:00:06.017">
    <property name="length">00:00:06.033</property>
    <property name="eof">pause</property>
    <property name="resource">D:/Videos/Projects/Destiny/Addins/Facepalm.mp4</property>
    <property name="mlt_service">avformat-novalidate</property>
    <property name="seekable">1</property>
    <property name="audio_index">1</property>
    <property name="video_index">0</property>
    <property name="mute_on_pause">0</property>
    <property name="xml">was here</property>
    <property name="shotcut:hash">412993eecd366a6588bd07773c5eb18f</property>
  </chain>
  <producer id="producer0" in="00:00:00.000" out="03:59:59.983">
    <property name="length">04:00:00.000</property>
    <property name="eof">pause</property>
    <property name="resource">#FF000000</property>
    <property name="aspect_ratio">1</property>
    <property name="mlt_service">color</property>
    <property name="mlt_image_format">rgba</property>
    <property name="shotcut:caption">#FF000000</property>
    <property name="shotcut:detail">#FF000000</property>
    <property name="ignore_points">0</property>
    <property name="xml">was here</property>
    <property name="seekable">1</property>
  </producer>
  <chain id="chain3" out="00:02:09.667">
    <property name="length">00:02:09.683</property>
    <property name="eof">pause</property>
    <property name="resource">D:/Videos/Projects/Destiny/Addins/monster's inc theme.mp4</property>
    <property name="mlt_service">avformat-novalidate</property>
    <property name="seekable">1</property>
    <property name="audio_index">1</property>
    <property name="video_index">0</property>
    <property name="mute_on_pause">0</property>
    <property name="xml">was here</property>
    <property name="shotcut:hash">70a2bbcd3897732939c2e306c2a93a9a</property>
  </chain>
  <producer id="producer1" in="00:00:00.000" out="03:59:59.983">
    <property name="length">04:00:00.000</property>
    <property name="eof">pause</property>
    <property name="resource">#00000000</property>
    <property name="aspect_ratio">1</property>
    <property name="mlt_service">color</property>
    <property name="mlt_image_format">rgba</property>
    <property name="shotcut:caption">transparent</property>
    <property name="shotcut:detail">transparent</property>
    <property name="ignore_points">0</property>
    <property name="xml">was here</property>
    <property name="seekable">1</property>
  </producer>
  <chain id="chain4" out="00:03:29.083">
    <property name="length">00:03:29.100</property>
    <property name="eof">pause</property>
    <property name="resource">D:/Videos/Projects/Destiny/Addins/montage music- wow wow.mp4</property>
    <property name="mlt_service">avformat-novalidate</property>
    <property name="seekable">1</property>
    <property name="audio_index">1</property>
    <property name="video_index">0</property>
    <property name="mute_on_pause">0</property>
    <property name="xml">was here</property>
    <property name="shotcut:hash">63325924570260ddf9332b1aab4d8db9</property>
    <property name="ignore_points">1</property>
    <property name="shotcut:caption">montage music- wow wow.mp4</property>
  </chain>
  <chain id="chain5" out="00:03:44.267">
    <property name="length">00:03:44.283</property>
    <property name="eof">pause</property>
    <property name="resource">D:/Videos/Projects/Destiny/Addins/PUFFERFISH AEUGH.mp4</property>
    <property name="mlt_service">avformat-novalidate</property>
    <property name="seekable">1</property>
    <property name="audio_index">1</property>
    <property name="video_index">0</property>
    <property name="mute_on_pause">0</property>
    <property name="xml">was here</property>
    <property name="shotcut:hash">c32c6c47064ae9a8b552c9ed67670aeb</property>
  </chain>
  <chain id="chain6" out="00:00:03.183">
    <property name="length">00:00:03.200</property>
    <property name="eof">pause</property>
    <property name="resource">D:/Videos/Projects/Destiny/Addins/AAAAA.mp4</property>
    <property name="mlt_service">avformat-novalidate</property>
    <property name="seekable">1</property>
    <property name="audio_index">1</property>
    <property name="video_index">0</property>
    <property name="mute_on_pause">0</property>
    <property name="xml">was here</property>
    <property name="shotcut:hash">c137f0e5e3b34e202f8a8ebf37094086</property>
    <property name="ignore_points">1</property>
    <property name="shotcut:caption">AAAAA.mp4</property>
  </chain>
  <chain id="chain7" out="00:00:30.033">
    <property name="length">00:00:30.050</property>
    <property name="eof">pause</property>
    <property name="resource">D:/Videos/Projects/Destiny/Addins/speed greenscreen.mp4</property>
    <property name="mlt_service">avformat-novalidate</property>
    <property name="seekable">1</property>
    <property name="audio_index">1</property>
    <property name="video_index">0</property>
    <property name="mute_on_pause">0</property>
    <property name="xml">was here</property>
    <property name="shotcut:hash">0513576b09cc252763171a8ef80bfe2c</property>
  </chain>
  <producer id="producer2" in="00:00:00.000" out="03:59:59.983">
    <property name="length">04:00:00.000</property>
    <property name="eof">pause</property>
    <property name="resource">C:/Users/danjl/Pictures/upside down smiley.jpg</property>
    <property name="ttl">1</property>
    <property name="aspect_ratio">1</property>
    <property name="progressive">1</property>
    <property name="seekable">1</property>
    <property name="mlt_service">qimage</property>
    <property name="creation_time">2021-10-25T00:24:28</property>
    <property name="xml">was here</property>
    <property name="shotcut:hash">f4fe48568021697d9f0584a2d1550ffe</property>
  </producer>
  <chain id="chain8" out="00:01:55.100">
    <property name="length">00:01:55.117</property>
    <property name="eof">pause</property>
    <property name="resource">D:/Videos/Projects/Destiny/Addins/super smash theme for video.mp4</property>
    <property name="mlt_service">avformat-novalidate</property>
    <property name="seekable">1</property>
    <property name="audio_index">1</property>
    <property name="video_index">0</property>
    <property name="mute_on_pause">0</property>
    <property name="xml">was here</property>
    <property name="shotcut:hash">c1781e7711ec5d19425f324691be3661</property>
  </chain>
  <chain id="chain9" out="00:00:04.250">
    <property name="length">00:00:04.267</property>
    <property name="eof">pause</property>
    <property name="resource">D:/Videos/Projects/Destiny/Addins/you shall not pass.mp4</property>
    <property name="mlt_service">avformat-novalidate</property>
    <property name="seekable">1</property>
    <property name="audio_index">1</property>
    <property name="video_index">0</property>
    <property name="mute_on_pause">0</property>
    <property name="xml">was here</property>
    <property name="shotcut:hash">d23c0f2b7d6f3d318a6fd575e2cca146</property>
  </chain>
  <producer id="producer3" in="00:00:00.000" out="03:59:59.983">
    <property name="length">04:00:00.000</property>
    <property name="eof">pause</property>
    <property name="resource">D:/Videos/Projects/Destiny/Addins/wojak cry.png</property>
    <property name="ttl">1</property>
    <property name="aspect_ratio">1</property>
    <property name="progressive">1</property>
    <property name="seekable">1</property>
    <property name="mlt_service">qimage</property>
    <property name="creation_time">2021-10-25T00:19:17</property>
    <property name="xml">was here</property>
    <property name="shotcut:hash">83ecaea42031d35cea1acdbc625e514c</property>
  </producer>
  <chain id="chain10" out="00:00:08.150">
    <property name="length">00:00:08.167</property>
    <property name="eof">pause</property>
    <property name="resource">D:/Videos/Projects/Destiny/Addins/tyler1 HELP.mp4</property>
    <property name="mlt_service">avformat-novalidate</property>
    <property name="seekable">1</property>
    <property name="audio_index">1</property>
    <property name="video_index">0</property>
    <property name="mute_on_pause">0</property>
    <property name="xml">was here</property>
    <property name="shotcut:hash">5fd94e8525bec6acb31377c2921809dd</property>
  </chain>
  <chain id="chain11" out="00:00:03.100">
    <property name="length">00:00:03.117</property>
    <property name="eof">pause</property>
    <property name="resource">D:/Videos/Projects/Destiny/Addins/what are you aiming at.mp4</property>
    <property name="mlt_service">avformat-novalidate</property>
    <property name="seekable">1</property>
    <property name="audio_index">1</property>
    <property name="video_index">0</property>
    <property name="mute_on_pause">0</property>
    <property name="xml">was here</property>
    <property name="shotcut:hash">38ca9d13d7f7cae36863c232f4f7c919</property>
  </chain>
  <chain id="chain12" out="00:00:04.833">
    <property name="length">00:00:04.850</property>
    <property name="eof">pause</property>
    <property name="resource">D:/Videos/Projects/Destiny/Addins/yoda death noise.mp4</property>
    <property name="mlt_service">avformat-novalidate</property>
    <property name="seekable">1</property>
    <property name="audio_index">1</property>
    <property name="video_index">0</property>
    <property name="mute_on_pause">0</property>
    <property name="xml">was here</property>
    <property name="shotcut:hash">03aa7942eae654941d405586d250f0a1</property>
  </chain>
  <chain id="chain13" out="00:00:19.217">
    <property name="length">00:00:19.233</property>
    <property name="eof">pause</property>
    <property name="resource">D:/Videos/Projects/Destiny/Addins/black guy dancing.mp4</property>
    <property name="mlt_service">avformat-novalidate</property>
    <property name="seekable">1</property>
    <property name="audio_index">1</property>
    <property name="video_index">0</property>
    <property name="mute_on_pause">0</property>
    <property name="xml">was here</property>
    <property name="shotcut:hash">a1cc5e2ab3ec3eebc8cfbb9a5c5f8ab0</property>
  </chain>
  <chain id="chain14" out="00:01:32.217">
    <property name="length">00:01:32.233</property>
    <property name="eof">pause</property>
    <property name="resource">D:/Videos/Projects/Destiny/Addins/aot theme.mp4</property>
    <property name="mlt_service">avformat-novalidate</property>
    <property name="seekable">1</property>
    <property name="audio_index">1</property>
    <property name="video_index">0</property>
    <property name="mute_on_pause">0</property>
    <property name="xml">was here</property>
    <property name="shotcut:hash">75eba5e71e2112749ebe11e33dde4558</property>
  </chain>
  <chain id="chain15" out="00:00:02.000">
    <property name="length">00:00:02.017</property>
    <property name="eof">pause</property>
    <property name="resource">D:/Videos/Projects/Destiny/Addins/fortnite down sound.mp4</property>
    <property name="mlt_service">avformat-novalidate</property>
    <property name="seekable">1</property>
    <property name="audio_index">1</property>
    <property name="video_index">0</property>
    <property name="mute_on_pause">0</property>
    <property name="xml">was here</property>
    <property name="shotcut:hash">ab3c9e1d5f60c4f523c88f654d88bf7e</property>
  </chain>
  <chain id="chain16" out="00:00:08.483">
    <property name="length">00:00:08.500</property>
    <property name="eof">pause</property>
    <property name="resource">D:/Videos/Projects/Destiny/Addins/doorbell.mp4</property>
    <property name="mlt_service">avformat-novalidate</property>
    <property name="seekable">1</property>
    <property name="audio_index">1</property>
    <property name="video_index">0</property>
    <property name="mute_on_pause">0</property>
    <property name="xml">was here</property>
    <property name="shotcut:hash">79db5fbb04b0db8d149e836a052f0978</property>
  </chain>
  <chain id="chain17" out="00:00:03.833">
    <property name="length">00:00:03.850</property>
    <property name="eof">pause</property>
    <property name="resource">D:/Videos/Projects/Destiny/Addins/moai.mp4</property>
    <property name="mlt_service">avformat-novalidate</property>
    <property name="seekable">1</property>
    <property name="audio_index">1</property>
    <property name="video_index">0</property>
    <property name="mute_on_pause">0</property>
    <property name="xml">was here</property>
    <property name="shotcut:hash">0d1c9ba89371fc8a22e46bb0fb510461</property>
  </chain>
  <chain id="chain18" out="00:00:01.633">
    <property name="length">00:00:01.650</property>
    <property name="eof">pause</property>
    <property name="resource">D:/Videos/Projects/Destiny/Addins/squeak sfx.mp4</property>
    <property name="mlt_service">avformat-novalidate</property>
    <property name="seekable">1</property>
    <property name="audio_index">1</property>
    <property name="video_index">0</property>
    <property name="mute_on_pause">0</property>
    <property name="xml">was here</property>
    <property name="shotcut:hash">bf2fa59ce2092fb59e333e22231495cd</property>
  </chain>
  <chain id="chain19" out="00:04:44.583">
    <property name="length">00:04:44.600</property>
    <property name="eof">pause</property>
    <property name="resource">D:/Videos/Projects/Destiny/Addins/my heart will go on shittyfluted.mp4</property>
    <property name="mlt_service">avformat-novalidate</property>
    <property name="seekable">1</property>
    <property name="audio_index">1</property>
    <property name="video_index">0</property>
    <property name="mute_on_pause">0</property>
    <property name="xml">was here</property>
    <property name="shotcut:hash">695ada10cc8f033e76ae1af85731651f</property>
  </chain>
  <chain id="chain20" out="00:00:06.133">
    <property name="length">00:00:06.150</property>
    <property name="eof">pause</property>
    <property name="resource">D:/Videos/Projects/Destiny/Addins/xqc clap fast.mp4</property>
    <property name="mlt_service">avformat-novalidate</property>
    <property name="seekable">1</property>
    <property name="audio_index">1</property>
    <property name="video_index">0</property>
    <property name="mute_on_pause">0</property>
    <property name="xml">was here</property>
    <property name="shotcut:hash">54c86242368895126d07d2accc73d35c</property>
  </chain>
  <chain id="chain21" out="00:00:01.267">
    <property name="length">00:00:01.283</property>
    <property name="eof">pause</property>
    <property name="resource">D:/Videos/Projects/Destiny/Addins/boom vine.mp4</property>
    <property name="mlt_service">avformat-novalidate</property>
    <property name="seekable">1</property>
    <property name="audio_index">1</property>
    <property name="video_index">0</property>
    <property name="mute_on_pause">0</property>
    <property name="xml">was here</property>
    <property name="shotcut:hash">ad63a91e440a6a93678918326f46e3ea</property>
  </chain>
  <producer id="producer4" in="00:00:00.000" out="03:59:59.983">
    <property name="length">04:00:00.000</property>
    <property name="eof">pause</property>
    <property name="resource">D:/Videos/Projects/Destiny/Addins/pogu greenscreen.jpg</property>
    <property name="ttl">1</property>
    <property name="aspect_ratio">1</property>
    <property name="progressive">1</property>
    <property name="seekable">1</property>
    <property name="mlt_service">qimage</property>
    <property name="creation_time">2021-10-24T06:32:26</property>
    <property name="xml">was here</property>
    <property name="shotcut:hash">1c94f2ff9b0de8162493668122d03155</property>
  </producer>
  <chain id="chain22" out="00:01:12.100">
    <property name="length">00:01:12.117</property>
    <property name="eof">pause</property>
    <property name="resource">D:/Videos/Projects/Destiny/Addins/shall we begin.mp4</property>
    <property name="mlt_service">avformat-novalidate</property>
    <property name="seekable">1</property>
    <property name="audio_index">1</property>
    <property name="video_index">0</property>
    <property name="mute_on_pause">0</property>
    <property name="xml">was here</property>
    <property name="shotcut:hash">ac8ae32ae7e7e6a1f557b1a17b5fabb3</property>
  </chain>
  <chain id="chain23" out="00:00:05.883">
    <property name="length">00:00:05.900</property>
    <property name="eof">pause</property>
    <property name="resource">D:/Videos/Projects/Destiny/Addins/explosioooo.mp4</property>
    <property name="mlt_service">avformat-novalidate</property>
    <property name="seekable">1</property>
    <property name="audio_index">1</property>
    <property name="video_index">0</property>
    <property name="mute_on_pause">0</property>
    <property name="xml">was here</property>
    <property name="shotcut:hash">641be12c747e050cfb4fbb3b93855287</property>
    <property name="ignore_points">1</property>
    <property name="shotcut:caption">explosioooo.mp4</property>
  </chain>
  <chain id="chain24" out="00:00:06.300">
    <property name="length">00:00:06.317</property>
    <property name="eof">pause</property>
    <property name="resource">D:/Videos/Projects/Destiny/Addins/trinity ghoul edit.mp4</property>
    <property name="mlt_service">avformat-novalidate</property>
    <property name="seekable">1</property>
    <property name="audio_index">1</property>
    <property name="video_index">0</property>
    <property name="mute_on_pause">0</property>
    <property name="xml">was here</property>
    <property name="shotcut:hash">78f683a3201f819a3212720c3fc1afe6</property>
    <property name="ignore_points">1</property>
    <property name="shotcut:caption">trinity ghoul edit.mp4</property>
  </chain>
  <chain id="chain25" out="00:00:07.300">
    <property name="length">00:00:07.317</property>
    <property name="eof">pause</property>
    <property name="resource">D:/Videos/Projects/Destiny/Addins/nice.mp4</property>
    <property name="mlt_service">avformat-novalidate</property>
    <property name="seekable">1</property>
    <property name="audio_index">1</property>
    <property name="video_index">0</property>
    <property name="mute_on_pause">0</property>
    <property name="xml">was here</property>
    <property name="shotcut:hash">56d101f3b4ac4ecdd792480172bbc432</property>
    <property name="ignore_points">1</property>
    <property name="shotcut:caption">nice.mp4</property>
  </chain>
  <chain id="chain26" out="00:00:07.650">
    <property name="length">00:00:07.667</property>
    <property name="eof">pause</property>
    <property name="resource">D:/Videos/Projects/Destiny/Addins/fart with extra reverb.mp4</property>
    <property name="mlt_service">avformat-novalidate</property>
    <property name="seekable">1</property>
    <property name="audio_index">1</property>
    <property name="video_index">0</property>
    <property name="mute_on_pause">0</property>
    <property name="xml">was here</property>
    <property name="shotcut:hash">6c9afe688fc4e5d7fb08827c869b8a00</property>
    <property name="ignore_points">0</property>
    <property name="shotcut:caption">fart with extra reverb.mp4</property>
  </chain>
  <chain id="chain27" out="00:00:02.933">
    <property name="length">00:00:02.950</property>
    <property name="eof">pause</property>
    <property name="resource">D:/Videos/Projects/Destiny/Addins/oof.mp4</property>
    <property name="mlt_service">avformat-novalidate</property>
    <property name="seekable">1</property>
    <property name="audio_index">1</property>
    <property name="video_index">0</property>
    <property name="mute_on_pause">0</property>
    <property name="xml">was here</property>
    <property name="shotcut:hash">5c5c7966dbfaebdd8690b3a54af2b47d</property>
    <property name="ignore_points">1</property>
    <property name="shotcut:caption">oof.mp4</property>
  </chain>
  <producer id="producer5" in="00:00:00.000" out="03:59:59.983">
    <property name="length">04:00:00.000</property>
    <property name="eof">pause</property>
    <property name="resource">D:/Videos/Projects/Destiny/Addins/greenscreen sound icon.jpg</property>
    <property name="ttl">1</property>
    <property name="aspect_ratio">1</property>
    <property name="progressive">1</property>
    <property name="seekable">1</property>
    <property name="mlt_service">qimage</property>
    <property name="creation_time">2021-10-24T04:52:20</property>
    <property name="xml">was here</property>
    <property name="shotcut:hash">5824e9b0c1231509b8b9f2646bcb5e74</property>
  </producer>
  <chain id="chain28" out="00:00:01.867">
    <property name="length">00:00:01.883</property>
    <property name="eof">pause</property>
    <property name="resource">D:/Videos/Projects/Destiny/Addins/fart meme sound.mp4</property>
    <property name="mlt_service">avformat-novalidate</property>
    <property name="seekable">1</property>
    <property name="audio_index">1</property>
    <property name="video_index">0</property>
    <property name="mute_on_pause">0</property>
    <property name="xml">was here</property>
    <property name="shotcut:hash">305822327bed79a18872352a040c738c</property>
  </chain>
  <chain id="chain29" out="00:00:05.900">
    <property name="length">00:00:05.917</property>
    <property name="eof">pause</property>
    <property name="resource">D:/Videos/Projects/Destiny/Addins/ayo the pizza here servitor.mp4</property>
    <property name="mlt_service">avformat-novalidate</property>
    <property name="seekable">1</property>
    <property name="audio_index">1</property>
    <property name="video_index">0</property>
    <property name="mute_on_pause">0</property>
    <property name="xml">was here</property>
    <property name="shotcut:hash">ed9e940aff9c373f9f0aa5308a2b314b</property>
    <property name="ignore_points">1</property>
    <property name="shotcut:caption">ayo the pizza here servitor.mp4</property>
  </chain>
  <chain id="chain30" out="00:01:14.917">
    <property name="length">00:01:14.933</property>
    <property name="eof">pause</property>
    <property name="resource">D:/Videos/Projects/Destiny/Addins/FF.mp4</property>
    <property name="mlt_service">avformat-novalidate</property>
    <property name="seekable">1</property>
    <property name="audio_index">1</property>
    <property name="video_index">0</property>
    <property name="mute_on_pause">0</property>
    <property name="xml">was here</property>
    <property name="shotcut:hash">cb17980e28b469d1dfedaa43b75d3956</property>
  </chain>
  <chain id="chain31" out="00:00:02.333">
    <property name="length">00:00:02.350</property>
    <property name="eof">pause</property>
    <property name="resource">D:/Videos/Projects/Destiny/Addins/run, ruun.mp4</property>
    <property name="mlt_service">avformat-novalidate</property>
    <property name="seekable">1</property>
    <property name="audio_index">1</property>
    <property name="video_index">0</property>
    <property name="mute_on_pause">0</property>
    <property name="xml">was here</property>
    <property name="shotcut:hash">b2ea3a69985060515280cede3a7124fb</property>
    <property name="ignore_points">1</property>
    <property name="shotcut:caption">run, ruun.mp4</property>
  </chain>
  <chain id="chain32" out="00:00:03.733">
    <property name="length">00:00:03.750</property>
    <property name="eof">pause</property>
    <property name="resource">D:/Videos/Projects/Destiny/Addins/kermit.mp4</property>
    <property name="mlt_service">avformat-novalidate</property>
    <property name="seekable">1</property>
    <property name="audio_index">1</property>
    <property name="video_index">0</property>
    <property name="mute_on_pause">0</property>
    <property name="xml">was here</property>
    <property name="shotcut:hash">41986657f1bbc0ecf17876ce426e73a4</property>
  </chain>
  <chain id="chain33" out="00:01:04.000">
    <property name="length">00:01:04.017</property>
    <property name="eof">pause</property>
    <property name="resource">D:/Videos/Projects/Destiny/Addins/kahoot theme outro.mp4</property>
    <property name="mlt_service">avformat-novalidate</property>
    <property name="seekable">1</property>
    <property name="audio_index">1</property>
    <property name="video_index">0</property>
    <property name="mute_on_pause">0</property>
    <property name="xml">was here</property>
    <property name="shotcut:hash">f2421d63fdff123bfe1f707aa11a200f</property>
  </chain>
  <chain id="chain34" out="00:00:02.833">
    <property name="length">00:00:02.850</property>
    <property name="eof">pause</property>
    <property name="resource">D:/Videos/Projects/Destiny/Addins/uber notification.mp4</property>
    <property name="mlt_service">avformat-novalidate</property>
    <property name="seekable">1</property>
    <property name="audio_index">1</property>
    <property name="video_index">0</property>
    <property name="mute_on_pause">0</property>
    <property name="xml">was here</property>
    <property name="shotcut:hash">6e15aabda139993fd39a4097a205e258</property>
  </chain>
  <chain id="chain35" out="00:04:46.350">
    <property name="length">00:04:46.367</property>
    <property name="eof">pause</property>
    <property name="resource">D:/Videos/Projects/Destiny/Addins/running in the 90's.mp4</property>
    <property name="mlt_service">avformat-novalidate</property>
    <property name="seekable">1</property>
    <property name="audio_index">1</property>
    <property name="video_index">0</property>
    <property name="mute_on_pause">0</property>
    <property name="xml">was here</property>
    <property name="shotcut:hash">c6c664f9274e6c1833b3cf0a0e604b52</property>
    <property name="ignore_points">1</property>
    <property name="shotcut:caption">running in the 90's.mp4</property>
  </chain>
  <chain id="chain36" out="00:00:07.767">
    <property name="length">00:00:07.783</property>
    <property name="eof">pause</property>
    <property name="resource">D:/Videos/Projects/Destiny/Addins/no fuck off.mp4</property>
    <property name="mlt_service">avformat-novalidate</property>
    <property name="seekable">1</property>
    <property name="audio_index">1</property>
    <property name="video_index">0</property>
    <property name="mute_on_pause">0</property>
    <property name="xml">was here</property>
    <property name="shotcut:hash">96e64bbbd55fdf5bf8bbb7fb68bb33eb</property>
  </chain>
  <chain id="chain37" out="00:00:20.233">
    <property name="length">00:00:20.250</property>
    <property name="eof">pause</property>
    <property name="resource">D:/Videos/Projects/Destiny/Addins/no i dont wanna go.mp4</property>
    <property name="mlt_service">avformat-novalidate</property>
    <property name="seekable">1</property>
    <property name="audio_index">1</property>
    <property name="video_index">0</property>
    <property name="mute_on_pause">0</property>
    <property name="xml">was here</property>
    <property name="shotcut:hash">4ceee5cac4c153d9059a13c275ad8aaf</property>
  </chain>
  <chain id="chain38" out="00:04:44.400">
    <property name="length">00:04:44.417</property>
    <property name="eof">pause</property>
    <property name="resource">D:/Videos/Projects/Destiny/Addins/megalovania slowed piano.mp4</property>
    <property name="mlt_service">avformat-novalidate</property>
    <property name="seekable">1</property>
    <property name="audio_index">1</property>
    <property name="video_index">0</property>
    <property name="mute_on_pause">0</property>
    <property name="xml">was here</property>
    <property name="shotcut:hash">090a740e9564e0d8c777c6f878b91789</property>
  </chain>
  <chain id="chain39" out="00:05:13.167">
    <property name="length">00:05:13.183</property>
    <property name="eof">pause</property>
    <property name="resource">D:/Videos/Projects/Destiny/Addins/megalovania.mp4</property>
    <property name="mlt_service">avformat-novalidate</property>
    <property name="seekable">1</property>
    <property name="audio_index">1</property>
    <property name="video_index">0</property>
    <property name="mute_on_pause">0</property>
    <property name="xml">was here</property>
    <property name="shotcut:hash">6852dd89e29cc14f510ae2fee99c4498</property>
  </chain>
  <producer id="producer6" in="00:00:00.000" out="03:59:59.983">
    <property name="length">04:00:00.000</property>
    <property name="eof">pause</property>
    <property name="resource">D:/Videos/Projects/Destiny/Addins/wojak brain turbine.png</property>
    <property name="ttl">1</property>
    <property name="aspect_ratio">1</property>
    <property name="progressive">1</property>
    <property name="seekable">1</property>
    <property name="mlt_service">qimage</property>
    <property name="creation_time">2021-10-23T23:13:26</property>
    <property name="xml">was here</property>
    <property name="shotcut:hash">22c1df730065c19f056b0a5f29d1ebde</property>
  </producer>
  <chain id="chain40" out="00:00:30.033">
    <property name="length">00:00:30.050</property>
    <property name="eof">pause</property>
    <property name="resource">D:/Videos/Projects/Destiny/Addins/anime zoom particle effect.mp4</property>
    <property name="mlt_service">avformat-novalidate</property>
    <property name="seekable">1</property>
    <property name="audio_index">1</property>
    <property name="video_index">0</property>
    <property name="mute_on_pause">0</property>
    <property name="xml">was here</property>
    <property name="shotcut:hash">0513576b09cc252763171a8ef80bfe2c</property>
  </chain>
  <chain id="chain41" out="00:00:06.933">
    <property name="length">00:00:06.950</property>
    <property name="eof">pause</property>
    <property name="resource">D:/Videos/Projects/Destiny/Addins/bonk.mp4</property>
    <property name="mlt_service">avformat-novalidate</property>
    <property name="seekable">1</property>
    <property name="audio_index">1</property>
    <property name="video_index">0</property>
    <property name="mute_on_pause">0</property>
    <property name="xml">was here</property>
    <property name="shotcut:hash">e6d64a7d5b973f82fd94db9baa8ff4c3</property>
  </chain>
  <chain id="chain42" out="00:00:01.117">
    <property name="length">00:00:01.133</property>
    <property name="eof">pause</property>
    <property name="resource">D:/Videos/Projects/Destiny/Addins/bruh.mp4</property>
    <property name="mlt_service">avformat-novalidate</property>
    <property name="seekable">1</property>
    <property name="audio_index">1</property>
    <property name="video_index">0</property>
    <property name="mute_on_pause">0</property>
    <property name="xml">was here</property>
    <property name="shotcut:hash">50e1f5d157a7637b129792e627f29a64</property>
  </chain>
  <chain id="chain43" out="00:00:15.583">
    <property name="length">00:00:15.600</property>
    <property name="eof">pause</property>
    <property name="resource">D:/Videos/Projects/Destiny/Addins/bruh+reverb.mp4</property>
    <property name="mlt_service">avformat-novalidate</property>
    <property name="seekable">1</property>
    <property name="audio_index">1</property>
    <property name="video_index">0</property>
    <property name="mute_on_pause">0</property>
    <property name="xml">was here</property>
    <property name="shotcut:hash">a58e31bf320e7abca9a4296dd62174fb</property>
  </chain>
  <producer id="producer7" in="00:00:00.000" out="03:59:59.983">
    <property name="length">04:00:00.000</property>
    <property name="eof">pause</property>
    <property name="resource">D:/Videos/Projects/Destiny/Addins/freeze_frame.png</property>
    <property name="ttl">1</property>
    <property name="aspect_ratio">1</property>
    <property name="progressive">1</property>
    <property name="seekable">1</property>
    <property name="mlt_service">qimage</property>
    <property name="creation_time">2021-10-24T06:01:44</property>
    <property name="xml">was here</property>
    <property name="shotcut:hash">e9f38a44cdd7c3d30641ca5175d90e7e</property>
  </producer>
  <chain id="chain44" out="00:00:08.033">
    <property name="length">00:00:08.050</property>
    <property name="eof">pause</property>
    <property name="resource">D:/Videos/Projects/Destiny/Addins/nyah nyah.mp4</property>
    <property name="mlt_service">avformat-novalidate</property>
    <property name="seekable">1</property>
    <property name="audio_index">1</property>
    <property name="video_index">0</property>
    <property name="mute_on_pause">0</property>
    <property name="shotcut:hash">7350637b91f033e687462c3141695083</property>
    <property name="ignore_points">0</property>
    <property name="shotcut:caption">nyah nyah.mp4</property>
    <property name="xml">was here</property>
  </chain>
  <playlist id="main_bin" title="Shotcut version 21.09.22">
    <property name="shotcut:projectAudioChannels">2</property>
    <property name="shotcut:projectFolder">1</property>
    <property name="xml_retain">1</property>
    <entry producer="chain0" in="00:00:00.000" out="00:20:37.600"/>
    <entry producer="chain1" in="00:00:00.000" out="00:00:01.217"/>
    <entry producer="chain2" in="00:00:00.000" out="00:00:06.017"/>
    <entry producer="producer0" in="00:00:00.000" out="00:00:03.983"/>
    <entry producer="chain3" in="00:00:00.000" out="00:02:09.667"/>
    <entry producer="producer1" in="00:00:00.000" out="00:00:03.983"/>
    <entry producer="chain4" in="00:00:00.000" out="00:03:29.083"/>
    <entry producer="chain5" in="00:00:00.000" out="00:03:44.267"/>
    <entry producer="chain6" in="00:00:00.000" out="00:00:03.183"/>
    <entry producer="chain7" in="00:00:00.000" out="00:00:30.033"/>
    <entry producer="producer2" in="00:00:00.000" out="00:00:03.983"/>
    <entry producer="chain8" in="00:00:00.000" out="00:01:55.100"/>
    <entry producer="chain9" in="00:00:00.000" out="00:00:04.250"/>
    <entry producer="producer3" in="00:00:00.000" out="00:00:03.983"/>
    <entry producer="chain10" in="00:00:00.000" out="00:00:08.150"/>
    <entry producer="chain11" in="00:00:00.000" out="00:00:03.100"/>
    <entry producer="chain12" in="00:00:00.000" out="00:00:04.833"/>
    <entry producer="chain13" in="00:00:00.000" out="00:00:19.217"/>
    <entry producer="chain14" in="00:00:00.000" out="00:01:32.217"/>
    <entry producer="chain15" in="00:00:00.000" out="00:00:02.000"/>
    <entry producer="chain16" in="00:00:00.000" out="00:00:08.483"/>
    <entry producer="chain17" in="00:00:00.000" out="00:00:03.833"/>
    <entry producer="chain18" in="00:00:00.000" out="00:00:01.633"/>
    <entry producer="chain19" in="00:00:00.000" out="00:04:44.583"/>
    <entry producer="chain20" in="00:00:00.000" out="00:00:06.133"/>
    <entry producer="chain21" in="00:00:00.000" out="00:00:01.267"/>
    <entry producer="producer4" in="00:00:00.000" out="00:00:03.983"/>
    <entry producer="chain22" in="00:00:00.000" out="00:01:12.100"/>
    <entry producer="chain23" in="00:00:00.000" out="00:00:05.883"/>
    <entry producer="chain24" in="00:00:00.000" out="00:00:06.300"/>
    <entry producer="chain25" in="00:00:00.000" out="00:00:07.300"/>
    <entry producer="chain26" in="00:00:00.000" out="00:00:07.650"/>
    <entry producer="chain27" in="00:00:00.000" out="00:00:02.933"/>
    <entry producer="producer5" in="00:00:00.000" out="00:00:03.983"/>
    <entry producer="chain28" in="00:00:00.000" out="00:00:01.867"/>
    <entry producer="chain29" in="00:00:00.000" out="00:00:05.900"/>
    <entry producer="chain30" in="00:00:00.000" out="00:01:14.917"/>
    <entry producer="chain31" in="00:00:00.000" out="00:00:02.333"/>
    <entry producer="chain32" in="00:00:00.000" out="00:00:03.733"/>
    <entry producer="chain33" in="00:00:00.000" out="00:01:04.000"/>
    <entry producer="chain34" in="00:00:00.000" out="00:00:02.833"/>
    <entry producer="chain35" in="00:00:00.000" out="00:04:46.350"/>
    <entry producer="chain36" in="00:00:00.000" out="00:00:07.767"/>
    <entry producer="chain37" in="00:00:00.000" out="00:00:20.233"/>
    <entry producer="chain38" in="00:00:00.000" out="00:04:44.400"/>
    <entry producer="chain39" in="00:00:00.000" out="00:05:13.167"/>
    <entry producer="producer6" in="00:00:00.000" out="00:00:03.983"/>
    <entry producer="chain40" in="00:00:00.000" out="00:00:30.033"/>
    <entry producer="chain41" in="00:00:00.000" out="00:00:06.933"/>
    <entry producer="chain42" in="00:00:00.000" out="00:00:01.117"/>
    <entry producer="chain43" in="00:00:00.000" out="00:00:15.583"/>
    <entry producer="producer7" in="00:00:00.000" out="00:00:03.983"/>
    <entry producer="chain44" in="00:00:00.000" out="00:00:08.033"/>
  </playlist>
  <producer id="black" in="00:00:00.000" out="00:20:50.867">
    <property name="length">00:20:50.883</property>
    <property name="eof">pause</property>
    <property name="resource">C:/Users/danjl/AppData/Local/Meltytech/Shotcut/autosave/0</property>
    <property name="aspect_ratio">1</property>
    <property name="mlt_service">color</property>
    <property name="mlt_image_format">rgba</property>
    <property name="set.test_audio">0</property>
  </producer>
  <playlist id="background">
    <entry producer="black" in="00:00:00.000" out="00:20:50.867"/>
  </playlist>
  <chain id="chain45" out="00:20:37.600">
    <property name="length">00:20:37.617</property>
    <property name="eof">pause</property>
    <property name="resource">D:/Videos/Projects/Destiny/BRoll/Destiny 2 2021.10.11 - 13.13.35.02 - Low Conversion.mp4</property>
    <property name="mlt_service">avformat-novalidate</property>
    <property name="seekable">1</property>
    <property name="audio_index">1</property>
    <property name="video_index">0</property>
    <property name="mute_on_pause">0</property>
    <property name="shotcut:hash">47a693d9bde7de68f7e3d990f733e881</property>
    <property name="ignore_points">0</property>
    <property name="creation_time">2021-10-11T20:34:14</property>
    <property name="xml">was here</property>
    <property name="shotcut:caption">Destiny 2 2021.10.11 - 13.13.35.02 - Low Conversion.mp4</property>
  </chain>
  <chain id="chain46" out="00:20:37.600">
    <property name="length">00:20:37.617</property>
    <property name="eof">pause</property>
    <property name="resource">D:/Videos/Projects/Destiny/BRoll/Destiny 2 2021.10.11 - 13.13.35.02 - Low Conversion.mp4</property>
    <property name="mlt_service">avformat-novalidate</property>
    <property name="seekable">1</property>
    <property name="audio_index">1</property>
    <property name="video_index">0</property>
    <property name="mute_on_pause">0</property>
    <property name="shotcut:hash">47a693d9bde7de68f7e3d990f733e881</property>
    <property name="ignore_points">0</property>
    <property name="creation_time">2021-10-11T20:34:14</property>
    <property name="xml">was here</property>
    <property name="shotcut:caption">Destiny 2 2021.10.11 - 13.13.35.02 - Low Conversion.mp4</property>
  </chain>
  <chain id="chain47" out="00:20:37.600">
    <property name="length">00:20:37.617</property>
    <property name="eof">pause</property>
    <property name="resource">D:/Videos/Projects/Destiny/BRoll/Destiny 2 2021.10.11 - 13.13.35.02 - Low Conversion.mp4</property>
    <property name="mlt_service">avformat-novalidate</property>
    <property name="seekable">1</property>
    <property name="audio_index">1</property>
    <property name="video_index">0</property>
    <property name="mute_on_pause">0</property>
    <property name="shotcut:hash">47a693d9bde7de68f7e3d990f733e881</property>
    <property name="ignore_points">0</property>
    <property name="creation_time">2021-10-11T20:34:14</property>
    <property name="xml">was here</property>
    <property name="shotcut:caption">Destiny 2 2021.10.11 - 13.13.35.02 - Low Conversion.mp4</property>
    <filter id="filter0" in="00:01:47.850" out="00:02:15.733">
      <property name="start">1</property>
      <property name="level">00:00:00.000=0;00:00:00.400=1</property>
      <property name="mlt_service">brightness</property>
      <property name="shotcut:filter">fadeInBrightness</property>
      <property name="alpha">1</property>
      <property name="shotcut:animIn">00:00:00.417</property>
    </filter>
  </chain>
  <chain id="chain48" out="00:20:37.600">
    <property name="length">00:20:37.617</property>
    <property name="eof">pause</property>
    <property name="resource">D:/Videos/Projects/Destiny/BRoll/Destiny 2 2021.10.11 - 13.13.35.02 - Low Conversion.mp4</property>
    <property name="mlt_service">avformat-novalidate</property>
    <property name="seekable">1</property>
    <property name="audio_index">1</property>
    <property name="video_index">0</property>
    <property name="mute_on_pause">0</property>
    <property name="shotcut:hash">47a693d9bde7de68f7e3d990f733e881</property>
    <property name="ignore_points">0</property>
    <property name="creation_time">2021-10-11T20:34:14</property>
    <property name="xml">was here</property>
    <property name="shotcut:caption">Destiny 2 2021.10.11 - 13.13.35.02 - Low Conversion.mp4</property>
  </chain>
  <chain id="chain49" out="00:20:37.600">
    <property name="length">00:20:37.617</property>
    <property name="eof">pause</property>
    <property name="resource">D:/Videos/Projects/Destiny/BRoll/Destiny 2 2021.10.11 - 13.13.35.02 - Low Conversion.mp4</property>
    <property name="mlt_service">avformat-novalidate</property>
    <property name="seekable">1</property>
    <property name="audio_index">1</property>
    <property name="video_index">0</property>
    <property name="mute_on_pause">0</property>
    <property name="shotcut:hash">47a693d9bde7de68f7e3d990f733e881</property>
    <property name="ignore_points">0</property>
    <property name="creation_time">2021-10-11T20:34:14</property>
    <property name="xml">was here</property>
    <property name="shotcut:caption">Destiny 2 2021.10.11 - 13.13.35.02 - Low Conversion.mp4</property>
  </chain>
  <chain id="chain50" out="00:20:37.600">
    <property name="length">00:20:37.617</property>
    <property name="eof">pause</property>
    <property name="resource">D:/Videos/Projects/Destiny/BRoll/Destiny 2 2021.10.11 - 13.13.35.02 - Low Conversion.mp4</property>
    <property name="mlt_service">avformat-novalidate</property>
    <property name="seekable">1</property>
    <property name="audio_index">1</property>
    <property name="video_index">0</property>
    <property name="mute_on_pause">0</property>
    <property name="shotcut:hash">47a693d9bde7de68f7e3d990f733e881</property>
    <property name="ignore_points">0</property>
    <property name="creation_time">2021-10-11T20:34:14</property>
    <property name="xml">was here</property>
    <property name="shotcut:caption">Destiny 2 2021.10.11 - 13.13.35.02 - Low Conversion.mp4</property>
  </chain>
  <chain id="chain51" out="00:20:37.600">
    <property name="length">00:20:37.617</property>
    <property name="eof">pause</property>
    <property name="resource">D:/Videos/Projects/Destiny/BRoll/Destiny 2 2021.10.11 - 13.13.35.02 - Low Conversion.mp4</property>
    <property name="mlt_service">avformat-novalidate</property>
    <property name="seekable">1</property>
    <property name="audio_index">1</property>
    <property name="video_index">0</property>
    <property name="mute_on_pause">0</property>
    <property name="shotcut:hash">47a693d9bde7de68f7e3d990f733e881</property>
    <property name="ignore_points">0</property>
    <property name="creation_time">2021-10-11T20:34:14</property>
    <property name="xml">was here</property>
    <property name="shotcut:caption">Destiny 2 2021.10.11 - 13.13.35.02 - Low Conversion.mp4</property>
  </chain>
  <chain id="chain52" out="00:20:37.600">
    <property name="length">00:20:37.617</property>
    <property name="eof">pause</property>
    <property name="resource">D:/Videos/Projects/Destiny/BRoll/Destiny 2 2021.10.11 - 13.13.35.02 - Low Conversion.mp4</property>
    <property name="mlt_service">avformat-novalidate</property>
    <property name="seekable">1</property>
    <property name="audio_index">1</property>
    <property name="video_index">0</property>
    <property name="mute_on_pause">0</property>
    <property name="shotcut:hash">47a693d9bde7de68f7e3d990f733e881</property>
    <property name="ignore_points">0</property>
    <property name="creation_time">2021-10-11T20:34:14</property>
    <property name="xml">was here</property>
    <property name="shotcut:caption">Destiny 2 2021.10.11 - 13.13.35.02 - Low Conversion.mp4</property>
    <filter id="filter1" in="00:03:18.317" out="00:03:22.433">
      <property name="background">color:#00000000</property>
      <property name="mlt_service">affine</property>
      <property name="shotcut:filter">affineSizePosition</property>
      <property name="transition.fill">1</property>
      <property name="transition.distort">0</property>
      <property name="transition.rect">00:00:00.000=0 0 1600 900 1;00:00:01.533=-966.756 -1020.4 3520 1980 1</property>
      <property name="transition.valign">middle</property>
      <property name="transition.halign">center</property>
      <property name="shotcut:animIn">00:00:01.550</property>
      <property name="shotcut:animOut">00:00:00.000</property>
      <property name="transition.threads">0</property>
      <property name="transition.fix_rotate_x">00:00:00.000=0;00:00:01.533=0</property>
    </filter>
  </chain>
  <chain id="chain53" out="00:20:37.600">
    <property name="length">00:20:37.617</property>
    <property name="eof">pause</property>
    <property name="resource">D:/Videos/Projects/Destiny/BRoll/Destiny 2 2021.10.11 - 13.13.35.02 - Low Conversion.mp4</property>
    <property name="mlt_service">avformat-novalidate</property>
    <property name="seekable">1</property>
    <property name="audio_index">1</property>
    <property name="video_index">0</property>
    <property name="mute_on_pause">0</property>
    <property name="shotcut:hash">47a693d9bde7de68f7e3d990f733e881</property>
    <property name="ignore_points">0</property>
    <property name="creation_time">2021-10-11T20:34:14</property>
    <property name="xml">was here</property>
    <property name="shotcut:caption">Destiny 2 2021.10.11 - 13.13.35.02 - Low Conversion.mp4</property>
  </chain>
  <chain id="chain54" out="00:20:37.600">
    <property name="length">00:20:37.617</property>
    <property name="eof">pause</property>
    <property name="resource">D:/Videos/Projects/Destiny/BRoll/Destiny 2 2021.10.11 - 13.13.35.02 - Low Conversion.mp4</property>
    <property name="mlt_service">avformat-novalidate</property>
    <property name="seekable">1</property>
    <property name="audio_index">1</property>
    <property name="video_index">0</property>
    <property name="mute_on_pause">0</property>
    <property name="shotcut:hash">47a693d9bde7de68f7e3d990f733e881</property>
    <property name="ignore_points">0</property>
    <property name="creation_time">2021-10-11T20:34:14</property>
    <property name="xml">was here</property>
    <property name="shotcut:caption">Destiny 2 2021.10.11 - 13.13.35.02 - Low Conversion.mp4</property>
  </chain>
  <producer id="producer8" in="00:00:00.000" out="00:02:56.783">
    <property name="length">00:02:56.800</property>
    <property name="eof">pause</property>
    <property name="resource">7:D:/Videos/Projects/Destiny/BRoll/Destiny 2 2021.10.11 - 13.13.35.02 - Low Conversion.mp4</property>
    <property name="aspect_ratio">1</property>
    <property name="seekable">1</property>
    <property name="audio_index">1</property>
    <property name="video_index">0</property>
    <property name="mute_on_pause">1</property>
    <property name="warp_speed">7</property>
    <property name="warp_resource">D:/Videos/Projects/Destiny/BRoll/Destiny 2 2021.10.11 - 13.13.35.02 - Low Conversion.mp4</property>
    <property name="mlt_service">timewarp</property>
    <property name="shotcut:producer">avformat</property>
    <property name="video_delay">0</property>
    <property name="shotcut:hash">47a693d9bde7de68f7e3d990f733e881</property>
    <property name="shotcut:caption">Destiny 2 2021.10.11 - 13.13.35.02 - Low Conversion.mp4 (7x)</property>
    <property name="xml">was here</property>
  </producer>
  <chain id="chain55" out="00:20:37.600">
    <property name="length">00:20:37.617</property>
    <property name="eof">pause</property>
    <property name="resource">D:/Videos/Projects/Destiny/BRoll/Destiny 2 2021.10.11 - 13.13.35.02 - Low Conversion.mp4</property>
    <property name="mlt_service">avformat-novalidate</property>
    <property name="seekable">1</property>
    <property name="audio_index">1</property>
    <property name="video_index">0</property>
    <property name="mute_on_pause">0</property>
    <property name="shotcut:hash">47a693d9bde7de68f7e3d990f733e881</property>
    <property name="ignore_points">0</property>
    <property name="creation_time">2021-10-11T20:34:14</property>
    <property name="xml">was here</property>
    <property name="shotcut:caption">Destiny 2 2021.10.11 - 13.13.35.02 - Low Conversion.mp4</property>
  </chain>
  <chain id="chain56" out="00:20:37.600">
    <property name="length">00:20:37.617</property>
    <property name="eof">pause</property>
    <property name="resource">D:/Videos/Projects/Destiny/BRoll/Destiny 2 2021.10.11 - 13.13.35.02 - Low Conversion.mp4</property>
    <property name="mlt_service">avformat-novalidate</property>
    <property name="seekable">1</property>
    <property name="audio_index">1</property>
    <property name="video_index">0</property>
    <property name="mute_on_pause">0</property>
    <property name="shotcut:hash">47a693d9bde7de68f7e3d990f733e881</property>
    <property name="ignore_points">0</property>
    <property name="creation_time">2021-10-11T20:34:14</property>
    <property name="xml">was here</property>
    <property name="shotcut:caption">Destiny 2 2021.10.11 - 13.13.35.02 - Low Conversion.mp4</property>
  </chain>
  <producer id="producer9" in="00:00:00.000" out="02:45:00.917">
    <property name="length">02:45:00.933</property>
    <property name="eof">pause</property>
    <property name="resource">0.125:D:/Videos/Projects/Destiny/BRoll/Destiny 2 2021.10.11 - 13.13.35.02 - Low Conversion.mp4</property>
    <property name="aspect_ratio">1</property>
    <property name="seekable">1</property>
    <property name="audio_index">-1</property>
    <property name="video_index">0</property>
    <property name="mute_on_pause">1</property>
    <property name="warp_speed">0.125</property>
    <property name="warp_resource">D:/Videos/Projects/Destiny/BRoll/Destiny 2 2021.10.11 - 13.13.35.02 - Low Conversion.mp4</property>
    <property name="mlt_service">timewarp</property>
    <property name="shotcut:producer">avformat</property>
    <property name="video_delay">0</property>
    <property name="shotcut:hash">47a693d9bde7de68f7e3d990f733e881</property>
    <property name="shotcut:caption">Destiny 2 2021.10.11 - 13.13.35.02 - Low Conversion.mp4 (0.125x)</property>
    <property name="xml">was here</property>
    <property name="shotcut:defaultAudioIndex">1</property>
  </producer>
  <chain id="chain57" out="00:20:37.600">
    <property name="length">00:20:37.617</property>
    <property name="eof">pause</property>
    <property name="resource">D:/Videos/Projects/Destiny/BRoll/Destiny 2 2021.10.11 - 13.13.35.02 - Low Conversion.mp4</property>
    <property name="mlt_service">avformat-novalidate</property>
    <property name="seekable">1</property>
    <property name="audio_index">1</property>
    <property name="video_index">0</property>
    <property name="mute_on_pause">0</property>
    <property name="shotcut:hash">47a693d9bde7de68f7e3d990f733e881</property>
    <property name="ignore_points">0</property>
    <property name="creation_time">2021-10-11T20:34:14</property>
    <property name="xml">was here</property>
    <property name="shotcut:caption">Destiny 2 2021.10.11 - 13.13.35.02 - Low Conversion.mp4</property>
  </chain>
  <chain id="chain58" out="00:20:37.600">
    <property name="length">00:20:37.617</property>
    <property name="eof">pause</property>
    <property name="resource">D:/Videos/Projects/Destiny/BRoll/Destiny 2 2021.10.11 - 13.13.35.02 - Low Conversion.mp4</property>
    <property name="mlt_service">avformat-novalidate</property>
    <property name="seekable">1</property>
    <property name="audio_index">1</property>
    <property name="video_index">0</property>
    <property name="mute_on_pause">0</property>
    <property name="shotcut:hash">47a693d9bde7de68f7e3d990f733e881</property>
    <property name="ignore_points">0</property>
    <property name="creation_time">2021-10-11T20:34:14</property>
    <property name="xml">was here</property>
    <property name="shotcut:caption">Destiny 2 2021.10.11 - 13.13.35.02 - Low Conversion.mp4</property>
    <filter id="filter2" in="00:04:44.383" out="00:04:46.250">
      <property name="window">75</property>
      <property name="max_gain">20dB</property>
      <property name="level">-18.1</property>
      <property name="mlt_service">volume</property>
    </filter>
  </chain>
  <chain id="chain59" out="00:20:37.600">
    <property name="length">00:20:37.617</property>
    <property name="eof">pause</property>
    <property name="resource">D:/Videos/Projects/Destiny/BRoll/Destiny 2 2021.10.11 - 13.13.35.02 - Low Conversion.mp4</property>
    <property name="mlt_service">avformat-novalidate</property>
    <property name="seekable">1</property>
    <property name="audio_index">1</property>
    <property name="video_index">0</property>
    <property name="mute_on_pause">0</property>
    <property name="shotcut:hash">47a693d9bde7de68f7e3d990f733e881</property>
    <property name="ignore_points">0</property>
    <property name="creation_time">2021-10-11T20:34:14</property>
    <property name="xml">was here</property>
    <property name="shotcut:caption">Destiny 2 2021.10.11 - 13.13.35.02 - Low Conversion.mp4</property>
  </chain>
  <chain id="chain60" out="00:20:37.600">
    <property name="length">00:20:37.617</property>
    <property name="eof">pause</property>
    <property name="resource">D:/Videos/Projects/Destiny/BRoll/Destiny 2 2021.10.11 - 13.13.35.02 - Low Conversion.mp4</property>
    <property name="mlt_service">avformat-novalidate</property>
    <property name="seekable">1</property>
    <property name="audio_index">1</property>
    <property name="video_index">0</property>
    <property name="mute_on_pause">0</property>
    <property name="shotcut:hash">47a693d9bde7de68f7e3d990f733e881</property>
    <property name="ignore_points">0</property>
    <property name="creation_time">2021-10-11T20:34:14</property>
    <property name="xml">was here</property>
    <property name="shotcut:caption">Destiny 2 2021.10.11 - 13.13.35.02 - Low Conversion.mp4</property>
    <filter id="filter3" in="00:05:58.133" out="00:05:58.550">
      <property name="window">75</property>
      <property name="max_gain">20dB</property>
      <property name="level">6.9</property>
      <property name="mlt_service">volume</property>
    </filter>
  </chain>
  <chain id="chain61" out="00:20:37.600">
    <property name="length">00:20:37.617</property>
    <property name="eof">pause</property>
    <property name="resource">D:/Videos/Projects/Destiny/BRoll/Destiny 2 2021.10.11 - 13.13.35.02 - Low Conversion.mp4</property>
    <property name="mlt_service">avformat-novalidate</property>
    <property name="seekable">1</property>
    <property name="audio_index">1</property>
    <property name="video_index">0</property>
    <property name="mute_on_pause">0</property>
    <property name="shotcut:hash">47a693d9bde7de68f7e3d990f733e881</property>
    <property name="ignore_points">0</property>
    <property name="creation_time">2021-10-11T20:34:14</property>
    <property name="xml">was here</property>
    <property name="shotcut:caption">Destiny 2 2021.10.11 - 13.13.35.02 - Low Conversion.mp4</property>
  </chain>
  <chain id="chain62" out="00:20:37.600">
    <property name="length">00:20:37.617</property>
    <property name="eof">pause</property>
    <property name="resource">D:/Videos/Projects/Destiny/BRoll/Destiny 2 2021.10.11 - 13.13.35.02 - Low Conversion.mp4</property>
    <property name="mlt_service">avformat-novalidate</property>
    <property name="seekable">1</property>
    <property name="audio_index">1</property>
    <property name="video_index">0</property>
    <property name="mute_on_pause">0</property>
    <property name="shotcut:hash">47a693d9bde7de68f7e3d990f733e881</property>
    <property name="ignore_points">0</property>
    <property name="creation_time">2021-10-11T20:34:14</property>
    <property name="xml">was here</property>
    <property name="shotcut:caption">Destiny 2 2021.10.11 - 13.13.35.02 - Low Conversion.mp4</property>
  </chain>
  <chain id="chain63" out="00:20:37.600">
    <property name="length">00:20:37.617</property>
    <property name="eof">pause</property>
    <property name="resource">D:/Videos/Projects/Destiny/BRoll/Destiny 2 2021.10.11 - 13.13.35.02 - Low Conversion.mp4</property>
    <property name="mlt_service">avformat-novalidate</property>
    <property name="seekable">1</property>
    <property name="audio_index">1</property>
    <property name="video_index">0</property>
    <property name="mute_on_pause">0</property>
    <property name="shotcut:hash">47a693d9bde7de68f7e3d990f733e881</property>
    <property name="ignore_points">0</property>
    <property name="creation_time">2021-10-11T20:34:14</property>
    <property name="xml">was here</property>
    <property name="shotcut:caption">Destiny 2 2021.10.11 - 13.13.35.02 - Low Conversion.mp4</property>
  </chain>
  <chain id="chain64" out="00:20:37.600">
    <property name="length">00:20:37.617</property>
    <property name="eof">pause</property>
    <property name="resource">D:/Videos/Projects/Destiny/BRoll/Destiny 2 2021.10.11 - 13.13.35.02 - Low Conversion.mp4</property>
    <property name="mlt_service">avformat-novalidate</property>
    <property name="seekable">1</property>
    <property name="audio_index">1</property>
    <property name="video_index">0</property>
    <property name="mute_on_pause">0</property>
    <property name="shotcut:hash">47a693d9bde7de68f7e3d990f733e881</property>
    <property name="ignore_points">0</property>
    <property name="creation_time">2021-10-11T20:34:14</property>
    <property name="xml">was here</property>
    <property name="shotcut:caption">Destiny 2 2021.10.11 - 13.13.35.02 - Low Conversion.mp4</property>
  </chain>
  <chain id="chain65" out="00:20:37.600">
    <property name="length">00:20:37.617</property>
    <property name="eof">pause</property>
    <property name="resource">D:/Videos/Projects/Destiny/BRoll/Destiny 2 2021.10.11 - 13.13.35.02 - Low Conversion.mp4</property>
    <property name="mlt_service">avformat-novalidate</property>
    <property name="seekable">1</property>
    <property name="audio_index">1</property>
    <property name="video_index">0</property>
    <property name="mute_on_pause">0</property>
    <property name="shotcut:hash">47a693d9bde7de68f7e3d990f733e881</property>
    <property name="ignore_points">0</property>
    <property name="creation_time">2021-10-11T20:34:14</property>
    <property name="xml">was here</property>
    <property name="shotcut:caption">Destiny 2 2021.10.11 - 13.13.35.02 - Low Conversion.mp4</property>
  </chain>
  <chain id="chain66" out="00:20:37.600">
    <property name="length">00:20:37.617</property>
    <property name="eof">pause</property>
    <property name="resource">D:/Videos/Projects/Destiny/BRoll/Destiny 2 2021.10.11 - 13.13.35.02 - Low Conversion.mp4</property>
    <property name="mlt_service">avformat-novalidate</property>
    <property name="seekable">1</property>
    <property name="audio_index">1</property>
    <property name="video_index">0</property>
    <property name="mute_on_pause">0</property>
    <property name="shotcut:hash">47a693d9bde7de68f7e3d990f733e881</property>
    <property name="ignore_points">0</property>
    <property name="creation_time">2021-10-11T20:34:14</property>
    <property name="xml">was here</property>
    <property name="shotcut:caption">Destiny 2 2021.10.11 - 13.13.35.02 - Low Conversion.mp4</property>
  </chain>
  <chain id="chain67" out="00:20:37.600">
    <property name="length">00:20:37.617</property>
    <property name="eof">pause</property>
    <property name="resource">D:/Videos/Projects/Destiny/BRoll/Destiny 2 2021.10.11 - 13.13.35.02 - Low Conversion.mp4</property>
    <property name="mlt_service">avformat-novalidate</property>
    <property name="seekable">1</property>
    <property name="audio_index">1</property>
    <property name="video_index">0</property>
    <property name="mute_on_pause">0</property>
    <property name="shotcut:hash">47a693d9bde7de68f7e3d990f733e881</property>
    <property name="ignore_points">0</property>
    <property name="creation_time">2021-10-11T20:34:14</property>
    <property name="xml">was here</property>
    <property name="shotcut:caption">Destiny 2 2021.10.11 - 13.13.35.02 - Low Conversion.mp4</property>
  </chain>
  <chain id="chain68" out="00:20:37.600">
    <property name="length">00:20:37.617</property>
    <property name="eof">pause</property>
    <property name="resource">D:/Videos/Projects/Destiny/BRoll/Destiny 2 2021.10.11 - 13.13.35.02 - Low Conversion.mp4</property>
    <property name="mlt_service">avformat-novalidate</property>
    <property name="seekable">1</property>
    <property name="audio_index">1</property>
    <property name="video_index">0</property>
    <property name="mute_on_pause">0</property>
    <property name="shotcut:hash">47a693d9bde7de68f7e3d990f733e881</property>
    <property name="ignore_points">0</property>
    <property name="creation_time">2021-10-11T20:34:14</property>
    <property name="xml">was here</property>
    <property name="shotcut:caption">Destiny 2 2021.10.11 - 13.13.35.02 - Low Conversion.mp4</property>
  </chain>
  <chain id="chain69" out="00:20:37.600">
    <property name="length">00:20:37.617</property>
    <property name="eof">pause</property>
    <property name="resource">D:/Videos/Projects/Destiny/BRoll/Destiny 2 2021.10.11 - 13.13.35.02 - Low Conversion.mp4</property>
    <property name="mlt_service">avformat-novalidate</property>
    <property name="seekable">1</property>
    <property name="audio_index">1</property>
    <property name="video_index">0</property>
    <property name="mute_on_pause">0</property>
    <property name="shotcut:hash">47a693d9bde7de68f7e3d990f733e881</property>
    <property name="ignore_points">0</property>
    <property name="creation_time">2021-10-11T20:34:14</property>
    <property name="xml">was here</property>
    <property name="shotcut:caption">Destiny 2 2021.10.11 - 13.13.35.02 - Low Conversion.mp4</property>
  </chain>
  <chain id="chain70" out="00:20:37.600">
    <property name="length">00:20:37.617</property>
    <property name="eof">pause</property>
    <property name="resource">D:/Videos/Projects/Destiny/BRoll/Destiny 2 2021.10.11 - 13.13.35.02 - Low Conversion.mp4</property>
    <property name="mlt_service">avformat-novalidate</property>
    <property name="seekable">1</property>
    <property name="audio_index">1</property>
    <property name="video_index">0</property>
    <property name="mute_on_pause">0</property>
    <property name="shotcut:hash">47a693d9bde7de68f7e3d990f733e881</property>
    <property name="ignore_points">0</property>
    <property name="creation_time">2021-10-11T20:34:14</property>
    <property name="xml">was here</property>
    <property name="shotcut:caption">Destiny 2 2021.10.11 - 13.13.35.02 - Low Conversion.mp4</property>
  </chain>
  <chain id="chain71" out="00:20:37.600">
    <property name="length">00:20:37.617</property>
    <property name="eof">pause</property>
    <property name="resource">D:/Videos/Projects/Destiny/BRoll/Destiny 2 2021.10.11 - 13.13.35.02 - Low Conversion.mp4</property>
    <property name="mlt_service">avformat-novalidate</property>
    <property name="seekable">1</property>
    <property name="audio_index">1</property>
    <property name="video_index">0</property>
    <property name="mute_on_pause">0</property>
    <property name="shotcut:hash">47a693d9bde7de68f7e3d990f733e881</property>
    <property name="ignore_points">0</property>
    <property name="creation_time">2021-10-11T20:34:14</property>
    <property name="xml">was here</property>
    <property name="shotcut:caption">Destiny 2 2021.10.11 - 13.13.35.02 - Low Conversion.mp4</property>
  </chain>
  <chain id="chain72" out="00:20:37.600">
    <property name="length">00:20:37.617</property>
    <property name="eof">pause</property>
    <property name="resource">D:/Videos/Projects/Destiny/BRoll/Destiny 2 2021.10.11 - 13.13.35.02 - Low Conversion.mp4</property>
    <property name="mlt_service">avformat-novalidate</property>
    <property name="seekable">1</property>
    <property name="audio_index">1</property>
    <property name="video_index">0</property>
    <property name="mute_on_pause">0</property>
    <property name="shotcut:hash">47a693d9bde7de68f7e3d990f733e881</property>
    <property name="ignore_points">0</property>
    <property name="creation_time">2021-10-11T20:34:14</property>
    <property name="xml">was here</property>
    <property name="shotcut:caption">Destiny 2 2021.10.11 - 13.13.35.02 - Low Conversion.mp4</property>
  </chain>
  <chain id="chain73" out="00:20:37.600">
    <property name="length">00:20:37.617</property>
    <property name="eof">pause</property>
    <property name="resource">D:/Videos/Projects/Destiny/BRoll/Destiny 2 2021.10.11 - 13.13.35.02 - Low Conversion.mp4</property>
    <property name="mlt_service">avformat-novalidate</property>
    <property name="seekable">1</property>
    <property name="audio_index">1</property>
    <property name="video_index">0</property>
    <property name="mute_on_pause">0</property>
    <property name="shotcut:hash">47a693d9bde7de68f7e3d990f733e881</property>
    <property name="ignore_points">0</property>
    <property name="creation_time">2021-10-11T20:34:14</property>
    <property name="xml">was here</property>
    <property name="shotcut:caption">Destiny 2 2021.10.11 - 13.13.35.02 - Low Conversion.mp4</property>
    <filter id="filter4" in="00:19:38.783" out="00:19:41.417">
      <property name="background">color:#00000000</property>
      <property name="mlt_service">affine</property>
      <property name="shotcut:filter">affineSizePosition</property>
      <property name="transition.fill">1</property>
      <property name="transition.distort">0</property>
      <property name="transition.rect">00:00:00.000=24.4151 198.916 1600 900 1;00:00:00.083=-701.668 -84.4454 3200 1800 1;00:00:00.167=-1461.13 -290.492 4800 2700 1;00:00:00.300=-2151.54 -397.081 6400 3600 1;00:00:00.317=-1527.18 -5.47583 5188.8 2919 1;00:00:00.400=-2838.95 -540.45 8000 4500 1;00:00:00.667=-3177.31 -624.145 9600 5400 1;00:00:01.083=-4172.48 -426.355 11200 6300 1;00:00:01.533=-3503.84 -590.367 9600 5400 1;00:00:01.800=-2771.39 -696.58 8000 4500 1;00:00:02.233=-1249.46 -391.076 4800 2700 1;00:00:02.550=-803.003 -299.875 3200 1800 1</property>
      <property name="transition.valign">middle</property>
      <property name="transition.halign">center</property>
      <property name="shotcut:animIn">00:00:00.000</property>
      <property name="shotcut:animOut">00:00:00.000</property>
      <property name="transition.threads">0</property>
    </filter>
  </chain>
  <chain id="chain74" out="00:20:37.600">
    <property name="length">00:20:37.617</property>
    <property name="eof">pause</property>
    <property name="resource">D:/Videos/Projects/Destiny/BRoll/Destiny 2 2021.10.11 - 13.13.35.02 - Low Conversion.mp4</property>
    <property name="mlt_service">avformat-novalidate</property>
    <property name="seekable">1</property>
    <property name="audio_index">1</property>
    <property name="video_index">0</property>
    <property name="mute_on_pause">0</property>
    <property name="shotcut:hash">47a693d9bde7de68f7e3d990f733e881</property>
    <property name="ignore_points">0</property>
    <property name="creation_time">2021-10-11T20:34:14</property>
    <property name="xml">was here</property>
    <property name="shotcut:caption">Destiny 2 2021.10.11 - 13.13.35.02 - Low Conversion.mp4</property>
  </chain>
  <playlist id="playlist0">
    <property name="shotcut:video">1</property>
    <property name="shotcut:name">B-Roll</property>
    <blank length="00:00:06.483"/>
    <entry producer="chain45" in="00:00:06.483" out="00:00:24.250"/>
    <blank length="00:00:11.817"/>
    <entry producer="chain46" in="00:00:36.083" out="00:01:42.450"/>
    <blank length="00:00:05.383"/>
    <entry producer="chain47" in="00:01:47.850" out="00:02:15.733"/>
    <blank length="00:00:02.933"/>
    <entry producer="chain48" in="00:02:18.683" out="00:02:57.050"/>
    <blank length="00:00:04.000"/>
    <entry producer="chain49" in="00:02:57.067" out="00:03:09.217"/>
    <entry producer="chain50" in="00:03:09.233" out="00:03:13.267"/>
    <entry producer="chain51" in="00:03:13.283" out="00:03:18.300"/>
    <entry producer="chain52" in="00:03:18.317" out="00:03:22.433"/>
    <entry producer="chain53" in="00:03:22.450" out="00:03:53.533"/>
    <blank length="00:00:06.317"/>
    <entry producer="chain54" in="00:03:53.550" out="00:04:15.600"/>
    <entry producer="producer8" in="00:00:36.517" out="00:00:39.467"/>
    <entry producer="chain55" in="00:04:36.233" out="00:04:38.467"/>
    <entry producer="chain56" in="00:04:38.483" out="00:04:39.583"/>
    <entry producer="producer9" in="00:37:16.800" out="00:37:24.933"/>
    <entry producer="chain57" in="00:04:40.617" out="00:04:44.367"/>
    <entry producer="chain58" in="00:04:44.383" out="00:04:46.250"/>
    <entry producer="chain59" in="00:04:46.267" out="00:05:58.117"/>
    <entry producer="chain60" in="00:05:58.133" out="00:05:58.550"/>
    <entry producer="chain61" in="00:05:58.567" out="00:12:25.650"/>
    <entry producer="chain62" in="00:12:25.667" out="00:13:22.267"/>
    <entry producer="chain63" in="00:13:22.283" out="00:13:31.700"/>
    <entry producer="chain64" in="00:13:31.717" out="00:14:54.133"/>
    <entry producer="chain65" in="00:14:54.150" out="00:15:01.917"/>
    <entry producer="chain66" in="00:15:01.933" out="00:15:19.017"/>
    <entry producer="chain67" in="00:15:19.033" out="00:15:22.650"/>
    <entry producer="chain68" in="00:15:22.667" out="00:15:47.700"/>
    <entry producer="chain69" in="00:15:47.717" out="00:15:51.633"/>
    <entry producer="chain70" in="00:15:51.650" out="00:16:06.250"/>
    <entry producer="chain71" in="00:16:06.267" out="00:16:11.917"/>
    <entry producer="chain72" in="00:16:11.933" out="00:19:38.767"/>
    <entry producer="chain73" in="00:19:38.783" out="00:19:41.417"/>
    <entry producer="chain74" in="00:19:41.433" out="00:20:37.600"/>
  </playlist>
  <chain id="chain75" out="00:20:37.600">
    <property name="length">00:20:37.617</property>
    <property name="eof">pause</property>
    <property name="resource">D:/Videos/Projects/Destiny/BRoll/Destiny 2 2021.10.11 - 13.13.35.02 - Low Conversion.mp4</property>
    <property name="mlt_service">avformat-novalidate</property>
    <property name="seekable">1</property>
    <property name="audio_index">1</property>
    <property name="video_index">0</property>
    <property name="mute_on_pause">0</property>
    <property name="shotcut:hash">47a693d9bde7de68f7e3d990f733e881</property>
    <property name="ignore_points">0</property>
    <property name="creation_time">2021-10-11T20:34:14</property>
    <property name="xml">was here</property>
    <property name="shotcut:caption">Destiny 2 2021.10.11 - 13.13.35.02 - Low Conversion.mp4</property>
  </chain>
  <chain id="chain76" out="00:20:37.600">
    <property name="length">00:20:37.617</property>
    <property name="eof">pause</property>
    <property name="resource">D:/Videos/Projects/Destiny/BRoll/Destiny 2 2021.10.11 - 13.13.35.02 - Low Conversion.mp4</property>
    <property name="mlt_service">avformat-novalidate</property>
    <property name="seekable">1</property>
    <property name="audio_index">1</property>
    <property name="video_index">0</property>
    <property name="mute_on_pause">0</property>
    <property name="shotcut:hash">47a693d9bde7de68f7e3d990f733e881</property>
    <property name="ignore_points">0</property>
    <property name="creation_time">2021-10-11T20:34:14</property>
    <property name="xml">was here</property>
    <property name="shotcut:caption">Destiny 2 2021.10.11 - 13.13.35.02 - Low Conversion.mp4</property>
  </chain>
  <chain id="chain77" out="00:20:37.600">
    <property name="length">00:20:37.617</property>
    <property name="eof">pause</property>
    <property name="resource">D:/Videos/Projects/Destiny/BRoll/Destiny 2 2021.10.11 - 13.13.35.02 - Low Conversion.mp4</property>
    <property name="mlt_service">avformat-novalidate</property>
    <property name="seekable">1</property>
    <property name="audio_index">1</property>
    <property name="video_index">0</property>
    <property name="mute_on_pause">0</property>
    <property name="shotcut:hash">47a693d9bde7de68f7e3d990f733e881</property>
    <property name="ignore_points">0</property>
    <property name="creation_time">2021-10-11T20:34:14</property>
    <property name="xml">was here</property>
    <property name="shotcut:caption">Destiny 2 2021.10.11 - 13.13.35.02 - Low Conversion.mp4</property>
  </chain>
  <chain id="chain78" out="00:20:37.600">
    <property name="length">00:20:37.617</property>
    <property name="eof">pause</property>
    <property name="resource">D:/Videos/Projects/Destiny/BRoll/Destiny 2 2021.10.11 - 13.13.35.02 - Low Conversion.mp4</property>
    <property name="mlt_service">avformat-novalidate</property>
    <property name="seekable">1</property>
    <property name="audio_index">1</property>
    <property name="video_index">0</property>
    <property name="mute_on_pause">0</property>
    <property name="shotcut:hash">47a693d9bde7de68f7e3d990f733e881</property>
    <property name="ignore_points">0</property>
    <property name="creation_time">2021-10-11T20:34:14</property>
    <property name="xml">was here</property>
    <property name="shotcut:caption">Destiny 2 2021.10.11 - 13.13.35.02 - Low Conversion.mp4</property>
  </chain>
  <chain id="chain79" out="00:20:37.600">
    <property name="length">00:20:37.617</property>
    <property name="eof">pause</property>
    <property name="resource">D:/Videos/Projects/Destiny/BRoll/Destiny 2 2021.10.11 - 13.13.35.02 - Low Conversion.mp4</property>
    <property name="mlt_service">avformat-novalidate</property>
    <property name="seekable">1</property>
    <property name="audio_index">1</property>
    <property name="video_index">0</property>
    <property name="mute_on_pause">0</property>
    <property name="shotcut:hash">47a693d9bde7de68f7e3d990f733e881</property>
    <property name="ignore_points">0</property>
    <property name="creation_time">2021-10-11T20:34:14</property>
    <property name="xml">was here</property>
    <property name="shotcut:caption">Destiny 2 2021.10.11 - 13.13.35.02 - Low Conversion.mp4</property>
    <filter id="filter5" in="00:01:46.233" out="00:01:47.833">
      <property name="background">color:#00000000</property>
      <property name="mlt_service">affine</property>
      <property name="shotcut:filter">affineSizePosition</property>
      <property name="transition.fill">1</property>
      <property name="transition.distort">0</property>
      <property name="transition.rect">00:00:00.000=0 0 1600 900 1;00:00:01.017=-3626.19 -2093.94 8841.6 4973 1;00:00:01.417=-3626.19 -2093.94 8841.6 4973 1;00:00:01.600=0 0 1600 900 1</property>
      <property name="transition.valign">middle</property>
      <property name="transition.halign">center</property>
      <property name="shotcut:animIn">00:00:01.033</property>
      <property name="shotcut:animOut">00:00:00.200</property>
      <property name="transition.threads">0</property>
      <property name="transition.fix_rotate_x">00:00:00.000=0;00:00:01.017=0;00:00:01.417=0;00:00:01.600=0</property>
    </filter>
    <filter id="filter6" in="00:01:46.233" out="00:01:47.833">
      <property name="start">1</property>
      <property name="level">00:00:01.200=1;00:00:01.600=0</property>
      <property name="mlt_service">brightness</property>
      <property name="shotcut:filter">fadeOutBrightness</property>
      <property name="alpha">1</property>
      <property name="shotcut:animOut">00:00:00.417</property>
    </filter>
  </chain>
  <chain id="chain80" out="00:20:37.600">
    <property name="length">00:20:37.617</property>
    <property name="eof">pause</property>
    <property name="resource">D:/Videos/Projects/Destiny/BRoll/Destiny 2 2021.10.11 - 13.13.35.02 - Low Conversion.mp4</property>
    <property name="mlt_service">avformat-novalidate</property>
    <property name="seekable">1</property>
    <property name="audio_index">1</property>
    <property name="video_index">0</property>
    <property name="mute_on_pause">0</property>
    <property name="shotcut:hash">47a693d9bde7de68f7e3d990f733e881</property>
    <property name="ignore_points">0</property>
    <property name="creation_time">2021-10-11T20:34:14</property>
    <property name="xml">was here</property>
    <property name="shotcut:caption">Destiny 2 2021.10.11 - 13.13.35.02 - Low Conversion.mp4</property>
  </chain>
  <playlist id="playlist1">
    <property name="shotcut:video">1</property>
    <property name="shotcut:name">Output</property>
    <entry producer="chain75" in="00:00:00.000" out="00:00:05.617"/>
    <entry producer="chain76" in="00:00:05.633" out="00:00:06.467"/>
    <blank length="00:00:17.783"/>
    <entry producer="chain77" in="00:00:24.267" out="00:00:36.067"/>
    <blank length="00:01:06.383"/>
    <entry producer="chain78" in="00:01:42.467" out="00:01:46.217"/>
    <entry producer="chain79" in="00:01:46.233" out="00:01:47.833"/>
    <blank length="00:00:27.900"/>
    <entry producer="chain80" in="00:02:15.750" out="00:02:18.667"/>
  </playlist>
  <chain id="chain81" out="00:00:01.217">
    <property name="length">00:00:01.233</property>
    <property name="eof">pause</property>
    <property name="resource">D:/Videos/Projects/Destiny/Addins/COD Hitmarker.mp4</property>
    <property name="mlt_service">avformat-novalidate</property>
    <property name="seekable">1</property>
    <property name="audio_index">-1</property>
    <property name="video_index">0</property>
    <property name="mute_on_pause">0</property>
    <property name="xml">was here</property>
    <property name="shotcut:hash">724ebabcdf5e18998fbbbb84ae7947b1</property>
    <property name="shotcut:caption">COD Hitmarker.mp4</property>
    <property name="shotcut:defaultAudioIndex">1</property>
    <filter id="filter7" in="00:00:00.150" out="00:00:00.250">
      <property name="version">0.3</property>
      <property name="mlt_service">frei0r.bluescreen0r</property>
      <property name="threads">0</property>
      <property name="0">#00ef00</property>
      <property name="1">0.288</property>
      <property name="disable">0</property>
    </filter>
    <filter id="filter8" in="00:00:00.150" out="00:00:00.250">
      <property name="background">color:#00000000</property>
      <property name="mlt_service">affine</property>
      <property name="shotcut:filter">affineSizePosition</property>
      <property name="transition.fill">1</property>
      <property name="transition.distort">0</property>
      <property name="transition.rect">762.294 254.725 480 270 1</property>
      <property name="transition.valign">middle</property>
      <property name="transition.halign">center</property>
      <property name="shotcut:animIn">00:00:00.000</property>
      <property name="shotcut:animOut">00:00:00.000</property>
      <property name="transition.threads">0</property>
      <property name="transition.fix_rotate_x">0</property>
    </filter>
  </chain>
  <chain id="chain82" out="00:00:06.017">
    <property name="length">00:00:06.033</property>
    <property name="eof">pause</property>
    <property name="resource">D:/Videos/Projects/Destiny/Addins/Facepalm.mp4</property>
    <property name="mlt_service">avformat-novalidate</property>
    <property name="seekable">1</property>
    <property name="audio_index">1</property>
    <property name="video_index">0</property>
    <property name="mute_on_pause">0</property>
    <property name="xml">was here</property>
    <property name="shotcut:hash">412993eecd366a6588bd07773c5eb18f</property>
    <property name="shotcut:caption">Facepalm.mp4</property>
    <property name="shotcut:defaultAudioIndex">1</property>
    <filter id="filter9" out="00:00:06.017">
      <property name="version">0.3</property>
      <property name="mlt_service">frei0r.bluescreen0r</property>
      <property name="threads">0</property>
      <property name="0">#5bdf00</property>
      <property name="1">0.288</property>
      <property name="disable">0</property>
    </filter>
    <filter id="filter10" out="00:00:06.017">
      <property name="background">color:#00000000</property>
      <property name="mlt_service">affine</property>
      <property name="shotcut:filter">affineSizePosition</property>
      <property name="transition.fill">1</property>
      <property name="transition.distort">0</property>
      <property name="transition.rect">775.193 237.766 640 360 1</property>
      <property name="transition.valign">middle</property>
      <property name="transition.halign">center</property>
      <property name="shotcut:animIn">00:00:00.000</property>
      <property name="shotcut:animOut">00:00:00.000</property>
      <property name="transition.threads">0</property>
    </filter>
    <filter id="filter11" out="00:00:06.017">
      <property name="start">1</property>
      <property name="level">00:00:00.000=0;00:00:00.983=1</property>
      <property name="mlt_service">brightness</property>
      <property name="shotcut:filter">fadeInBrightness</property>
      <property name="alpha">1</property>
      <property name="shotcut:animIn">00:00:01.000</property>
    </filter>
    <filter id="filter12" out="00:00:06.017">
      <property name="start">1</property>
      <property name="level">00:00:05.033=1;00:00:06.017=0</property>
      <property name="mlt_service">brightness</property>
      <property name="shotcut:filter">fadeOutBrightness</property>
      <property name="alpha">1</property>
      <property name="shotcut:animOut">00:00:01.000</property>
    </filter>
    <filter id="filter13" out="00:00:06.017">
      <property name="window">75</property>
      <property name="max_gain">20dB</property>
      <property name="level">6.9</property>
      <property name="mlt_service">volume</property>
    </filter>
  </chain>
  <producer id="producer10" in="00:00:00.000" out="03:59:59.983">
    <property name="length">04:00:00.000</property>
    <property name="eof">pause</property>
    <property name="resource">D:/Videos/Projects/Destiny/Addins/wojak brain turbine.png</property>
    <property name="ttl">1</property>
    <property name="aspect_ratio">1</property>
    <property name="progressive">1</property>
    <property name="seekable">1</property>
    <property name="mlt_service">qimage</property>
    <property name="creation_time">2021-10-23T23:13:26</property>
    <property name="xml">was here</property>
    <property name="shotcut:hash">22c1df730065c19f056b0a5f29d1ebde</property>
    <property name="shotcut:caption">wojak brain turbine.png</property>
    <filter id="filter14" out="00:00:01.683">
      <property name="background">color:#00000000</property>
      <property name="mlt_service">affine</property>
      <property name="shotcut:filter">affineSizePosition</property>
      <property name="transition.fill">1</property>
      <property name="transition.distort">0</property>
      <property name="transition.rect">66.0319 621.583 190.391 175.745 1</property>
      <property name="transition.valign">middle</property>
      <property name="transition.halign">center</property>
      <property name="shotcut:animIn">00:00:00.000</property>
      <property name="shotcut:animOut">00:00:00.000</property>
      <property name="transition.threads">0</property>
      <property name="transition.fix_rotate_x">11.5</property>
    </filter>
  </producer>
  <producer id="producer11" in="00:00:00.000" out="03:59:59.983">
    <property name="length">04:00:00.000</property>
    <property name="eof">pause</property>
    <property name="resource">D:/Videos/Projects/Destiny/Addins/greenscreen sound icon.jpg</property>
    <property name="ttl">1</property>
    <property name="aspect_ratio">1</property>
    <property name="progressive">1</property>
    <property name="seekable">1</property>
    <property name="mlt_service">qimage</property>
    <property name="creation_time">2021-10-24T04:52:20</property>
    <property name="xml">was here</property>
    <property name="shotcut:hash">5824e9b0c1231509b8b9f2646bcb5e74</property>
    <property name="shotcut:caption">greenscreen sound icon.jpg</property>
    <filter id="filter15" out="00:00:03.733">
      <property name="version">0.3</property>
      <property name="mlt_service">frei0r.bluescreen0r</property>
      <property name="threads">0</property>
      <property name="0">#00ef00</property>
      <property name="1">0.288</property>
      <property name="disable">0</property>
    </filter>
    <filter id="filter16" out="00:00:03.733">
      <property name="background">color:#00000000</property>
      <property name="mlt_service">affine</property>
      <property name="shotcut:filter">affineSizePosition</property>
      <property name="transition.fill">1</property>
      <property name="transition.distort">0</property>
      <property name="transition.rect">-4.62487 641.932 164.44 92.4974 1</property>
      <property name="transition.valign">middle</property>
      <property name="transition.halign">center</property>
      <property name="shotcut:animIn">00:00:00.000</property>
      <property name="shotcut:animOut">00:00:00.000</property>
      <property name="transition.threads">0</property>
      <property name="transition.fix_rotate_x">-18.1</property>
    </filter>
  </producer>
  <chain id="chain83" out="00:00:19.217">
    <property name="length">00:00:19.233</property>
    <property name="eof">pause</property>
    <property name="resource">D:/Videos/Projects/Destiny/Addins/black guy dancing.mp4</property>
    <property name="mlt_service">avformat-novalidate</property>
    <property name="seekable">1</property>
    <property name="audio_index">1</property>
    <property name="video_index">0</property>
    <property name="mute_on_pause">0</property>
    <property name="xml">was here</property>
    <property name="shotcut:hash">a1cc5e2ab3ec3eebc8cfbb9a5c5f8ab0</property>
    <property name="shotcut:caption">black guy dancing.mp4</property>
    <filter id="filter17" in="00:00:06.700" out="00:00:11.400">
      <property name="version">0.3</property>
      <property name="mlt_service">frei0r.bluescreen0r</property>
      <property name="threads">0</property>
      <property name="0">#00ef00</property>
      <property name="1">0.288</property>
      <property name="disable">0</property>
    </filter>
    <filter id="filter18" in="00:00:06.700" out="00:00:11.400">
      <property name="start">1</property>
      <property name="level">00:00:04.550=1;00:00:04.700=0</property>
      <property name="mlt_service">brightness</property>
      <property name="shotcut:filter">fadeOutBrightness</property>
      <property name="alpha">1</property>
      <property name="shotcut:animOut">00:00:00.167</property>
    </filter>
    <filter id="filter19" in="00:00:06.700" out="00:00:11.400">
      <property name="window">75</property>
      <property name="max_gain">20dB</property>
      <property name="mlt_service">volume</property>
      <property name="shotcut:filter">muteVolume</property>
      <property name="gain">0</property>
    </filter>
  </chain>
  <chain id="chain84" out="00:00:30.033">
    <property name="length">00:00:30.050</property>
    <property name="eof">pause</property>
    <property name="resource">D:/Videos/Projects/Destiny/Addins/speed greenscreen.mp4</property>
    <property name="mlt_service">avformat-novalidate</property>
    <property name="seekable">1</property>
    <property name="audio_index">1</property>
    <property name="video_index">0</property>
    <property name="mute_on_pause">0</property>
    <property name="xml">was here</property>
    <property name="shotcut:hash">0513576b09cc252763171a8ef80bfe2c</property>
    <property name="shotcut:caption">speed greenscreen.mp4</property>
    <filter id="filter20" out="00:00:12.883">
      <property name="version">0.3</property>
      <property name="mlt_service">frei0r.bluescreen0r</property>
      <property name="threads">0</property>
      <property name="0">#00ef00</property>
      <property name="1">0.288</property>
      <property name="disable">0</property>
    </filter>
  </chain>
  <producer id="producer12" in="00:00:00.000" out="03:59:59.983">
    <property name="length">04:00:00.000</property>
    <property name="eof">pause</property>
    <property name="resource">D:/Videos/Projects/Destiny/Addins/freeze_frame.png</property>
    <property name="ttl">1</property>
    <property name="aspect_ratio">1</property>
    <property name="progressive">1</property>
    <property name="seekable">1</property>
    <property name="mlt_service">qimage</property>
    <property name="creation_time">2021-10-24T06:01:44</property>
    <property name="xml">was here</property>
    <property name="shotcut:hash">e9f38a44cdd7c3d30641ca5175d90e7e</property>
    <property name="shotcut:caption">freeze_frame.png</property>
  </producer>
  <chain id="chain85" out="00:00:05.883">
    <property name="length">00:00:05.900</property>
    <property name="eof">pause</property>
    <property name="resource">D:/Videos/Projects/Destiny/Addins/explosioooo.mp4</property>
    <property name="mlt_service">avformat-novalidate</property>
    <property name="seekable">1</property>
    <property name="audio_index">-1</property>
    <property name="video_index">0</property>
    <property name="mute_on_pause">0</property>
    <property name="xml">was here</property>
    <property name="shotcut:hash">641be12c747e050cfb4fbb3b93855287</property>
    <property name="ignore_points">0</property>
    <property name="shotcut:caption">explosioooo.mp4</property>
    <property name="shotcut:defaultAudioIndex">1</property>
    <filter id="filter21" out="00:00:01.683">
      <property name="version">0.3</property>
      <property name="mlt_service">frei0r.bluescreen0r</property>
      <property name="threads">0</property>
      <property name="0">#00ef00</property>
      <property name="1">0.288</property>
      <property name="disable">0</property>
    </filter>
    <filter id="filter22" out="00:00:01.683">
      <property name="background">color:#00000000</property>
      <property name="mlt_service">affine</property>
      <property name="shotcut:filter">affineSizePosition</property>
      <property name="transition.fill">1</property>
      <property name="transition.distort">0</property>
      <property name="transition.rect">200.232 -10.4287 765.701 430.707 1</property>
      <property name="transition.valign">middle</property>
      <property name="transition.halign">center</property>
      <property name="shotcut:animIn">00:00:00.000</property>
      <property name="shotcut:animOut">00:00:00.000</property>
      <property name="transition.threads">0</property>
      <property name="transition.fix_rotate_x">0</property>
    </filter>
    <filter id="filter23" out="00:00:01.683">
      <property name="window">75</property>
      <property name="max_gain">20dB</property>
      <property name="level">00:00:00.867=0;00:00:01.683=-60</property>
      <property name="mlt_service">volume</property>
      <property name="shotcut:filter">fadeOutVolume</property>
      <property name="shotcut:animOut">00:00:00.833</property>
    </filter>
  </chain>
  <producer id="producer13" in="00:00:00.000" out="03:59:59.983">
    <property name="length">04:00:00.000</property>
    <property name="eof">pause</property>
    <property name="resource">D:/Videos/Projects/Destiny/Addins/pogu greenscreen.jpg</property>
    <property name="ttl">1</property>
    <property name="aspect_ratio">1</property>
    <property name="progressive">1</property>
    <property name="seekable">1</property>
    <property name="mlt_service">qimage</property>
    <property name="creation_time">2021-10-24T06:32:26</property>
    <property name="xml">was here</property>
    <property name="shotcut:hash">1c94f2ff9b0de8162493668122d03155</property>
    <property name="shotcut:caption">pogu greenscreen.jpg</property>
    <filter id="filter24" out="00:00:03.550">
      <property name="version">0.3</property>
      <property name="mlt_service">frei0r.bluescreen0r</property>
      <property name="threads">0</property>
      <property name="0">#00ef00</property>
      <property name="1">0.288</property>
      <property name="disable">0</property>
    </filter>
    <filter id="filter25" out="00:00:03.550">
      <property name="background">color:#00000000</property>
      <property name="mlt_service">affine</property>
      <property name="shotcut:filter">affineSizePosition</property>
      <property name="transition.fill">1</property>
      <property name="transition.distort">0</property>
      <property name="transition.rect">1004.75 396.292 552.491 310.776 1</property>
      <property name="transition.valign">middle</property>
      <property name="transition.halign">center</property>
      <property name="shotcut:animIn">00:00:00.000</property>
      <property name="shotcut:animOut">00:00:00.000</property>
      <property name="transition.threads">0</property>
      <property name="transition.fix_rotate_x">0</property>
    </filter>
  </producer>
  <chain id="chain86" out="00:00:06.300">
    <property name="length">00:00:06.317</property>
    <property name="eof">pause</property>
    <property name="resource">D:/Videos/Projects/Destiny/Addins/trinity ghoul edit.mp4</property>
    <property name="mlt_service">avformat-novalidate</property>
    <property name="seekable">1</property>
    <property name="audio_index">1</property>
    <property name="video_index">0</property>
    <property name="mute_on_pause">0</property>
    <property name="xml">was here</property>
    <property name="shotcut:hash">78f683a3201f819a3212720c3fc1afe6</property>
    <property name="ignore_points">0</property>
    <property name="shotcut:caption">trinity ghoul edit.mp4</property>
    <filter id="filter26" out="00:00:06.300">
      <property name="start">1</property>
      <property name="level">00:00:00.000=0;00:00:00.483=1</property>
      <property name="mlt_service">brightness</property>
      <property name="shotcut:filter">fadeInBrightness</property>
      <property name="alpha">1</property>
      <property name="shotcut:animIn">00:00:00.500</property>
    </filter>
    <filter id="filter27" out="00:00:06.300">
      <property name="window">75</property>
      <property name="max_gain">20dB</property>
      <property name="level">00:00:00.000=-60;00:00:00.483=0</property>
      <property name="mlt_service">volume</property>
      <property name="shotcut:filter">fadeInVolume</property>
      <property name="shotcut:animIn">00:00:00.500</property>
    </filter>
    <filter id="filter28" in="00:00:03.867" out="00:00:06.300">
      <property name="start">1</property>
      <property name="level">00:00:01.950=1;00:00:02.433=0</property>
      <property name="mlt_service">brightness</property>
      <property name="shotcut:filter">fadeOutBrightness</property>
      <property name="alpha">1</property>
      <property name="shotcut:animOut">00:00:00.500</property>
    </filter>
    <filter id="filter29" in="00:00:03.867" out="00:00:06.300">
      <property name="window">75</property>
      <property name="max_gain">20dB</property>
      <property name="level">00:00:01.950=0;00:00:02.433=-60</property>
      <property name="mlt_service">volume</property>
      <property name="shotcut:filter">fadeOutVolume</property>
      <property name="shotcut:animOut">00:00:00.500</property>
    </filter>
  </chain>
  <chain id="chain87" out="00:01:14.917">
    <property name="length">00:01:14.933</property>
    <property name="eof">pause</property>
    <property name="resource">D:/Videos/Projects/Destiny/Addins/FF.mp4</property>
    <property name="mlt_service">avformat-novalidate</property>
    <property name="seekable">1</property>
    <property name="audio_index">1</property>
    <property name="video_index">0</property>
    <property name="mute_on_pause">0</property>
    <property name="xml">was here</property>
    <property name="shotcut:hash">cb17980e28b469d1dfedaa43b75d3956</property>
    <property name="shotcut:caption">FF.mp4</property>
    <filter id="filter30" out="00:00:02.950">
      <property name="version">0.3</property>
      <property name="mlt_service">frei0r.bluescreen0r</property>
      <property name="threads">0</property>
      <property name="0">#00ef00</property>
      <property name="1">0.288</property>
      <property name="disable">0</property>
    </filter>
  </chain>
  <producer id="producer14" in="00:00:00.000" out="03:59:59.983">
    <property name="length">04:00:00.000</property>
    <property name="eof">pause</property>
    <property name="resource">c:/Users/danjl/Downloads/sad face.jpg</property>
    <property name="ttl">1</property>
    <property name="aspect_ratio">1</property>
    <property name="progressive">1</property>
    <property name="seekable">1</property>
    <property name="mlt_service">qimage</property>
    <property name="creation_time">2021-10-23T19:49:52</property>
    <property name="shotcut:hash">939784fb44c10e5c4d7a16890482aec8</property>
    <property name="shotcut:caption">sad face.jpg</property>
    <property name="xml">was here</property>
    <filter id="filter31" out="00:00:03.683">
      <property name="version">0.3</property>
      <property name="mlt_service">frei0r.bluescreen0r</property>
      <property name="threads">0</property>
      <property name="0">#00ef00</property>
      <property name="1">0.288</property>
      <property name="disable">0</property>
    </filter>
    <filter id="filter32" out="00:00:03.683">
      <property name="background">color:#00000000</property>
      <property name="mlt_service">affine</property>
      <property name="shotcut:filter">affineSizePosition</property>
      <property name="transition.fill">1</property>
      <property name="transition.distort">0</property>
      <property name="transition.rect">00:00:00.000=618.851 314.121 385.897 217.407 1;00:00:00.800=586.08 290.142 385.897 217.407 1;00:00:01.500=506.95 239.787 385.897 217.407 1;00:00:02.317=470.183 193.428 385.897 217.407 1;00:00:03.150=371.87 206.217 385.897 217.407 1</property>
      <property name="transition.valign">middle</property>
      <property name="transition.halign">center</property>
      <property name="shotcut:animIn">00:00:00.000</property>
      <property name="shotcut:animOut">00:00:00.000</property>
      <property name="transition.threads">0</property>
    </filter>
  </producer>
  <chain id="chain88" out="00:00:03.733">
    <property name="length">00:00:03.750</property>
    <property name="eof">pause</property>
    <property name="resource">D:/Videos/Projects/Destiny/Addins/kermit.mp4</property>
    <property name="mlt_service">avformat-novalidate</property>
    <property name="seekable">1</property>
    <property name="audio_index">1</property>
    <property name="video_index">0</property>
    <property name="mute_on_pause">0</property>
    <property name="xml">was here</property>
    <property name="shotcut:hash">41986657f1bbc0ecf17876ce426e73a4</property>
    <property name="shotcut:caption">kermit.mp4</property>
    <filter id="filter33" out="00:00:01.250">
      <property name="version">0.3</property>
      <property name="mlt_service">frei0r.bluescreen0r</property>
      <property name="threads">0</property>
      <property name="0">#002cff</property>
      <property name="1">0.288</property>
      <property name="disable">0</property>
    </filter>
    <filter id="filter34" out="00:00:01.250">
      <property name="background">color:#00000000</property>
      <property name="mlt_service">affine</property>
      <property name="shotcut:filter">affineSizePosition</property>
      <property name="transition.fill">1</property>
      <property name="transition.distort">0</property>
      <property name="transition.rect">00:00:00.000=891.201 383.57 117.098 117.098 1;00:00:00.017=873.186 384.32 117.098 117.098 1;00:00:00.067=807.131 389.575 117.098 117.098 1;00:00:00.383=814.638 403.086 117.098 117.098 1;00:00:00.550=799.625 467.64 117.098 117.098 1;00:00:00.867=799.625 497.665 117.098 117.098 1;00:00:01.200=792.869 516.43 117.098 117.098 1</property>
      <property name="transition.valign">middle</property>
      <property name="transition.halign">center</property>
      <property name="shotcut:animIn">00:00:00.000</property>
      <property name="shotcut:animOut">00:00:00.000</property>
      <property name="transition.threads">0</property>
      <property name="transition.fix_rotate_x">0</property>
    </filter>
  </chain>
  <producer id="producer15" in="00:00:00.000" out="03:59:59.983">
    <property name="length">04:00:00.000</property>
    <property name="eof">pause</property>
    <property name="resource">C:/Users/danjl/Pictures/upside down smiley.jpg</property>
    <property name="ttl">1</property>
    <property name="aspect_ratio">1</property>
    <property name="progressive">1</property>
    <property name="seekable">1</property>
    <property name="mlt_service">qimage</property>
    <property name="creation_time">2021-10-25T00:24:28</property>
    <property name="xml">was here</property>
    <property name="shotcut:hash">f4fe48568021697d9f0584a2d1550ffe</property>
    <property name="shotcut:caption">upside down smiley.jpg</property>
    <filter id="filter35" out="00:00:00.100">
      <property name="version">0.3</property>
      <property name="mlt_service">frei0r.bluescreen0r</property>
      <property name="threads">0</property>
      <property name="0">#00ef00</property>
      <property name="1">0.288</property>
      <property name="disable">0</property>
    </filter>
    <filter id="filter36" out="00:00:00.100">
      <property name="background">color:#00000000</property>
      <property name="mlt_service">affine</property>
      <property name="shotcut:filter">affineSizePosition</property>
      <property name="transition.fill">1</property>
      <property name="transition.distort">0</property>
      <property name="transition.rect">938.587 51.9757 235.512 236.17 1</property>
      <property name="transition.valign">middle</property>
      <property name="transition.halign">center</property>
      <property name="shotcut:animIn">00:00:00.000</property>
      <property name="shotcut:animOut">00:00:00.000</property>
      <property name="transition.threads">0</property>
    </filter>
  </producer>
  <producer id="producer16" in="00:00:00.000" out="03:59:59.983">
    <property name="length">04:00:00.000</property>
    <property name="eof">pause</property>
    <property name="resource">D:/Videos/Projects/Destiny/Addins/greenscreen sound icon.jpg</property>
    <property name="ttl">1</property>
    <property name="aspect_ratio">1</property>
    <property name="progressive">1</property>
    <property name="seekable">1</property>
    <property name="mlt_service">qimage</property>
    <property name="creation_time">2021-10-24T04:52:20</property>
    <property name="xml">was here</property>
    <property name="shotcut:hash">5824e9b0c1231509b8b9f2646bcb5e74</property>
    <property name="shotcut:caption">greenscreen sound icon.jpg</property>
    <filter id="filter37" out="00:00:03.983">
      <property name="version">0.3</property>
      <property name="mlt_service">frei0r.bluescreen0r</property>
      <property name="threads">0</property>
      <property name="0">#00ef00</property>
      <property name="1">0.288</property>
      <property name="disable">0</property>
    </filter>
    <filter id="filter38" out="00:00:03.983">
      <property name="background">color:#00000000</property>
      <property name="mlt_service">affine</property>
      <property name="shotcut:filter">affineSizePosition</property>
      <property name="transition.fill">1</property>
      <property name="transition.distort">0</property>
      <property name="transition.rect">00:00:00.000=555.218 178.723 311.246 175.076 1;00:00:00.017=543.873 188.727 311.246 175.076 1;00:00:00.033=533.33 202.074 311.246 175.076 1;00:00:00.050=524.525 210.434 311.246 175.076 1;00:00:00.067=518.367 210.294 311.246 175.076 1;00:00:00.083=513.912 209.211 311.246 175.076 1;00:00:00.100=515.714 209.952 311.246 175.076 1;00:00:00.133=535.774 219.071 311.246 175.076 1;00:00:00.150=552.188 219.071 311.246 175.076 1;00:00:00.167=571.337 220.894 311.246 175.076 1;00:00:00.183=595.957 219.071 311.246 175.076 1;00:00:00.200=620.577 219.982 311.246 175.076 1;00:00:00.217=656.139 232.748 311.246 175.076 1;00:00:00.233=687.142 243.691 311.246 175.076 1;00:00:00.250=723.616 233.66 311.246 175.076 1;00:00:00.267=778.328 243.691 311.246 175.076 1;00:00:00.283=846.717 236.396 311.246 175.076 1;00:00:00.300=927.872 240.955 311.246 175.076 1;00:00:00.317=1035.47 240.043 311.246 175.076 1;00:00:00.333=1124.83 256.457 311.246 175.076 1;00:00:00.367=1205.08 240.955 311.246 175.076 1;00:00:00.383=1260.7 253.721 311.246 175.076 1;00:00:00.417=1233.34 248.25 311.246 175.076 1;00:00:00.433=1203.25 243.691 311.246 175.076 1;00:00:00.450=1174.98 235.484 311.246 175.076 1;00:00:00.483=1137.6 241.867 311.246 175.076 1;00:00:00.533=1099.3 242.779 311.246 175.076 1;00:00:00.550=1083.8 221.806 311.246 175.076 1;00:00:00.583=1062.83 205.393 311.246 175.076 1;00:00:00.700=1066.47 193.539 311.246 175.076 1;00:00:00.750=1079.24 172.566 311.246 175.076 1;00:00:00.800=1090.18 176.213 311.246 175.076 1;00:00:00.900=1112.07 173.478 311.246 175.076 1;00:00:00.967=1096.56 169.831 311.246 175.076 1;00:00:00.983=1084.71 184.42 311.246 175.076 1;00:00:01.017=1072.86 180.773 311.246 175.076 1;00:00:01.033=1059.18 178.037 311.246 175.076 1;00:00:01.050=1030 201.745 311.246 175.076 1;00:00:01.083=1004.47 209.04 311.246 175.076 1;00:00:01.100=982.583 208.128 311.246 175.076 1;00:00:01.117=953.404 204.481 311.246 175.076 1;00:00:01.133=921.489 216.335 311.246 175.076 1;00:00:01.150=884.103 227.277 311.246 175.076 1;00:00:01.167=853.1 243.691 311.246 175.076 1;00:00:01.200=806.595 283.812 311.246 175.076 1;00:00:01.217=777.416 303.873 311.246 175.076 1;00:00:01.233=749.148 303.873 311.246 175.076 1;00:00:01.250=723.616 308.432 311.246 175.076 1;00:00:01.267=706.291 316.639 311.246 175.076 1;00:00:01.300=682.583 320.286 311.246 175.076 1;00:00:01.317=667.081 319.375 311.246 175.076 1;00:00:01.333=647.021 316.639 311.246 175.076 1;00:00:01.350=630.607 318.463 311.246 175.076 1;00:00:01.417=624.224 281.989 311.246 175.076 1;00:00:01.433=618.753 254.633 311.246 175.076 1;00:00:01.450=608.723 209.04 311.246 175.076 1;00:00:01.467=606.899 174.39 311.246 175.076 1;00:00:01.500=628.783 129.709 311.246 175.076 1;00:00:01.533=700.82 84.1162 311.246 175.076 1;00:00:01.583=730.911 88.6755 311.246 175.076 1;00:00:01.600=750.06 95.9703 311.246 175.076 1;00:00:01.617=766.473 109.648 311.246 175.076 1;00:00:01.633=782.887 117.855 311.246 175.076 1;00:00:01.700=743.677 105.089 311.246 175.076 1;00:00:01.717=694.437 112.384 311.246 175.076 1;00:00:01.733=649.756 113.296 311.246 175.076 1;00:00:01.750=629.695 117.855 311.246 175.076 1;00:00:01.767=603.252 116.031 311.246 175.076 1;00:00:01.783=574.984 110.56 311.246 175.076 1;00:00:01.817=539.422 106.001 311.246 175.076 1;00:00:01.867=511.154 101.441 311.246 175.076 1;00:00:01.900=480.151 95.9703 311.246 175.076 1;00:00:02.217=480.151 130.621 311.246 175.076 1;00:00:02.300=511.154 131.533 311.246 175.076 1;00:00:02.400=531.215 128.797 311.246 175.076 1;00:00:02.433=560.394 126.062 311.246 175.076 1;00:00:02.500=566.777 122.414 311.246 175.076 1;00:00:02.517=595.957 116.031 311.246 175.076 1;00:00:02.533=619.665 113.296 311.246 175.076 1;00:00:02.550=636.99 119.679 311.246 175.076 1;00:00:02.583=655.227 150.682 311.246 175.076 1;00:00:02.617=664.346 181.685 311.246 175.076 1;00:00:02.633=687.142 245.514 311.246 175.076 1;00:00:02.800=696.261 243.691 311.246 175.076 1;00:00:02.917=704.467 251.897 311.246 175.076 1;00:00:02.967=711.762 249.162 311.246 175.076 1;00:00:03.000=739.118 244.603 311.246 175.076 1;00:00:03.067=713.586 241.867 311.246 175.076 1;00:00:03.117=696.261 250.986 311.246 175.076 1;00:00:03.133=680.759 261.928 311.246 175.076 1;00:00:03.150=656.139 277.429 311.246 175.076 1;00:00:03.167=628.783 284.724 311.246 175.076 1;00:00:03.217=599.604 271.958 311.246 175.076 1;00:00:03.250=544.893 263.751 311.246 175.076 1;00:00:03.317=518.449 229.101 311.246 175.076 1;00:00:03.383=498.388 217.247 311.246 175.076 1;00:00:03.467=524.832 205.393 311.246 175.076 1;00:00:03.517=548.54 214.511 311.246 175.076 1;00:00:03.550=565.866 228.189 311.246 175.076 1;00:00:03.633=537.598 221.806 311.246 175.076 1;00:00:03.667=512.066 228.189 311.246 175.076 1;00:00:03.717=482.887 226.365 311.246 175.076 1;00:00:03.750=452.796 229.101 311.246 175.076 1;00:00:03.783=429.999 243.691 311.246 175.076 1</property>
      <property name="transition.valign">middle</property>
      <property name="transition.halign">center</property>
      <property name="shotcut:animIn">00:00:00.000</property>
      <property name="shotcut:animOut">00:00:00.000</property>
      <property name="transition.threads">0</property>
    </filter>
  </producer>
  <playlist id="playlist2">
    <property name="shotcut:video">1</property>
    <property name="shotcut:name">Overlay</property>
    <blank length="00:00:05.983"/>
    <entry producer="chain81" in="00:00:00.150" out="00:00:00.250"/>
    <blank length="00:00:18.167"/>
    <entry producer="chain82" in="00:00:00.000" out="00:00:06.017"/>
    <blank length="00:00:05.733"/>
    <entry producer="producer10" in="00:00:00.000" out="00:00:01.683"/>
    <blank length="00:00:43.117"/>
    <entry producer="producer11" in="00:00:00.000" out="00:00:03.733"/>
    <blank length="00:00:03.883"/>
    <entry producer="chain83" in="00:00:06.700" out="00:00:11.400"/>
    <blank length="00:00:20.217"/>
    <entry producer="chain84" in="00:00:00.000" out="00:00:12.883"/>
    <blank length="00:00:50.750"/>
    <entry producer="producer12" in="00:00:00.000" out="00:00:03.983"/>
    <blank length="00:00:08.733"/>
    <entry producer="chain85" in="00:00:00.000" out="00:00:01.683"/>
    <blank length="00:00:02.117"/>
    <entry producer="producer13" in="00:00:00.000" out="00:00:03.550"/>
    <blank length="00:00:40.367"/>
    <entry producer="chain86" in="00:00:00.000" out="00:00:06.300"/>
    <blank length="00:00:22.000"/>
    <entry producer="chain87" in="00:00:00.000" out="00:00:02.950"/>
    <blank length="00:00:06.917"/>
    <entry producer="producer14" in="00:00:00.000" out="00:00:03.683"/>
    <blank length="00:00:13.917"/>
    <entry producer="chain88" in="00:00:00.000" out="00:00:01.250"/>
    <blank length="00:01:48.033"/>
    <entry producer="producer15" in="00:00:00.000" out="00:00:00.100"/>
    <blank length="00:00:29.383"/>
    <entry producer="producer16" in="00:00:00.000" out="00:00:03.983"/>
  </playlist>
  <chain id="chain89" out="00:00:01.217">
    <property name="length">00:00:01.233</property>
    <property name="eof">pause</property>
    <property name="resource">D:/Videos/Projects/Destiny/Addins/COD Hitmarker.mp4</property>
    <property name="mlt_service">avformat-novalidate</property>
    <property name="seekable">1</property>
    <property name="audio_index">1</property>
    <property name="video_index">0</property>
    <property name="mute_on_pause">0</property>
    <property name="xml">was here</property>
    <property name="shotcut:hash">724ebabcdf5e18998fbbbb84ae7947b1</property>
    <property name="shotcut:caption">COD Hitmarker.mp4</property>
    <property name="shotcut:defaultAudioIndex">1</property>
  </chain>
  <chain id="chain90" out="00:03:44.267">
    <property name="length">00:03:44.283</property>
    <property name="eof">pause</property>
    <property name="resource">D:/Videos/Projects/Destiny/Addins/PUFFERFISH AEUGH.mp4</property>
    <property name="mlt_service">avformat-novalidate</property>
    <property name="seekable">1</property>
    <property name="audio_index">1</property>
    <property name="video_index">0</property>
    <property name="mute_on_pause">0</property>
    <property name="xml">was here</property>
    <property name="shotcut:hash">c32c6c47064ae9a8b552c9ed67670aeb</property>
    <property name="shotcut:caption">PUFFERFISH AEUGH.mp4</property>
  </chain>
  <chain id="chain91" out="00:00:06.933">
    <property name="length">00:00:06.950</property>
    <property name="eof">pause</property>
    <property name="resource">D:/Videos/Projects/Destiny/Addins/bonk.mp4</property>
    <property name="mlt_service">avformat-novalidate</property>
    <property name="seekable">1</property>
    <property name="audio_index">1</property>
    <property name="video_index">0</property>
    <property name="mute_on_pause">0</property>
    <property name="xml">was here</property>
    <property name="shotcut:hash">e6d64a7d5b973f82fd94db9baa8ff4c3</property>
    <property name="shotcut:caption">bonk.mp4</property>
    <property name="shotcut:defaultAudioIndex">1</property>
  </chain>
  <chain id="chain92" out="00:00:07.650">
    <property name="length">00:00:07.667</property>
    <property name="eof">pause</property>
    <property name="resource">D:/Videos/Projects/Destiny/Addins/fart with extra reverb.mp4</property>
    <property name="mlt_service">avformat-novalidate</property>
    <property name="seekable">1</property>
    <property name="audio_index">1</property>
    <property name="video_index">0</property>
    <property name="mute_on_pause">0</property>
    <property name="xml">was here</property>
    <property name="shotcut:hash">6c9afe688fc4e5d7fb08827c869b8a00</property>
    <property name="ignore_points">0</property>
    <property name="shotcut:caption">fart with extra reverb.mp4</property>
    <property name="shotcut:defaultAudioIndex">1</property>
  </chain>
  <chain id="chain93" out="00:00:01.267">
    <property name="length">00:00:01.283</property>
    <property name="eof">pause</property>
    <property name="resource">D:/Videos/Projects/Destiny/Addins/boom vine.mp4</property>
    <property name="mlt_service">avformat-novalidate</property>
    <property name="seekable">1</property>
    <property name="audio_index">1</property>
    <property name="video_index">0</property>
    <property name="mute_on_pause">0</property>
    <property name="xml">was here</property>
    <property name="shotcut:hash">ad63a91e440a6a93678918326f46e3ea</property>
    <property name="shotcut:caption">boom vine.mp4</property>
    <property name="shotcut:defaultAudioIndex">1</property>
  </chain>
  <chain id="chain94" out="00:00:02.000">
    <property name="length">00:00:02.017</property>
    <property name="eof">pause</property>
    <property name="resource">D:/Videos/Projects/Destiny/Addins/fortnite down sound.mp4</property>
    <property name="mlt_service">avformat-novalidate</property>
    <property name="seekable">1</property>
    <property name="audio_index">1</property>
    <property name="video_index">0</property>
    <property name="mute_on_pause">0</property>
    <property name="xml">was here</property>
    <property name="shotcut:hash">ab3c9e1d5f60c4f523c88f654d88bf7e</property>
    <property name="shotcut:caption">fortnite down sound.mp4</property>
  </chain>
  <chain id="chain95" out="00:00:08.150">
    <property name="length">00:00:08.167</property>
    <property name="eof">pause</property>
    <property name="resource">D:/Videos/Projects/Destiny/Addins/tyler1 HELP.mp4</property>
    <property name="mlt_service">avformat-novalidate</property>
    <property name="seekable">1</property>
    <property name="audio_index">1</property>
    <property name="video_index">0</property>
    <property name="mute_on_pause">0</property>
    <property name="xml">was here</property>
    <property name="shotcut:hash">5fd94e8525bec6acb31377c2921809dd</property>
    <property name="shotcut:caption">tyler1 HELP.mp4</property>
    <filter id="filter39" in="00:00:00.150" out="00:00:04.467">
      <property name="window">75</property>
      <property name="max_gain">20dB</property>
      <property name="level">00:00:03.833=0;00:00:04.317=-60</property>
      <property name="mlt_service">volume</property>
      <property name="shotcut:filter">fadeOutVolume</property>
      <property name="shotcut:animOut">00:00:00.500</property>
    </filter>
  </chain>
  <chain id="chain96" out="00:00:02.933">
    <property name="length">00:00:02.950</property>
    <property name="eof">pause</property>
    <property name="resource">D:/Videos/Projects/Destiny/Addins/oof.mp4</property>
    <property name="mlt_service">avformat-novalidate</property>
    <property name="seekable">1</property>
    <property name="audio_index">1</property>
    <property name="video_index">0</property>
    <property name="mute_on_pause">0</property>
    <property name="xml">was here</property>
    <property name="shotcut:hash">5c5c7966dbfaebdd8690b3a54af2b47d</property>
    <property name="ignore_points">0</property>
    <property name="shotcut:caption">oof.mp4</property>
    <property name="shotcut:defaultAudioIndex">1</property>
  </chain>
  <chain id="chain97" out="00:00:01.867">
    <property name="length">00:00:01.883</property>
    <property name="eof">pause</property>
    <property name="resource">D:/Videos/Projects/Destiny/Addins/fart meme sound.mp4</property>
    <property name="mlt_service">avformat-novalidate</property>
    <property name="seekable">1</property>
    <property name="audio_index">1</property>
    <property name="video_index">0</property>
    <property name="mute_on_pause">0</property>
    <property name="xml">was here</property>
    <property name="shotcut:hash">305822327bed79a18872352a040c738c</property>
    <property name="shotcut:caption">fart meme sound.mp4</property>
    <property name="shotcut:defaultAudioIndex">1</property>
  </chain>
  <chain id="chain98" out="00:05:05.217">
    <property name="length">00:05:05.233</property>
    <property name="eof">pause</property>
    <property name="resource">D:/Videos/Projects/Destiny/Addins/the only thing they fear is you.mp4</property>
    <property name="mlt_service">avformat-novalidate</property>
    <property name="seekable">1</property>
    <property name="audio_index">1</property>
    <property name="video_index">0</property>
    <property name="mute_on_pause">0</property>
    <property name="xml">was here</property>
    <property name="shotcut:hash">9e9a7be31db67f9511cfc8354cd402f8</property>
    <property name="shotcut:caption">the only thing they fear is you.mp4</property>
    <property name="shotcut:defaultAudioIndex">1</property>
    <filter id="filter40" in="00:01:36.133" out="00:01:43.683">
      <property name="window">75</property>
      <property name="max_gain">20dB</property>
      <property name="level">00:00:06.567=0;00:00:07.550=-60</property>
      <property name="mlt_service">volume</property>
      <property name="shotcut:filter">fadeOutVolume</property>
      <property name="shotcut:animOut">00:00:01.000</property>
    </filter>
  </chain>
  <chain id="chain99" out="00:00:01.633">
    <property name="length">00:00:01.650</property>
    <property name="eof">pause</property>
    <property name="resource">D:/Videos/Projects/Destiny/Addins/squeak sfx.mp4</property>
    <property name="mlt_service">avformat-novalidate</property>
    <property name="seekable">1</property>
    <property name="audio_index">1</property>
    <property name="video_index">0</property>
    <property name="mute_on_pause">0</property>
    <property name="xml">was here</property>
    <property name="shotcut:hash">bf2fa59ce2092fb59e333e22231495cd</property>
    <property name="shotcut:caption">squeak sfx.mp4</property>
    <property name="shotcut:defaultAudioIndex">1</property>
  </chain>
  <chain id="chain100" out="00:00:01.633">
    <property name="length">00:00:01.650</property>
    <property name="eof">pause</property>
    <property name="resource">D:/Videos/Projects/Destiny/Addins/squeak sfx.mp4</property>
    <property name="mlt_service">avformat-novalidate</property>
    <property name="seekable">1</property>
    <property name="audio_index">1</property>
    <property name="video_index">0</property>
    <property name="mute_on_pause">0</property>
    <property name="xml">was here</property>
    <property name="shotcut:hash">bf2fa59ce2092fb59e333e22231495cd</property>
    <property name="shotcut:caption">squeak sfx.mp4</property>
    <property name="shotcut:defaultAudioIndex">1</property>
  </chain>
  <chain id="chain101" out="00:00:03.833">
    <property name="length">00:00:03.850</property>
    <property name="eof">pause</property>
    <property name="resource">D:/Videos/Projects/Destiny/Addins/moai.mp4</property>
    <property name="mlt_service">avformat-novalidate</property>
    <property name="seekable">1</property>
    <property name="audio_index">1</property>
    <property name="video_index">0</property>
    <property name="mute_on_pause">0</property>
    <property name="xml">was here</property>
    <property name="shotcut:hash">0d1c9ba89371fc8a22e46bb0fb510461</property>
    <property name="shotcut:caption">moai.mp4</property>
  </chain>
  <chain id="chain102" out="00:00:05.883">
    <property name="length">00:00:05.900</property>
    <property name="eof">pause</property>
    <property name="resource">D:/Videos/Projects/Destiny/Addins/explosioooo.mp4</property>
    <property name="mlt_service">avformat-novalidate</property>
    <property name="seekable">1</property>
    <property name="audio_index">1</property>
    <property name="video_index">0</property>
    <property name="mute_on_pause">0</property>
    <property name="xml">was here</property>
    <property name="shotcut:hash">641be12c747e050cfb4fbb3b93855287</property>
    <property name="ignore_points">0</property>
    <property name="shotcut:caption">explosioooo.mp4</property>
    <property name="shotcut:defaultAudioIndex">1</property>
    <filter id="filter41" out="00:00:01.683">
      <property name="version">0.3</property>
      <property name="mlt_service">frei0r.bluescreen0r</property>
      <property name="threads">0</property>
      <property name="0">#00ef00</property>
      <property name="1">0.288</property>
      <property name="disable">0</property>
    </filter>
    <filter id="filter42" out="00:00:01.683">
      <property name="background">color:#00000000</property>
      <property name="mlt_service">affine</property>
      <property name="shotcut:filter">affineSizePosition</property>
      <property name="transition.fill">1</property>
      <property name="transition.distort">0</property>
      <property name="transition.rect">200.232 -10.4287 765.701 430.707 1</property>
      <property name="transition.valign">middle</property>
      <property name="transition.halign">center</property>
      <property name="shotcut:animIn">00:00:00.000</property>
      <property name="shotcut:animOut">00:00:00.000</property>
      <property name="transition.threads">0</property>
      <property name="transition.fix_rotate_x">0</property>
    </filter>
    <filter id="filter43" out="00:00:01.683">
      <property name="window">75</property>
      <property name="max_gain">20dB</property>
      <property name="level">00:00:00.867=0;00:00:01.683=-60</property>
      <property name="mlt_service">volume</property>
      <property name="shotcut:filter">fadeOutVolume</property>
      <property name="shotcut:animOut">00:00:00.833</property>
    </filter>
  </chain>
  <chain id="chain103" out="00:00:06.133">
    <property name="length">00:00:06.150</property>
    <property name="eof">pause</property>
    <property name="resource">D:/Videos/Projects/Destiny/Addins/xqc clap fast.mp4</property>
    <property name="mlt_service">avformat-novalidate</property>
    <property name="seekable">1</property>
    <property name="audio_index">1</property>
    <property name="video_index">0</property>
    <property name="mute_on_pause">0</property>
    <property name="xml">was here</property>
    <property name="shotcut:hash">54c86242368895126d07d2accc73d35c</property>
    <property name="shotcut:caption">xqc clap fast.mp4</property>
    <property name="shotcut:defaultAudioIndex">1</property>
    <filter id="filter44" out="00:00:04.417">
      <property name="window">75</property>
      <property name="max_gain">20dB</property>
      <property name="level">00:00:03.933=0;00:00:04.417=-60</property>
      <property name="mlt_service">volume</property>
      <property name="shotcut:filter">fadeOutVolume</property>
      <property name="shotcut:animOut">00:00:00.500</property>
    </filter>
  </chain>
  <chain id="chain104" out="00:01:12.100">
    <property name="length">00:01:12.117</property>
    <property name="eof">pause</property>
    <property name="resource">D:/Videos/Projects/Destiny/Addins/shall we begin.mp4</property>
    <property name="mlt_service">avformat-novalidate</property>
    <property name="seekable">1</property>
    <property name="audio_index">1</property>
    <property name="video_index">0</property>
    <property name="mute_on_pause">0</property>
    <property name="xml">was here</property>
    <property name="shotcut:hash">ac8ae32ae7e7e6a1f557b1a17b5fabb3</property>
    <property name="shotcut:caption">shall we begin.mp4</property>
    <property name="shotcut:defaultAudioIndex">1</property>
    <filter id="filter45" in="00:01:04.250" out="00:01:05.133">
      <property name="mlt_service">ladspa.1891</property>
      <property name="0">2441</property>
      <property name="1">1</property>
      <property name="wetness">1</property>
      <property name="instances">2</property>
    </filter>
    <filter id="filter46" in="00:01:04.250" out="00:01:05.133">
      <property name="window">75</property>
      <property name="max_gain">20dB</property>
      <property name="level">10.2</property>
      <property name="mlt_service">volume</property>
    </filter>
  </chain>
  <chain id="chain105" out="00:01:12.100">
    <property name="length">00:01:12.117</property>
    <property name="eof">pause</property>
    <property name="resource">D:/Videos/Projects/Destiny/Addins/shall we begin.mp4</property>
    <property name="mlt_service">avformat-novalidate</property>
    <property name="seekable">1</property>
    <property name="audio_index">1</property>
    <property name="video_index">0</property>
    <property name="mute_on_pause">0</property>
    <property name="xml">was here</property>
    <property name="shotcut:hash">ac8ae32ae7e7e6a1f557b1a17b5fabb3</property>
    <property name="shotcut:caption">shall we begin.mp4</property>
    <property name="shotcut:defaultAudioIndex">1</property>
    <filter id="filter47" in="00:01:06.350" out="00:01:08.117">
      <property name="mlt_service">ladspa.1891</property>
      <property name="0">2441</property>
      <property name="1">1</property>
      <property name="wetness">1</property>
      <property name="instances">2</property>
    </filter>
    <filter id="filter48" in="00:01:06.350" out="00:01:08.117">
      <property name="window">75</property>
      <property name="max_gain">20dB</property>
      <property name="level">00:00:01.783=</property>
      <property name="mlt_service">volume</property>
      <property name="shotcut:filter">fadeOutVolume</property>
      <property name="shotcut:animOut">00:00:00.333</property>
    </filter>
    <filter id="filter49" in="00:01:06.350" out="00:01:08.117">
      <property name="window">75</property>
      <property name="max_gain">20dB</property>
      <property name="level">10.2</property>
      <property name="mlt_service">volume</property>
    </filter>
  </chain>
  <chain id="chain106" out="00:00:03.183">
    <property name="length">00:00:03.200</property>
    <property name="eof">pause</property>
    <property name="resource">D:/Videos/Projects/Destiny/Addins/AAAAA.mp4</property>
    <property name="mlt_service">avformat-novalidate</property>
    <property name="seekable">1</property>
    <property name="audio_index">1</property>
    <property name="video_index">0</property>
    <property name="mute_on_pause">0</property>
    <property name="xml">was here</property>
    <property name="shotcut:hash">c137f0e5e3b34e202f8a8ebf37094086</property>
    <property name="ignore_points">0</property>
    <property name="shotcut:caption">AAAAA.mp4</property>
  </chain>
  <chain id="chain107" out="00:00:01.633">
    <property name="length">00:00:01.650</property>
    <property name="eof">pause</property>
    <property name="resource">D:/Videos/Projects/Destiny/Addins/squeak sfx.mp4</property>
    <property name="mlt_service">avformat-novalidate</property>
    <property name="seekable">1</property>
    <property name="audio_index">1</property>
    <property name="video_index">0</property>
    <property name="mute_on_pause">0</property>
    <property name="xml">was here</property>
    <property name="shotcut:hash">bf2fa59ce2092fb59e333e22231495cd</property>
    <property name="shotcut:caption">squeak sfx.mp4</property>
    <property name="shotcut:defaultAudioIndex">1</property>
    <filter id="filter50" in="00:00:00.667" out="00:00:01.217">
      <property name="window">75</property>
      <property name="max_gain">20dB</property>
      <property name="level">-9.1</property>
      <property name="mlt_service">volume</property>
    </filter>
  </chain>
  <chain id="chain108" out="00:00:01.633">
    <property name="length">00:00:01.650</property>
    <property name="eof">pause</property>
    <property name="resource">D:/Videos/Projects/Destiny/Addins/squeak sfx.mp4</property>
    <property name="mlt_service">avformat-novalidate</property>
    <property name="seekable">1</property>
    <property name="audio_index">1</property>
    <property name="video_index">0</property>
    <property name="mute_on_pause">0</property>
    <property name="xml">was here</property>
    <property name="shotcut:hash">bf2fa59ce2092fb59e333e22231495cd</property>
    <property name="shotcut:caption">squeak sfx.mp4</property>
    <property name="shotcut:defaultAudioIndex">1</property>
    <filter id="filter51" in="00:00:00.667" out="00:00:01.217">
      <property name="window">75</property>
      <property name="max_gain">20dB</property>
      <property name="level">-9.1</property>
      <property name="mlt_service">volume</property>
    </filter>
  </chain>
  <chain id="chain109" out="00:00:05.900">
    <property name="length">00:00:05.917</property>
    <property name="eof">pause</property>
    <property name="resource">D:/Videos/Projects/Destiny/Addins/ayo the pizza here servitor.mp4</property>
    <property name="mlt_service">avformat-novalidate</property>
    <property name="seekable">1</property>
    <property name="audio_index">1</property>
    <property name="video_index">0</property>
    <property name="mute_on_pause">0</property>
    <property name="xml">was here</property>
    <property name="shotcut:hash">ed9e940aff9c373f9f0aa5308a2b314b</property>
    <property name="ignore_points">0</property>
    <property name="shotcut:caption">ayo the pizza here servitor.mp4</property>
  </chain>
  <chain id="chain110" out="00:00:07.300">
    <property name="length">00:00:07.317</property>
    <property name="eof">pause</property>
    <property name="resource">D:/Videos/Projects/Destiny/Addins/nice.mp4</property>
    <property name="mlt_service">avformat-novalidate</property>
    <property name="seekable">1</property>
    <property name="audio_index">1</property>
    <property name="video_index">0</property>
    <property name="mute_on_pause">0</property>
    <property name="xml">was here</property>
    <property name="shotcut:hash">56d101f3b4ac4ecdd792480172bbc432</property>
    <property name="ignore_points">0</property>
    <property name="shotcut:caption">nice.mp4</property>
    <filter id="filter52" in="00:00:05.433" out="00:00:07.300">
      <property name="window">75</property>
      <property name="max_gain">20dB</property>
      <property name="level">12.3</property>
      <property name="mlt_service">volume</property>
    </filter>
  </chain>
  <chain id="chain111" out="00:00:02.333">
    <property name="length">00:00:02.350</property>
    <property name="eof">pause</property>
    <property name="resource">D:/Videos/Projects/Destiny/Addins/run, ruun.mp4</property>
    <property name="mlt_service">avformat-novalidate</property>
    <property name="seekable">1</property>
    <property name="audio_index">1</property>
    <property name="video_index">0</property>
    <property name="mute_on_pause">0</property>
    <property name="xml">was here</property>
    <property name="shotcut:hash">b2ea3a69985060515280cede3a7124fb</property>
    <property name="ignore_points">0</property>
    <property name="shotcut:caption">run, ruun.mp4</property>
  </chain>
  <chain id="chain112" out="00:00:02.933">
    <property name="length">00:00:02.950</property>
    <property name="eof">pause</property>
    <property name="resource">D:/Videos/Projects/Destiny/Addins/oof.mp4</property>
    <property name="mlt_service">avformat-novalidate</property>
    <property name="seekable">1</property>
    <property name="audio_index">1</property>
    <property name="video_index">0</property>
    <property name="mute_on_pause">0</property>
    <property name="xml">was here</property>
    <property name="shotcut:hash">5c5c7966dbfaebdd8690b3a54af2b47d</property>
    <property name="ignore_points">0</property>
    <property name="shotcut:caption">oof.mp4</property>
  </chain>
  <chain id="chain113" out="00:00:01.867">
    <property name="length">00:00:01.883</property>
    <property name="eof">pause</property>
    <property name="resource">D:/Videos/Projects/Destiny/Addins/fart meme sound.mp4</property>
    <property name="mlt_service">avformat-novalidate</property>
    <property name="seekable">1</property>
    <property name="audio_index">1</property>
    <property name="video_index">0</property>
    <property name="mute_on_pause">0</property>
    <property name="xml">was here</property>
    <property name="shotcut:hash">305822327bed79a18872352a040c738c</property>
    <property name="shotcut:caption">fart meme sound.mp4</property>
    <property name="shotcut:defaultAudioIndex">1</property>
    <filter id="filter53" in="00:00:00.533" out="00:00:01.867">
      <property name="window">75</property>
      <property name="max_gain">20dB</property>
      <property name="level">20.2</property>
      <property name="mlt_service">volume</property>
    </filter>
  </chain>
  <chain id="chain114" out="00:00:07.767">
    <property name="length">00:00:07.783</property>
    <property name="eof">pause</property>
    <property name="resource">D:/Videos/Projects/Destiny/Addins/no fuck off.mp4</property>
    <property name="mlt_service">avformat-novalidate</property>
    <property name="seekable">1</property>
    <property name="audio_index">1</property>
    <property name="video_index">0</property>
    <property name="mute_on_pause">0</property>
    <property name="xml">was here</property>
    <property name="shotcut:hash">96e64bbbd55fdf5bf8bbb7fb68bb33eb</property>
    <property name="shotcut:caption">no fuck off.mp4</property>
    <property name="shotcut:defaultAudioIndex">1</property>
  </chain>
  <chain id="chain115" out="00:00:20.233">
    <property name="length">00:00:20.250</property>
    <property name="eof">pause</property>
    <property name="resource">D:/Videos/Projects/Destiny/Addins/no i dont wanna go.mp4</property>
    <property name="mlt_service">avformat-novalidate</property>
    <property name="seekable">1</property>
    <property name="audio_index">1</property>
    <property name="video_index">0</property>
    <property name="mute_on_pause">0</property>
    <property name="xml">was here</property>
    <property name="shotcut:hash">4ceee5cac4c153d9059a13c275ad8aaf</property>
    <property name="shotcut:caption">no i dont wanna go.mp4</property>
    <property name="shotcut:defaultAudioIndex">1</property>
  </chain>
  <chain id="chain116" out="00:00:06.933">
    <property name="length">00:00:06.950</property>
    <property name="eof">pause</property>
    <property name="resource">D:/Videos/Projects/Destiny/Addins/bonk.mp4</property>
    <property name="mlt_service">avformat-novalidate</property>
    <property name="seekable">1</property>
    <property name="audio_index">1</property>
    <property name="video_index">0</property>
    <property name="mute_on_pause">0</property>
    <property name="xml">was here</property>
    <property name="shotcut:hash">e6d64a7d5b973f82fd94db9baa8ff4c3</property>
    <property name="shotcut:caption">bonk.mp4</property>
    <property name="shotcut:defaultAudioIndex">1</property>
    <filter id="filter54" in="00:00:00.583" out="00:00:01.033">
      <property name="window">75</property>
      <property name="max_gain">20dB</property>
      <property name="level">16.1</property>
      <property name="mlt_service">volume</property>
    </filter>
  </chain>
  <chain id="chain117" out="00:00:01.217">
    <property name="length">00:00:01.233</property>
    <property name="eof">pause</property>
    <property name="resource">D:/Videos/Projects/Destiny/Addins/COD Hitmarker.mp4</property>
    <property name="mlt_service">avformat-novalidate</property>
    <property name="seekable">1</property>
    <property name="audio_index">1</property>
    <property name="video_index">0</property>
    <property name="mute_on_pause">0</property>
    <property name="xml">was here</property>
    <property name="shotcut:hash">724ebabcdf5e18998fbbbb84ae7947b1</property>
    <property name="shotcut:caption">COD Hitmarker.mp4</property>
    <property name="shotcut:defaultAudioIndex">1</property>
    <filter id="filter55" in="00:00:00.400" out="00:00:00.500">
      <property name="window">75</property>
      <property name="max_gain">20dB</property>
      <property name="level">24</property>
      <property name="mlt_service">volume</property>
    </filter>
  </chain>
  <chain id="chain118" out="00:00:01.633">
    <property name="length">00:00:01.650</property>
    <property name="eof">pause</property>
    <property name="resource">D:/Videos/Projects/Destiny/Addins/squeak sfx.mp4</property>
    <property name="mlt_service">avformat-novalidate</property>
    <property name="seekable">1</property>
    <property name="audio_index">1</property>
    <property name="video_index">0</property>
    <property name="mute_on_pause">0</property>
    <property name="xml">was here</property>
    <property name="shotcut:hash">bf2fa59ce2092fb59e333e22231495cd</property>
    <property name="shotcut:caption">squeak sfx.mp4</property>
    <property name="shotcut:defaultAudioIndex">1</property>
  </chain>
  <chain id="chain119" out="00:00:01.633">
    <property name="length">00:00:01.650</property>
    <property name="eof">pause</property>
    <property name="resource">D:/Videos/Projects/Destiny/Addins/squeak sfx.mp4</property>
    <property name="mlt_service">avformat-novalidate</property>
    <property name="seekable">1</property>
    <property name="audio_index">1</property>
    <property name="video_index">0</property>
    <property name="mute_on_pause">0</property>
    <property name="xml">was here</property>
    <property name="shotcut:hash">bf2fa59ce2092fb59e333e22231495cd</property>
    <property name="shotcut:caption">squeak sfx.mp4</property>
    <property name="shotcut:defaultAudioIndex">1</property>
  </chain>
  <chain id="chain120" out="00:00:01.633">
    <property name="length">00:00:01.650</property>
    <property name="eof">pause</property>
    <property name="resource">D:/Videos/Projects/Destiny/Addins/squeak sfx.mp4</property>
    <property name="mlt_service">avformat-novalidate</property>
    <property name="seekable">1</property>
    <property name="audio_index">1</property>
    <property name="video_index">0</property>
    <property name="mute_on_pause">0</property>
    <property name="xml">was here</property>
    <property name="shotcut:hash">bf2fa59ce2092fb59e333e22231495cd</property>
    <property name="shotcut:caption">squeak sfx.mp4</property>
    <property name="shotcut:defaultAudioIndex">1</property>
  </chain>
  <chain id="chain121" out="00:00:01.633">
    <property name="length">00:00:01.650</property>
    <property name="eof">pause</property>
    <property name="resource">D:/Videos/Projects/Destiny/Addins/squeak sfx.mp4</property>
    <property name="mlt_service">avformat-novalidate</property>
    <property name="seekable">1</property>
    <property name="audio_index">1</property>
    <property name="video_index">0</property>
    <property name="mute_on_pause">0</property>
    <property name="xml">was here</property>
    <property name="shotcut:hash">bf2fa59ce2092fb59e333e22231495cd</property>
    <property name="shotcut:caption">squeak sfx.mp4</property>
    <property name="shotcut:defaultAudioIndex">1</property>
  </chain>
  <producer id="producer17" in="00:00:00.000" out="00:00:04.600">
    <property name="length">00:00:04.617</property>
    <property name="eof">pause</property>
    <property name="resource">1.75:D:/Videos/Projects/Destiny/Addins/nyah nyah.mp4</property>
    <property name="aspect_ratio">1</property>
    <property name="seekable">1</property>
    <property name="audio_index">1</property>
    <property name="video_index">0</property>
    <property name="mute_on_pause">1</property>
    <property name="warp_speed">1.75</property>
    <property name="warp_resource">D:/Videos/Projects/Destiny/Addins/nyah nyah.mp4</property>
    <property name="mlt_service">timewarp</property>
    <property name="shotcut:producer">avformat</property>
    <property name="video_delay">0</property>
    <property name="shotcut:hash">7350637b91f033e687462c3141695083</property>
    <property name="shotcut:caption">nyah nyah.mp4 (1.75x)</property>
    <property name="xml">was here</property>
    <filter id="filter56" out="00:00:04.567">
      <property name="window">75</property>
      <property name="max_gain">20dB</property>
      <property name="level">24</property>
      <property name="mlt_service">volume</property>
    </filter>
  </producer>
  <chain id="chain122" out="00:00:04.250">
    <property name="length">00:00:04.267</property>
    <property name="eof">pause</property>
    <property name="resource">D:/Videos/Projects/Destiny/Addins/you shall not pass.mp4</property>
    <property name="mlt_service">avformat-novalidate</property>
    <property name="seekable">1</property>
    <property name="audio_index">1</property>
    <property name="video_index">0</property>
    <property name="mute_on_pause">0</property>
    <property name="xml">was here</property>
    <property name="shotcut:hash">d23c0f2b7d6f3d318a6fd575e2cca146</property>
    <property name="shotcut:caption">you shall not pass.mp4</property>
    <property name="shotcut:defaultAudioIndex">1</property>
  </chain>
  <chain id="chain123" out="00:00:01.117">
    <property name="length">00:00:01.133</property>
    <property name="eof">pause</property>
    <property name="resource">D:/Videos/Projects/Destiny/Addins/bruh.mp4</property>
    <property name="mlt_service">avformat-novalidate</property>
    <property name="seekable">1</property>
    <property name="audio_index">1</property>
    <property name="video_index">0</property>
    <property name="mute_on_pause">0</property>
    <property name="xml">was here</property>
    <property name="shotcut:hash">50e1f5d157a7637b129792e627f29a64</property>
    <property name="shotcut:caption">bruh.mp4</property>
    <property name="shotcut:defaultAudioIndex">1</property>
  </chain>
  <chain id="chain124" out="00:00:15.583">
    <property name="length">00:00:15.600</property>
    <property name="eof">pause</property>
    <property name="resource">D:/Videos/Projects/Destiny/Addins/bruh+reverb.mp4</property>
    <property name="mlt_service">avformat-novalidate</property>
    <property name="seekable">1</property>
    <property name="audio_index">1</property>
    <property name="video_index">0</property>
    <property name="mute_on_pause">0</property>
    <property name="xml">was here</property>
    <property name="shotcut:hash">a58e31bf320e7abca9a4296dd62174fb</property>
    <property name="shotcut:caption">bruh+reverb.mp4</property>
    <property name="shotcut:defaultAudioIndex">1</property>
    <filter id="filter57" in="00:00:00.283" out="00:00:02.683">
      <property name="window">75</property>
      <property name="max_gain">20dB</property>
      <property name="level">00:00:02.250=0;00:00:02.400=-60</property>
      <property name="mlt_service">volume</property>
      <property name="shotcut:filter">fadeOutVolume</property>
      <property name="shotcut:animOut">00:00:00.167</property>
    </filter>
  </chain>
  <chain id="chain125" out="00:00:03.100">
    <property name="length">00:00:03.117</property>
    <property name="eof">pause</property>
    <property name="resource">D:/Videos/Projects/Destiny/Addins/what are you aiming at.mp4</property>
    <property name="mlt_service">avformat-novalidate</property>
    <property name="seekable">1</property>
    <property name="audio_index">1</property>
    <property name="video_index">0</property>
    <property name="mute_on_pause">0</property>
    <property name="xml">was here</property>
    <property name="shotcut:hash">38ca9d13d7f7cae36863c232f4f7c919</property>
    <property name="shotcut:caption">what are you aiming at.mp4</property>
    <property name="shotcut:defaultAudioIndex">1</property>
  </chain>
  <chain id="chain126" out="00:00:04.833">
    <property name="length">00:00:04.850</property>
    <property name="eof">pause</property>
    <property name="resource">D:/Videos/Projects/Destiny/Addins/yoda death noise.mp4</property>
    <property name="mlt_service">avformat-novalidate</property>
    <property name="seekable">1</property>
    <property name="audio_index">1</property>
    <property name="video_index">0</property>
    <property name="mute_on_pause">0</property>
    <property name="xml">was here</property>
    <property name="shotcut:hash">03aa7942eae654941d405586d250f0a1</property>
    <property name="shotcut:caption">yoda death noise.mp4</property>
    <property name="shotcut:defaultAudioIndex">1</property>
  </chain>
  <playlist id="playlist3">
    <property name="shotcut:audio">1</property>
    <property name="shotcut:name">Overlay Audio</property>
    <blank length="00:00:05.950"/>
    <entry producer="chain89" in="00:00:00.333" out="00:00:00.533"/>
    <blank length="00:00:29.867"/>
    <entry producer="chain90" in="00:00:13.067" out="00:00:14.217"/>
    <blank length="00:00:15.883"/>
    <entry producer="chain91" in="00:00:00.583" out="00:00:01.067"/>
    <blank length="00:00:27.267"/>
    <entry producer="chain92" in="00:00:00.000" out="00:00:03.783"/>
    <blank length="00:00:15.533"/>
    <entry producer="chain93" in="00:00:00.000" out="00:00:01.267"/>
    <blank length="00:00:01.000"/>
    <entry producer="chain94" in="00:00:00.000" out="00:00:01.267"/>
    <blank length="00:00:32.000"/>
    <entry producer="chain95" in="00:00:00.150" out="00:00:04.467"/>
    <blank length="00:00:04.367"/>
    <entry producer="chain96" in="00:00:00.617" out="00:00:01.183"/>
    <blank length="00:00:01.483"/>
    <entry producer="chain97" in="00:00:00.000" out="00:00:01.867"/>
    <blank length="00:00:05.067"/>
    <entry producer="chain98" in="00:01:36.133" out="00:01:43.683"/>
    <blank length="00:00:01.733"/>
    <entry producer="chain99" in="00:00:00.667" out="00:00:01.217"/>
    <entry producer="chain100" in="00:00:00.717" out="00:00:01.283"/>
    <blank length="00:00:13.150"/>
    <entry producer="chain101" in="00:00:00.000" out="00:00:03.833"/>
    <blank length="00:00:08.883"/>
    <entry producer="chain102" in="00:00:00.000" out="00:00:01.683"/>
    <blank length="00:00:00.317"/>
    <entry producer="chain103" in="00:00:00.000" out="00:00:04.417"/>
    <entry producer="chain104" in="00:01:04.250" out="00:01:05.133"/>
    <entry producer="chain105" in="00:01:06.350" out="00:01:08.117"/>
    <blank length="00:00:03.817"/>
    <entry producer="chain106" in="00:00:00.000" out="00:00:01.883"/>
    <blank length="00:00:29.133"/>
    <entry producer="chain107" in="00:00:00.667" out="00:00:01.217"/>
    <entry producer="chain108" in="00:00:00.667" out="00:00:01.217"/>
    <blank length="00:00:25.267"/>
    <entry producer="chain109" in="00:00:00.000" out="00:00:05.900"/>
    <blank length="00:00:17.933"/>
    <entry producer="chain110" in="00:00:05.433" out="00:00:07.300"/>
    <blank length="00:00:44.533"/>
    <entry producer="chain111" in="00:00:00.000" out="00:00:02.100"/>
    <entry producer="chain112" in="00:00:00.567" out="00:00:01.050"/>
    <blank length="00:00:50.200"/>
    <entry producer="chain113" in="00:00:00.533" out="00:00:01.867"/>
    <blank length="00:00:07.583"/>
    <entry producer="chain114" in="00:00:05.067" out="00:00:06.850"/>
    <entry producer="chain115" in="00:00:04.500" out="00:00:09.217"/>
    <blank length="00:00:00.033"/>
    <entry producer="chain116" in="00:00:00.583" out="00:00:01.033"/>
    <blank length="00:00:03.433"/>
    <entry producer="chain117" in="00:00:00.400" out="00:00:00.500"/>
    <blank length="00:00:17.500"/>
    <entry producer="chain118" in="00:00:00.717" out="00:00:01.133"/>
    <entry producer="chain119" in="00:00:00.717" out="00:00:01.133"/>
    <entry producer="chain120" in="00:00:00.717" out="00:00:01.133"/>
    <entry producer="chain121" in="00:00:00.717" out="00:00:00.967"/>
    <blank length="00:00:02.017"/>
    <entry producer="producer17" in="00:00:00.000" out="00:00:04.567"/>
    <blank length="00:00:03.717"/>
    <entry producer="chain122" in="00:00:00.000" out="00:00:04.250"/>
    <blank length="00:00:21.717"/>
    <entry producer="chain123" in="00:00:00.483" out="00:00:01.033"/>
    <blank length="00:00:03.167"/>
    <entry producer="chain124" in="00:00:00.283" out="00:00:02.683"/>
    <blank length="00:01:25.283"/>
    <entry producer="chain125" in="00:00:00.000" out="00:00:01.683"/>
    <blank length="00:00:03.317"/>
    <entry producer="chain126" in="00:00:01.367" out="00:00:02.750"/>
  </playlist>
  <chain id="chain127" out="00:00:08.483">
    <property name="length">00:00:08.500</property>
    <property name="eof">pause</property>
    <property name="resource">D:/Videos/Projects/Destiny/Addins/doorbell.mp4</property>
    <property name="mlt_service">avformat-novalidate</property>
    <property name="seekable">1</property>
    <property name="audio_index">1</property>
    <property name="video_index">0</property>
    <property name="mute_on_pause">0</property>
    <property name="xml">was here</property>
    <property name="shotcut:hash">79db5fbb04b0db8d149e836a052f0978</property>
    <property name="shotcut:caption">doorbell.mp4</property>
    <property name="shotcut:defaultAudioIndex">1</property>
    <filter id="filter58" in="00:00:00.967" out="00:00:02.817">
      <property name="window">75</property>
      <property name="max_gain">20dB</property>
      <property name="level">00:00:01.033=0;00:00:01.850=-60</property>
      <property name="mlt_service">volume</property>
      <property name="shotcut:filter">fadeOutVolume</property>
      <property name="shotcut:animOut">00:00:00.833</property>
    </filter>
  </chain>
  <chain id="chain128" out="00:04:46.350">
    <property name="length">00:04:46.367</property>
    <property name="eof">pause</property>
    <property name="resource">D:/Videos/Projects/Destiny/Addins/running in the 90's.mp4</property>
    <property name="mlt_service">avformat-novalidate</property>
    <property name="seekable">1</property>
    <property name="audio_index">1</property>
    <property name="video_index">0</property>
    <property name="mute_on_pause">0</property>
    <property name="xml">was here</property>
    <property name="shotcut:hash">c6c664f9274e6c1833b3cf0a0e604b52</property>
    <property name="ignore_points">0</property>
    <property name="shotcut:caption">running in the 90's.mp4</property>
  </chain>
  <chain id="chain129" out="00:04:44.583">
    <property name="length">00:04:44.600</property>
    <property name="eof">pause</property>
    <property name="resource">D:/Videos/Projects/Destiny/Addins/my heart will go on shittyfluted.mp4</property>
    <property name="mlt_service">avformat-novalidate</property>
    <property name="seekable">1</property>
    <property name="audio_index">1</property>
    <property name="video_index">0</property>
    <property name="mute_on_pause">0</property>
    <property name="xml">was here</property>
    <property name="shotcut:hash">695ada10cc8f033e76ae1af85731651f</property>
    <property name="shotcut:caption">my heart will go on shittyfluted.mp4</property>
  </chain>
  <playlist id="playlist4">
    <property name="shotcut:audio">1</property>
    <property name="shotcut:name">Music 1</property>
    <blank length="00:04:18.750"/>
    <entry producer="chain127" in="00:00:00.967" out="00:00:02.817"/>
    <blank length="00:00:05.317"/>
    <entry producer="chain128" in="00:00:23.383" out="00:00:26.267"/>
    <blank length="00:00:03.300"/>
    <entry producer="chain129" in="00:00:21.717" out="00:00:30.500"/>
  </playlist>
  <playlist id="playlist5">
    <property name="shotcut:audio">1</property>
    <property name="shotcut:name">Music 2</property>
    <blank length="00:00:00.017"/>
  </playlist>
  <producer id="producer18" in="00:00:00.000" out="03:59:59.983">
    <property name="length">04:00:00.000</property>
    <property name="eof">pause</property>
    <property name="resource">#00000000</property>
    <property name="aspect_ratio">1</property>
    <property name="mlt_service">color</property>
    <property name="mlt_image_format">rgba</property>
    <property name="shotcut:caption">transparent</property>
    <property name="shotcut:detail">transparent</property>
    <property name="ignore_points">0</property>
    <property name="xml">was here</property>
    <property name="seekable">1</property>
    <filter id="filter59" out="00:00:02.983">
      <property name="argument"></property>
      <property name="geometry">17 806 1569 80 1</property>
      <property name="family">Sans</property>
      <property name="size">48</property>
      <property name="weight">400</property>
      <property name="style">normal</property>
      <property name="fgcolour">0x000000ff</property>
      <property name="bgcolour">#00000000</property>
      <property name="olcolour">0x00000000</property>
      <property name="pad">0</property>
      <property name="halign">left</property>
      <property name="valign">top</property>
      <property name="outline">0</property>
      <property name="pixel_ratio">1</property>
      <property name="mlt_service">qtext</property>
      <property name="shotcut:filter">richText</property>
      <property name="html">&lt;!DOCTYPE HTML PUBLIC &quot;-//W3C//DTD HTML 4.0//EN&quot; &quot;http://www.w3.org/TR/REC-html40/strict.dtd&quot;&gt;
&lt;html&gt;&lt;head&gt;&lt;meta name=&quot;qrichtext&quot; content=&quot;1&quot; /&gt;&lt;style type=&quot;text/css&quot;&gt;
p, li { white-space: pre-wrap; }
&lt;/style&gt;&lt;/head&gt;&lt;body style=&quot; font-family:'MS Shell Dlg 2'; font-size:8pt; font-weight:400; font-style:normal;&quot;&gt;
&lt;p align=&quot;right&quot; style=&quot; margin-top:0px; margin-bottom:0px; margin-left:0px; margin-right:0px; -qt-block-indent:0; text-indent:0px;&quot;&gt;&lt;span style=&quot; color:#ffff7f;&quot;&gt; &lt;/span&gt;&lt;span style=&quot; font-family:'Cambria'; font-size:30pt; color:#ffff7f;&quot;&gt;Raiyan Lynch Studios&lt;/span&gt;&lt;span style=&quot; font-family:'Cambria'; font-size:30pt; color:#ffffff;&quot;&gt; Presents...&lt;/span&gt;&lt;/p&gt;&lt;/body&gt;&lt;/html&gt;</property>
      <property name="shotcut:animIn">00:00:00.000</property>
      <property name="shotcut:animOut">00:00:00.000</property>
    </filter>
  </producer>
  <producer id="producer19" in="00:00:00.000" out="03:59:59.983">
    <property name="length">04:00:00.000</property>
    <property name="eof">pause</property>
    <property name="resource">#00000000</property>
    <property name="aspect_ratio">1</property>
    <property name="mlt_service">color</property>
    <property name="mlt_image_format">rgba</property>
    <property name="shotcut:caption">transparent</property>
    <property name="shotcut:detail">transparent</property>
    <property name="ignore_points">0</property>
    <property name="xml">was here</property>
    <property name="seekable">1</property>
    <filter id="filter60" in="00:00:03.000" out="00:00:06.150">
      <property name="argument"></property>
      <property name="geometry">17 806 1569 80 1</property>
      <property name="family">Sans</property>
      <property name="size">48</property>
      <property name="weight">400</property>
      <property name="style">normal</property>
      <property name="fgcolour">0x000000ff</property>
      <property name="bgcolour">#00000000</property>
      <property name="olcolour">0x00000000</property>
      <property name="pad">0</property>
      <property name="halign">left</property>
      <property name="valign">top</property>
      <property name="outline">0</property>
      <property name="pixel_ratio">1</property>
      <property name="mlt_service">qtext</property>
      <property name="shotcut:filter">richText</property>
      <property name="html">&lt;!DOCTYPE HTML PUBLIC &quot;-//W3C//DTD HTML 4.0//EN&quot; &quot;http://www.w3.org/TR/REC-html40/strict.dtd&quot;&gt;
&lt;html&gt;&lt;head&gt;&lt;meta name=&quot;qrichtext&quot; content=&quot;1&quot; /&gt;&lt;style type=&quot;text/css&quot;&gt;
p, li { white-space: pre-wrap; }
&lt;/style&gt;&lt;/head&gt;&lt;body style=&quot; font-family:'MS Shell Dlg 2'; font-size:8pt; font-weight:400; font-style:normal;&quot;&gt;
&lt;p align=&quot;right&quot; style=&quot; margin-top:0px; margin-bottom:0px; margin-left:0px; margin-right:0px; -qt-block-indent:0; text-indent:0px;&quot;&gt;&lt;span style=&quot; font-family:'Cambria'; font-size:30pt; color:#ffffff;&quot;&gt;The &lt;/span&gt;&lt;span style=&quot; font-family:'Cambria'; font-size:30pt; font-weight:600; text-decoration: underline; color:#ffaa00;&quot;&gt;Solo&lt;/span&gt;&lt;span style=&quot; font-family:'Cambria'; font-size:30pt; color:#ffffff;&quot;&gt; Legendary Lost Sector Experience&lt;/span&gt;&lt;/p&gt;&lt;/body&gt;&lt;/html&gt;</property>
      <property name="shotcut:animIn">00:00:00.000</property>
      <property name="shotcut:animOut">00:00:00.000</property>
    </filter>
    <filter id="filter61" in="00:00:03.000" out="00:00:06.150">
      <property name="start">1</property>
      <property name="level">00:00:02.833=1;00:00:03.150=0</property>
      <property name="mlt_service">brightness</property>
      <property name="shotcut:filter">fadeOutBrightness</property>
      <property name="alpha">1</property>
      <property name="shotcut:animOut">00:00:00.333</property>
    </filter>
  </producer>
  <tractor id="tractor0" in="00:00:00.000" out="00:00:00.167">
    <property name="shotcut:transition">lumaMix</property>
    <track producer="producer18" in="00:00:02.817" out="00:00:02.983"/>
    <track producer="producer19" in="00:00:03.000" out="00:00:03.167"/>
    <transition id="transition0" out="00:00:00.167">
      <property name="a_track">0</property>
      <property name="b_track">1</property>
      <property name="factory">loader</property>
      <property name="mlt_service">luma</property>
      <property name="alpha_over">1</property>
    </transition>
    <transition id="transition1" out="00:00:00.167">
      <property name="a_track">0</property>
      <property name="b_track">1</property>
      <property name="mlt_service">mix</property>
      <property name="start">-1</property>
      <property name="accepts_blanks">1</property>
    </transition>
  </tractor>
  <producer id="producer20" in="00:00:00.000" out="03:59:59.983">
    <property name="length">04:00:00.000</property>
    <property name="eof">pause</property>
    <property name="resource">#00000000</property>
    <property name="aspect_ratio">1</property>
    <property name="mlt_service">color</property>
    <property name="mlt_image_format">rgba</property>
    <property name="shotcut:caption">transparent</property>
    <property name="shotcut:detail">transparent</property>
    <property name="ignore_points">0</property>
    <property name="xml">was here</property>
    <property name="seekable">1</property>
    <filter id="filter62" out="00:00:07.450">
      <property name="argument"></property>
      <property name="geometry">576 238 622 148 1</property>
      <property name="family">Sans</property>
      <property name="size">48</property>
      <property name="weight">400</property>
      <property name="style">normal</property>
      <property name="fgcolour">0x000000ff</property>
      <property name="bgcolour">#00000000</property>
      <property name="olcolour">0x00000000</property>
      <property name="pad">0</property>
      <property name="halign">left</property>
      <property name="valign">top</property>
      <property name="outline">0</property>
      <property name="pixel_ratio">1</property>
      <property name="mlt_service">qtext</property>
      <property name="shotcut:filter">richText</property>
      <property name="html">&lt;!DOCTYPE HTML PUBLIC &quot;-//W3C//DTD HTML 4.0//EN&quot; &quot;http://www.w3.org/TR/REC-html40/strict.dtd&quot;&gt;
&lt;html&gt;&lt;head&gt;&lt;meta name=&quot;qrichtext&quot; content=&quot;1&quot; /&gt;&lt;style type=&quot;text/css&quot;&gt;
p, li { white-space: pre-wrap; }
&lt;/style&gt;&lt;/head&gt;&lt;body style=&quot; font-family:'MS Shell Dlg 2'; font-size:8pt; font-weight:400; font-style:normal;&quot;&gt;
&lt;p style=&quot; margin-top:0px; margin-bottom:0px; margin-left:0px; margin-right:0px; -qt-block-indent:0; text-indent:0px;&quot;&gt;&lt;span style=&quot; font-family:'Cambria'; font-size:35pt; color:#ffffff;&quot;&gt;Me when&lt;/span&gt;&lt;/p&gt;&lt;/body&gt;&lt;/html&gt;</property>
      <property name="shotcut:animIn">00:00:00.000</property>
      <property name="shotcut:animOut">00:00:00.000</property>
    </filter>
    <filter id="filter63" out="00:00:07.450">
      <property name="argument"></property>
      <property name="geometry">333 747 1157 93 1</property>
      <property name="family">Sans</property>
      <property name="size">48</property>
      <property name="weight">400</property>
      <property name="style">normal</property>
      <property name="fgcolour">0x000000ff</property>
      <property name="bgcolour">#00000000</property>
      <property name="olcolour">0x00000000</property>
      <property name="pad">0</property>
      <property name="halign">left</property>
      <property name="valign">top</property>
      <property name="outline">0</property>
      <property name="pixel_ratio">1</property>
      <property name="mlt_service">qtext</property>
      <property name="shotcut:filter">richText</property>
      <property name="html">&lt;!DOCTYPE HTML PUBLIC &quot;-//W3C//DTD HTML 4.0//EN&quot; &quot;http://www.w3.org/TR/REC-html40/strict.dtd&quot;&gt;
&lt;html&gt;&lt;head&gt;&lt;meta name=&quot;qrichtext&quot; content=&quot;1&quot; /&gt;&lt;style type=&quot;text/css&quot;&gt;
p, li { white-space: pre-wrap; }
&lt;/style&gt;&lt;/head&gt;&lt;body style=&quot; font-family:'MS Shell Dlg 2'; font-size:8pt; font-weight:400; font-style:normal;&quot;&gt;
&lt;p style=&quot; margin-top:0px; margin-bottom:0px; margin-left:0px; margin-right:0px; -qt-block-indent:0; text-indent:0px;&quot;&gt;&lt;span style=&quot; font-family:'Cambria'; font-size:35pt; color:#ffffff;&quot;&gt;no understand mod costs&lt;/span&gt;&lt;/p&gt;&lt;/body&gt;&lt;/html&gt;</property>
      <property name="shotcut:animIn">00:00:00.000</property>
      <property name="shotcut:animOut">00:00:00.000</property>
    </filter>
  </producer>
  <producer id="producer21" in="00:00:00.000" out="03:59:59.983">
    <property name="length">04:00:00.000</property>
    <property name="eof">pause</property>
    <property name="resource">#00000000</property>
    <property name="aspect_ratio">1</property>
    <property name="mlt_service">color</property>
    <property name="mlt_image_format">rgba</property>
    <property name="shotcut:caption">transparent</property>
    <property name="shotcut:detail">transparent</property>
    <property name="ignore_points">0</property>
    <property name="xml">was here</property>
    <property name="seekable">1</property>
    <filter id="filter64" in="00:00:04.133" out="00:00:04.800">
      <property name="argument"></property>
      <property name="geometry">420 727 431 96 1</property>
      <property name="family">Sans</property>
      <property name="size">48</property>
      <property name="weight">400</property>
      <property name="style">normal</property>
      <property name="fgcolour">0x000000ff</property>
      <property name="bgcolour">#00000000</property>
      <property name="olcolour">0x00000000</property>
      <property name="pad">0</property>
      <property name="halign">left</property>
      <property name="valign">top</property>
      <property name="outline">0</property>
      <property name="pixel_ratio">1</property>
      <property name="mlt_service">qtext</property>
      <property name="shotcut:filter">richText</property>
      <property name="html">&lt;!DOCTYPE HTML PUBLIC &quot;-//W3C//DTD HTML 4.0//EN&quot; &quot;http://www.w3.org/TR/REC-html40/strict.dtd&quot;&gt;
&lt;html&gt;&lt;head&gt;&lt;meta name=&quot;qrichtext&quot; content=&quot;1&quot; /&gt;&lt;style type=&quot;text/css&quot;&gt;
p, li { white-space: pre-wrap; }
&lt;/style&gt;&lt;/head&gt;&lt;body style=&quot; font-family:'MS Shell Dlg 2'; font-size:8pt; font-weight:400; font-style:normal;&quot;&gt;
&lt;p style=&quot; margin-top:0px; margin-bottom:0px; margin-left:0px; margin-right:0px; -qt-block-indent:0; text-indent:0px;&quot;&gt;&lt;span style=&quot; font-family:'Cambria'; font-size:36pt;&quot;&gt;       I fix&lt;/span&gt;&lt;/p&gt;&lt;/body&gt;&lt;/html&gt;</property>
      <property name="shotcut:animIn">00:00:00.000</property>
      <property name="shotcut:animOut">00:00:00.000</property>
    </filter>
  </producer>
  <tractor id="tractor1" in="00:00:00.000" out="00:00:00.383">
    <property name="shotcut:transition">lumaMix</property>
    <track producer="producer20" in="00:00:07.067" out="00:00:07.450"/>
    <track producer="producer21" in="00:00:00.067" out="00:00:00.450"/>
    <transition id="transition2" out="00:00:00.383">
      <property name="a_track">0</property>
      <property name="b_track">1</property>
      <property name="factory">loader</property>
      <property name="mlt_service">luma</property>
      <property name="alpha_over">1</property>
    </transition>
    <transition id="transition3" out="00:00:00.383">
      <property name="a_track">0</property>
      <property name="b_track">1</property>
      <property name="mlt_service">mix</property>
      <property name="start">-1</property>
      <property name="accepts_blanks">1</property>
    </transition>
  </tractor>
  <producer id="producer22" in="00:00:00.000" out="03:59:59.983">
    <property name="length">04:00:00.000</property>
    <property name="eof">pause</property>
    <property name="resource">#00000000</property>
    <property name="aspect_ratio">1</property>
    <property name="mlt_service">color</property>
    <property name="mlt_image_format">rgba</property>
    <property name="shotcut:caption">transparent</property>
    <property name="shotcut:detail">transparent</property>
    <property name="ignore_points">0</property>
    <property name="xml">was here</property>
    <property name="seekable">1</property>
    <filter id="filter65" out="00:00:03.983">
      <property name="argument"></property>
      <property name="geometry">160 90 1280 720 1</property>
      <property name="family">Sans</property>
      <property name="size">48</property>
      <property name="weight">400</property>
      <property name="style">normal</property>
      <property name="fgcolour">0x000000ff</property>
      <property name="bgcolour">#00000000</property>
      <property name="olcolour">0x00000000</property>
      <property name="pad">0</property>
      <property name="halign">left</property>
      <property name="valign">top</property>
      <property name="outline">0</property>
      <property name="pixel_ratio">1</property>
      <property name="mlt_service">qtext</property>
      <property name="shotcut:filter">richText</property>
      <property name="html">&lt;!DOCTYPE HTML PUBLIC &quot;-//W3C//DTD HTML 4.0//EN&quot; &quot;http://www.w3.org/TR/REC-html40/strict.dtd&quot;&gt;
&lt;html&gt;&lt;head&gt;&lt;meta name=&quot;qrichtext&quot; content=&quot;1&quot; /&gt;&lt;style type=&quot;text/css&quot;&gt;
p, li { white-space: pre-wrap; }
&lt;/style&gt;&lt;/head&gt;&lt;body style=&quot; font-family:'MS Shell Dlg 2'; font-size:8pt; font-weight:400; font-style:normal;&quot;&gt;
&lt;p style=&quot;-qt-paragraph-type:empty; margin-top:0px; margin-bottom:0px; margin-left:0px; margin-right:0px; -qt-block-indent:0; text-indent:0px; font-family:'Verdana'; font-size:72pt; font-weight:600; color:#ffffff;&quot;&gt;&lt;br /&gt;&lt;/p&gt;
&lt;p style=&quot;-qt-paragraph-type:empty; margin-top:0px; margin-bottom:0px; margin-left:0px; margin-right:0px; -qt-block-indent:0; text-indent:0px; font-family:'Verdana'; font-size:36pt; font-weight:600; color:#ffffff;&quot;&gt;&lt;br /&gt;&lt;/p&gt;
&lt;p style=&quot;-qt-paragraph-type:empty; margin-top:0px; margin-bottom:0px; margin-left:0px; margin-right:0px; -qt-block-indent:0; text-indent:0px; font-family:'Verdana'; font-size:36pt; font-weight:600; color:#ffffff;&quot;&gt;&lt;br /&gt;&lt;/p&gt;
&lt;p style=&quot;-qt-paragraph-type:empty; margin-top:0px; margin-bottom:0px; margin-left:0px; margin-right:0px; -qt-block-indent:0; text-indent:0px; font-family:'Verdana'; font-size:36pt; font-weight:600; color:#ffffff;&quot;&gt;&lt;br /&gt;&lt;/p&gt;
&lt;p style=&quot;-qt-paragraph-type:empty; margin-top:0px; margin-bottom:0px; margin-left:0px; margin-right:0px; -qt-block-indent:0; text-indent:0px; font-family:'Verdana'; font-size:36pt; font-weight:600; color:#ffffff;&quot;&gt;&lt;br /&gt;&lt;/p&gt;
&lt;p style=&quot;-qt-paragraph-type:empty; margin-top:0px; margin-bottom:0px; margin-left:0px; margin-right:0px; -qt-block-indent:0; text-indent:0px; font-family:'Verdana'; font-size:36pt; font-weight:600; color:#ffffff;&quot;&gt;&lt;br /&gt;&lt;/p&gt;
&lt;p style=&quot; margin-top:0px; margin-bottom:0px; margin-left:0px; margin-right:0px; -qt-block-indent:0; text-indent:0px;&quot;&gt;&lt;span style=&quot; font-family:'Verdana'; font-size:36pt; font-weight:600; color:#ffffff;&quot;&gt;         Think I'm good to go&lt;/span&gt;&lt;/p&gt;&lt;/body&gt;&lt;/html&gt;</property>
      <property name="shotcut:animIn">00:00:00.000</property>
      <property name="shotcut:animOut">00:00:00.000</property>
    </filter>
  </producer>
  <producer id="producer23" in="00:00:00.000" out="03:59:59.983">
    <property name="length">04:00:00.000</property>
    <property name="eof">pause</property>
    <property name="resource">#00000000</property>
    <property name="aspect_ratio">1</property>
    <property name="mlt_service">color</property>
    <property name="mlt_image_format">rgba</property>
    <property name="shotcut:caption">transparent</property>
    <property name="shotcut:detail">transparent</property>
    <property name="ignore_points">0</property>
    <property name="xml">was here</property>
    <property name="seekable">1</property>
    <filter id="filter66" out="00:00:03.600">
      <property name="argument"></property>
      <property name="geometry">160 90 1280 798 1</property>
      <property name="family">Sans</property>
      <property name="size">48</property>
      <property name="weight">400</property>
      <property name="style">normal</property>
      <property name="fgcolour">0x000000ff</property>
      <property name="bgcolour">#00000000</property>
      <property name="olcolour">0x00000000</property>
      <property name="pad">0</property>
      <property name="halign">left</property>
      <property name="valign">top</property>
      <property name="outline">0</property>
      <property name="pixel_ratio">1</property>
      <property name="mlt_service">qtext</property>
      <property name="shotcut:filter">richText</property>
      <property name="html">&lt;!DOCTYPE HTML PUBLIC &quot;-//W3C//DTD HTML 4.0//EN&quot; &quot;http://www.w3.org/TR/REC-html40/strict.dtd&quot;&gt;
&lt;html&gt;&lt;head&gt;&lt;meta name=&quot;qrichtext&quot; content=&quot;1&quot; /&gt;&lt;style type=&quot;text/css&quot;&gt;
p, li { white-space: pre-wrap; }
&lt;/style&gt;&lt;/head&gt;&lt;body style=&quot; font-family:'MS Shell Dlg 2'; font-size:8pt; font-weight:400; font-style:normal;&quot;&gt;
&lt;p align=&quot;right&quot; style=&quot; margin-top:0px; margin-bottom:0px; margin-left:0px; margin-right:0px; -qt-block-indent:0; text-indent:0px;&quot;&gt;&lt;span style=&quot; font-family:'Verdana'; font-size:30pt; font-weight:600; color:#ffffff;&quot;&gt;golden gun for solar shields because I'm never inequipping lightning bow &amp;lt;3&lt;/span&gt;&lt;/p&gt;
&lt;p align=&quot;right&quot; style=&quot;-qt-paragraph-type:empty; margin-top:0px; margin-bottom:0px; margin-left:0px; margin-right:0px; -qt-block-indent:0; text-indent:0px; font-family:'Verdana'; font-size:30pt; font-weight:600; color:#ffffff;&quot;&gt;&lt;br /&gt;&lt;/p&gt;
&lt;p align=&quot;right&quot; style=&quot;-qt-paragraph-type:empty; margin-top:0px; margin-bottom:0px; margin-left:0px; margin-right:0px; -qt-block-indent:0; text-indent:0px; font-family:'Verdana'; font-size:30pt; font-weight:600; color:#ffffff;&quot;&gt;&lt;br /&gt;&lt;/p&gt;
&lt;p align=&quot;right&quot; style=&quot;-qt-paragraph-type:empty; margin-top:0px; margin-bottom:0px; margin-left:0px; margin-right:0px; -qt-block-indent:0; text-indent:0px; font-family:'Verdana'; font-size:30pt; font-weight:600; color:#ffffff;&quot;&gt;&lt;br /&gt;&lt;/p&gt;
&lt;p style=&quot;-qt-paragraph-type:empty; margin-top:0px; margin-bottom:0px; margin-left:0px; margin-right:0px; -qt-block-indent:0; text-indent:0px; font-family:'Verdana'; font-size:30pt; font-weight:600; color:#ffffff;&quot;&gt;&lt;br /&gt;&lt;/p&gt;
&lt;p style=&quot;-qt-paragraph-type:empty; margin-top:0px; margin-bottom:0px; margin-left:0px; margin-right:0px; -qt-block-indent:0; text-indent:0px; font-family:'Verdana'; font-size:27pt; font-weight:600; color:#ffffff;&quot;&gt;&lt;br /&gt;&lt;/p&gt;
&lt;p style=&quot;-qt-paragraph-type:empty; margin-top:0px; margin-bottom:0px; margin-left:0px; margin-right:0px; -qt-block-indent:0; text-indent:0px; font-family:'Verdana'; font-size:27pt; font-weight:600; color:#ffffff;&quot;&gt;&lt;br /&gt;&lt;/p&gt;
&lt;p style=&quot;-qt-paragraph-type:empty; margin-top:0px; margin-bottom:0px; margin-left:0px; margin-right:0px; -qt-block-indent:0; text-indent:0px; font-family:'Verdana'; font-size:27pt; font-weight:600; color:#ffffff;&quot;&gt;&lt;br /&gt;&lt;/p&gt;
&lt;p style=&quot; margin-top:0px; margin-bottom:0px; margin-left:0px; margin-right:0px; -qt-block-indent:0; text-indent:0px;&quot;&gt;&lt;span style=&quot; font-family:'Verdana'; font-size:27pt; font-weight:600; color:#ffffff;&quot;&gt;also imagine not maining golden gun&lt;/span&gt;&lt;/p&gt;&lt;/body&gt;&lt;/html&gt;</property>
      <property name="shotcut:animIn">00:00:00.000</property>
      <property name="shotcut:animOut">00:00:00.000</property>
    </filter>
  </producer>
  <producer id="producer24" in="00:00:00.000" out="03:59:59.983">
    <property name="length">04:00:00.000</property>
    <property name="eof">pause</property>
    <property name="resource">#00000000</property>
    <property name="aspect_ratio">1</property>
    <property name="mlt_service">color</property>
    <property name="mlt_image_format">rgba</property>
    <property name="shotcut:caption">transparent</property>
    <property name="shotcut:detail">transparent</property>
    <property name="ignore_points">0</property>
    <property name="xml">was here</property>
    <property name="seekable">1</property>
    <filter id="filter67" in="00:00:02.050" out="00:00:03.633">
      <property name="argument"></property>
      <property name="geometry">160 362 1280 448 1</property>
      <property name="family">Sans</property>
      <property name="size">48</property>
      <property name="weight">400</property>
      <property name="style">normal</property>
      <property name="fgcolour">0x000000ff</property>
      <property name="bgcolour">#00000000</property>
      <property name="olcolour">0x00000000</property>
      <property name="pad">0</property>
      <property name="halign">left</property>
      <property name="valign">top</property>
      <property name="outline">0</property>
      <property name="pixel_ratio">1</property>
      <property name="mlt_service">qtext</property>
      <property name="shotcut:filter">richText</property>
      <property name="html">&lt;!DOCTYPE HTML PUBLIC &quot;-//W3C//DTD HTML 4.0//EN&quot; &quot;http://www.w3.org/TR/REC-html40/strict.dtd&quot;&gt;
&lt;html&gt;&lt;head&gt;&lt;meta name=&quot;qrichtext&quot; content=&quot;1&quot; /&gt;&lt;style type=&quot;text/css&quot;&gt;
p, li { white-space: pre-wrap; }
&lt;/style&gt;&lt;/head&gt;&lt;body style=&quot; font-family:'MS Shell Dlg 2'; font-size:8pt; font-weight:400; font-style:normal;&quot;&gt;
&lt;p style=&quot; margin-top:0px; margin-bottom:0px; margin-left:0px; margin-right:0px; -qt-block-indent:0; text-indent:0px;&quot;&gt;&lt;span style=&quot; font-family:'Verdana'; font-size:36pt; font-weight:600; color:#ffffff;&quot;&gt;Think I'm Good To Go Now&lt;/span&gt;&lt;/p&gt;
&lt;p style=&quot;-qt-paragraph-type:empty; margin-top:0px; margin-bottom:0px; margin-left:0px; margin-right:0px; -qt-block-indent:0; text-indent:0px; font-family:'Verdana'; font-size:36pt; font-weight:600; color:#ffffff;&quot;&gt;&lt;br /&gt;&lt;/p&gt;
&lt;p style=&quot;-qt-paragraph-type:empty; margin-top:0px; margin-bottom:0px; margin-left:0px; margin-right:0px; -qt-block-indent:0; text-indent:0px; font-family:'Verdana'; font-size:36pt; font-weight:600; color:#ffffff;&quot;&gt;&lt;br /&gt;&lt;/p&gt;&lt;/body&gt;&lt;/html&gt;</property>
      <property name="shotcut:animIn">00:00:00.000</property>
      <property name="shotcut:animOut">00:00:00.000</property>
    </filter>
  </producer>
  <producer id="producer25" in="00:00:00.000" out="03:59:59.983">
    <property name="length">04:00:00.000</property>
    <property name="eof">pause</property>
    <property name="resource">#00000000</property>
    <property name="aspect_ratio">1</property>
    <property name="mlt_service">color</property>
    <property name="mlt_image_format">rgba</property>
    <property name="shotcut:caption">transparent</property>
    <property name="shotcut:detail">transparent</property>
    <property name="ignore_points">0</property>
    <property name="xml">was here</property>
    <property name="seekable">1</property>
    <filter id="filter68" out="00:00:20.817">
      <property name="argument"></property>
      <property name="geometry">160 90 1280 720 1</property>
      <property name="family">Sans</property>
      <property name="size">48</property>
      <property name="weight">400</property>
      <property name="style">normal</property>
      <property name="fgcolour">0x000000ff</property>
      <property name="bgcolour">#00000000</property>
      <property name="olcolour">0x00000000</property>
      <property name="pad">0</property>
      <property name="halign">left</property>
      <property name="valign">top</property>
      <property name="outline">0</property>
      <property name="pixel_ratio">1</property>
      <property name="mlt_service">qtext</property>
      <property name="shotcut:filter">richText</property>
      <property name="html">&lt;!DOCTYPE HTML PUBLIC &quot;-//W3C//DTD HTML 4.0//EN&quot; &quot;http://www.w3.org/TR/REC-html40/strict.dtd&quot;&gt;
&lt;html&gt;&lt;head&gt;&lt;meta name=&quot;qrichtext&quot; content=&quot;1&quot; /&gt;&lt;style type=&quot;text/css&quot;&gt;
p, li { white-space: pre-wrap; }
&lt;/style&gt;&lt;/head&gt;&lt;body style=&quot; font-family:'MS Shell Dlg 2'; font-size:8pt; font-weight:400; font-style:normal;&quot;&gt;
&lt;p style=&quot; margin-top:0px; margin-bottom:0px; margin-left:0px; margin-right:0px; -qt-block-indent:0; text-indent:0px;&quot;&gt;&lt;span style=&quot; font-family:'Verdana'; font-size:36pt; font-weight:600; color:#ffffff;&quot;&gt;     Intense Waiting Montage*&lt;/span&gt;&lt;/p&gt;&lt;/body&gt;&lt;/html&gt;</property>
      <property name="shotcut:animIn">00:00:00.000</property>
      <property name="shotcut:animOut">00:00:00.000</property>
    </filter>
  </producer>
  <producer id="producer26" in="00:00:00.000" out="03:59:59.983">
    <property name="length">04:00:00.000</property>
    <property name="eof">pause</property>
    <property name="resource">#00000000</property>
    <property name="aspect_ratio">1</property>
    <property name="mlt_service">color</property>
    <property name="mlt_image_format">rgba</property>
    <property name="shotcut:caption">transparent</property>
    <property name="shotcut:detail">transparent</property>
    <property name="ignore_points">0</property>
    <property name="xml">was here</property>
    <property name="seekable">1</property>
    <filter id="filter69" out="00:00:03.733">
      <property name="argument"></property>
      <property name="geometry">13 640 558 216 1</property>
      <property name="family">Sans</property>
      <property name="size">48</property>
      <property name="weight">400</property>
      <property name="style">normal</property>
      <property name="fgcolour">0x000000ff</property>
      <property name="bgcolour">#00000000</property>
      <property name="olcolour">0x00000000</property>
      <property name="pad">0</property>
      <property name="halign">left</property>
      <property name="valign">top</property>
      <property name="outline">0</property>
      <property name="pixel_ratio">1</property>
      <property name="mlt_service">qtext</property>
      <property name="shotcut:filter">richText</property>
      <property name="html">&lt;!DOCTYPE HTML PUBLIC &quot;-//W3C//DTD HTML 4.0//EN&quot; &quot;http://www.w3.org/TR/REC-html40/strict.dtd&quot;&gt;
&lt;html&gt;&lt;head&gt;&lt;meta name=&quot;qrichtext&quot; content=&quot;1&quot; /&gt;&lt;style type=&quot;text/css&quot;&gt;
p, li { white-space: pre-wrap; }
&lt;/style&gt;&lt;/head&gt;&lt;body style=&quot; font-family:'MS Shell Dlg 2'; font-size:8pt; font-weight:400; font-style:normal;&quot;&gt;
&lt;p style=&quot; margin-top:0px; margin-bottom:0px; margin-left:0px; margin-right:0px; -qt-block-indent:0; text-indent:0px;&quot;&gt;&lt;span style=&quot; font-size:36pt;&quot;&gt;	  &lt;/span&gt;&lt;span style=&quot; font-size:33pt;&quot;&gt;your uber has    				 arrived&lt;/span&gt;&lt;/p&gt;&lt;/body&gt;&lt;/html&gt;</property>
      <property name="shotcut:animIn">00:00:00.000</property>
      <property name="shotcut:animOut">00:00:00.000</property>
    </filter>
  </producer>
  <producer id="producer27" in="00:00:00.000" out="03:59:59.983">
    <property name="length">04:00:00.000</property>
    <property name="eof">pause</property>
    <property name="resource">#00000000</property>
    <property name="aspect_ratio">1</property>
    <property name="mlt_service">color</property>
    <property name="mlt_image_format">rgba</property>
    <property name="shotcut:caption">transparent</property>
    <property name="shotcut:detail">transparent</property>
    <property name="ignore_points">0</property>
    <property name="xml">was here</property>
    <property name="seekable">1</property>
    <filter id="filter70" out="00:00:00.983">
      <property name="argument"></property>
      <property name="geometry">32 486 501 172 1</property>
      <property name="family">Sans</property>
      <property name="size">48</property>
      <property name="weight">400</property>
      <property name="style">normal</property>
      <property name="fgcolour">0x000000ff</property>
      <property name="bgcolour">#00000000</property>
      <property name="olcolour">0x00000000</property>
      <property name="pad">0</property>
      <property name="halign">left</property>
      <property name="valign">top</property>
      <property name="outline">0</property>
      <property name="pixel_ratio">1</property>
      <property name="mlt_service">qtext</property>
      <property name="shotcut:filter">richText</property>
      <property name="html">&lt;!DOCTYPE HTML PUBLIC &quot;-//W3C//DTD HTML 4.0//EN&quot; &quot;http://www.w3.org/TR/REC-html40/strict.dtd&quot;&gt;
&lt;html&gt;&lt;head&gt;&lt;meta name=&quot;qrichtext&quot; content=&quot;1&quot; /&gt;&lt;style type=&quot;text/css&quot;&gt;
p, li { white-space: pre-wrap; }
&lt;/style&gt;&lt;/head&gt;&lt;body style=&quot; font-family:'MS Shell Dlg 2'; font-size:8pt; font-weight:400; font-style:normal;&quot;&gt;
&lt;p align=&quot;center&quot; style=&quot; margin-top:0px; margin-bottom:0px; margin-left:0px; margin-right:0px; -qt-block-indent:0; text-indent:0px;&quot;&gt;&lt;span style=&quot; font-size:14pt;&quot;&gt;I hope this was &lt;/span&gt;&lt;/p&gt;
&lt;p align=&quot;center&quot; style=&quot; margin-top:0px; margin-bottom:0px; margin-left:0px; margin-right:0px; -qt-block-indent:0; text-indent:0px;&quot;&gt;&lt;span style=&quot; font-size:14pt;&quot;&gt;worth half my life&lt;/span&gt;&lt;/p&gt;&lt;/body&gt;&lt;/html&gt;</property>
      <property name="shotcut:animIn">00:00:00.000</property>
      <property name="shotcut:animOut">00:00:00.000</property>
    </filter>
    <filter id="filter71" out="00:00:00.983">
      <property name="background">color:#00000000</property>
      <property name="mlt_service">affine</property>
      <property name="shotcut:filter">affineSizePosition</property>
      <property name="transition.fill">1</property>
      <property name="transition.distort">0</property>
      <property name="transition.rect">00:00:00.000=-97 -52.125 1780 1001.25 1;00:00:00.083=-124 -106 1840 1035 1;00:00:00.167=-2 -117 1840 1035 1;00:00:00.233=-117 -81 1840 1035 1;00:00:00.317=-120 -124 1840 1035 1;00:00:00.400=-164 -50 1840 1035 1;00:00:00.483=-106 -100 1840 1035 1;00:00:00.567=-80 -55 1840 1035 1;00:00:00.633=-48 -55 1840 1035 1;00:00:00.717=-52 -32 1840 1035 1;00:00:00.800=-84 -64 1840 1035 1;00:00:00.883=-94 -32 1840 1035 1;00:00:00.967=-175 -84 1840 1035 1;00:00:01.033=-120 -67 1840 1035 1</property>
      <property name="transition.valign">middle</property>
      <property name="transition.halign">center</property>
      <property name="shotcut:animIn">00:00:00.000</property>
      <property name="shotcut:animOut">00:00:00.000</property>
      <property name="transition.threads">0</property>
      <property name="transition.fix_rotate_x">0</property>
    </filter>
  </producer>
  <producer id="producer28" in="00:00:00.000" out="03:59:59.983">
    <property name="length">04:00:00.000</property>
    <property name="eof">pause</property>
    <property name="resource">#00000000</property>
    <property name="aspect_ratio">1</property>
    <property name="mlt_service">color</property>
    <property name="mlt_image_format">rgba</property>
    <property name="shotcut:caption">transparent</property>
    <property name="shotcut:detail">transparent</property>
    <property name="ignore_points">0</property>
    <property name="xml">was here</property>
    <property name="seekable">1</property>
    <filter id="filter72" in="00:00:01.000" out="00:00:01.983">
      <property name="argument"></property>
      <property name="geometry">32 486 501 172 1</property>
      <property name="family">Sans</property>
      <property name="size">48</property>
      <property name="weight">400</property>
      <property name="style">normal</property>
      <property name="fgcolour">0x000000ff</property>
      <property name="bgcolour">#00000000</property>
      <property name="olcolour">0x00000000</property>
      <property name="pad">0</property>
      <property name="halign">left</property>
      <property name="valign">top</property>
      <property name="outline">0</property>
      <property name="pixel_ratio">1</property>
      <property name="mlt_service">qtext</property>
      <property name="shotcut:filter">richText</property>
      <property name="html">&lt;!DOCTYPE HTML PUBLIC &quot;-//W3C//DTD HTML 4.0//EN&quot; &quot;http://www.w3.org/TR/REC-html40/strict.dtd&quot;&gt;
&lt;html&gt;&lt;head&gt;&lt;meta name=&quot;qrichtext&quot; content=&quot;1&quot; /&gt;&lt;style type=&quot;text/css&quot;&gt;
p, li { white-space: pre-wrap; }
&lt;/style&gt;&lt;/head&gt;&lt;body style=&quot; font-family:'MS Shell Dlg 2'; font-size:8pt; font-weight:400; font-style:normal;&quot;&gt;
&lt;p align=&quot;center&quot; style=&quot; margin-top:0px; margin-bottom:0px; margin-left:0px; margin-right:0px; -qt-block-indent:0; text-indent:0px;&quot;&gt;&lt;span style=&quot; font-family:'Cambria'; font-size:14pt; font-weight:600; color:#ffffff;&quot;&gt;I hope this was &lt;/span&gt;&lt;/p&gt;
&lt;p align=&quot;center&quot; style=&quot; margin-top:0px; margin-bottom:0px; margin-left:0px; margin-right:0px; -qt-block-indent:0; text-indent:0px;&quot;&gt;&lt;span style=&quot; font-family:'Cambria'; font-size:14pt; font-weight:600; color:#ffffff;&quot;&gt;worth half my life&lt;/span&gt;&lt;/p&gt;&lt;/body&gt;&lt;/html&gt;</property>
      <property name="shotcut:animIn">00:00:00.000</property>
      <property name="shotcut:animOut">00:00:00.000</property>
    </filter>
    <filter id="filter73" in="00:00:01.000" out="00:00:01.983">
      <property name="background">color:#00000000</property>
      <property name="mlt_service">affine</property>
      <property name="shotcut:filter">affineSizePosition</property>
      <property name="transition.fill">1</property>
      <property name="transition.distort">0</property>
      <property name="transition.rect">00:00:00.000=-127 -69 1840 1035 1;00:00:00.083=-124 -106 1840 1035 1;00:00:00.167=-2 -117 1840 1035 1;00:00:00.233=-117 -81 1840 1035 1;00:00:00.317=-120 -124 1840 1035 1;00:00:00.400=-164 -50 1840 1035 1;00:00:00.483=-106 -100 1840 1035 1;00:00:00.567=-80 -55 1840 1035 1;00:00:00.633=-48 -55 1840 1035 1;00:00:00.717=-52 -32 1840 1035 1;00:00:00.800=-84 -64 1840 1035 1;00:00:00.883=-94 -32 1840 1035 1;00:00:00.967=-175 -84 1840 1035 1;00:00:01.000=</property>
      <property name="transition.valign">middle</property>
      <property name="transition.halign">center</property>
      <property name="shotcut:animIn">00:00:00.000</property>
      <property name="shotcut:animOut">00:00:00.000</property>
      <property name="transition.threads">0</property>
      <property name="transition.fix_rotate_x">0</property>
    </filter>
  </producer>
  <producer id="producer29" in="00:00:00.000" out="03:59:59.983">
    <property name="length">04:00:00.000</property>
    <property name="eof">pause</property>
    <property name="resource">#00000000</property>
    <property name="aspect_ratio">1</property>
    <property name="mlt_service">color</property>
    <property name="mlt_image_format">rgba</property>
    <property name="shotcut:caption">transparent</property>
    <property name="shotcut:detail">transparent</property>
    <property name="ignore_points">0</property>
    <property name="xml">was here</property>
    <property name="seekable">1</property>
    <filter id="filter74" in="00:00:02.533" out="00:00:02.983">
      <property name="argument"></property>
      <property name="geometry">32 486 501 172 1</property>
      <property name="family">Sans</property>
      <property name="size">48</property>
      <property name="weight">400</property>
      <property name="style">normal</property>
      <property name="fgcolour">0x000000ff</property>
      <property name="bgcolour">#00000000</property>
      <property name="olcolour">0x00000000</property>
      <property name="pad">0</property>
      <property name="halign">left</property>
      <property name="valign">top</property>
      <property name="outline">0</property>
      <property name="pixel_ratio">1</property>
      <property name="mlt_service">qtext</property>
      <property name="shotcut:filter">richText</property>
      <property name="html">&lt;!DOCTYPE HTML PUBLIC &quot;-//W3C//DTD HTML 4.0//EN&quot; &quot;http://www.w3.org/TR/REC-html40/strict.dtd&quot;&gt;
&lt;html&gt;&lt;head&gt;&lt;meta name=&quot;qrichtext&quot; content=&quot;1&quot; /&gt;&lt;style type=&quot;text/css&quot;&gt;
p, li { white-space: pre-wrap; }
&lt;/style&gt;&lt;/head&gt;&lt;body style=&quot; font-family:'MS Shell Dlg 2'; font-size:8pt; font-weight:400; font-style:normal;&quot;&gt;
&lt;p align=&quot;center&quot; style=&quot; margin-top:0px; margin-bottom:0px; margin-left:0px; margin-right:0px; -qt-block-indent:0; text-indent:0px;&quot;&gt;&lt;span style=&quot; font-family:'Cambria'; font-size:14pt; font-weight:600; color:#ffffff;&quot;&gt;I hope this was &lt;/span&gt;&lt;/p&gt;
&lt;p align=&quot;center&quot; style=&quot; margin-top:0px; margin-bottom:0px; margin-left:0px; margin-right:0px; -qt-block-indent:0; text-indent:0px;&quot;&gt;&lt;span style=&quot; font-family:'Cambria'; font-size:14pt; font-weight:600; color:#ffffff;&quot;&gt;worth half my life&lt;/span&gt;&lt;/p&gt;&lt;/body&gt;&lt;/html&gt;</property>
      <property name="shotcut:animIn">00:00:00.000</property>
      <property name="shotcut:animOut">00:00:00.000</property>
    </filter>
    <filter id="filter75" in="00:00:02.533" out="00:00:02.983">
      <property name="background">color:#00000000</property>
      <property name="mlt_service">affine</property>
      <property name="shotcut:filter">affineSizePosition</property>
      <property name="transition.fill">1</property>
      <property name="transition.distort">0</property>
      <property name="transition.rect">00:00:00.000=-127 -69 1840 1035 1;00:00:00.083=-124 -106 1840 1035 1;00:00:00.167=-2 -117 1840 1035 1;00:00:00.233=-117 -81 1840 1035 1;00:00:00.317=-120 -124 1840 1035 1;00:00:00.400=-164 -50 1840 1035 1;00:00:00.483=-106 -100 1840 1035 1;00:00:00.567=-80 -55 1840 1035 1;00:00:00.633=-48 -55 1840 1035 1;00:00:00.717=-52 -32 1840 1035 1;00:00:00.800=-84 -64 1840 1035 1;00:00:00.883=-94 -32 1840 1035 1;00:00:00.967=-175 -84 1840 1035 1;00:00:01.000=</property>
      <property name="transition.valign">middle</property>
      <property name="transition.halign">center</property>
      <property name="shotcut:animIn">00:00:00.000</property>
      <property name="shotcut:animOut">00:00:00.000</property>
      <property name="transition.threads">0</property>
      <property name="transition.fix_rotate_x">0</property>
    </filter>
  </producer>
  <producer id="producer30" in="00:00:00.000" out="03:59:59.983">
    <property name="length">04:00:00.000</property>
    <property name="eof">pause</property>
    <property name="resource">#00000000</property>
    <property name="aspect_ratio">1</property>
    <property name="mlt_service">color</property>
    <property name="mlt_image_format">rgba</property>
    <property name="shotcut:caption">transparent</property>
    <property name="shotcut:detail">transparent</property>
    <property name="ignore_points">0</property>
    <property name="xml">was here</property>
    <property name="seekable">1</property>
    <filter id="filter76" in="00:00:02.467" out="00:00:03.733">
      <property name="argument"></property>
      <property name="geometry">32 486 501 172 1</property>
      <property name="family">Sans</property>
      <property name="size">48</property>
      <property name="weight">400</property>
      <property name="style">normal</property>
      <property name="fgcolour">0x000000ff</property>
      <property name="bgcolour">#00000000</property>
      <property name="olcolour">0x00000000</property>
      <property name="pad">0</property>
      <property name="halign">left</property>
      <property name="valign">top</property>
      <property name="outline">0</property>
      <property name="pixel_ratio">1</property>
      <property name="mlt_service">qtext</property>
      <property name="shotcut:filter">richText</property>
      <property name="html">&lt;!DOCTYPE HTML PUBLIC &quot;-//W3C//DTD HTML 4.0//EN&quot; &quot;http://www.w3.org/TR/REC-html40/strict.dtd&quot;&gt;
&lt;html&gt;&lt;head&gt;&lt;meta name=&quot;qrichtext&quot; content=&quot;1&quot; /&gt;&lt;style type=&quot;text/css&quot;&gt;
p, li { white-space: pre-wrap; }
&lt;/style&gt;&lt;/head&gt;&lt;body style=&quot; font-family:'MS Shell Dlg 2'; font-size:8pt; font-weight:400; font-style:normal;&quot;&gt;
&lt;p align=&quot;center&quot; style=&quot; margin-top:0px; margin-bottom:0px; margin-left:0px; margin-right:0px; -qt-block-indent:0; text-indent:0px;&quot;&gt;&lt;span style=&quot; font-family:'Cambria'; font-size:14pt; font-weight:600; color:#ffffff;&quot;&gt;I hope this was &lt;/span&gt;&lt;/p&gt;
&lt;p align=&quot;center&quot; style=&quot; margin-top:0px; margin-bottom:0px; margin-left:0px; margin-right:0px; -qt-block-indent:0; text-indent:0px;&quot;&gt;&lt;span style=&quot; font-family:'Cambria'; font-size:14pt; font-weight:600; color:#ffffff;&quot;&gt;worth half my life&lt;/span&gt;&lt;/p&gt;&lt;/body&gt;&lt;/html&gt;</property>
      <property name="shotcut:animIn">00:00:00.000</property>
      <property name="shotcut:animOut">00:00:00.000</property>
    </filter>
    <filter id="filter77" in="00:00:02.467" out="00:00:03.733">
      <property name="background">color:#00000000</property>
      <property name="mlt_service">affine</property>
      <property name="shotcut:filter">affineSizePosition</property>
      <property name="transition.fill">1</property>
      <property name="transition.distort">0</property>
      <property name="transition.rect">00:00:00.000=-127 -69 1840 1035 1;00:00:00.083=-124 -106 1840 1035 1;00:00:00.167=-2 -117 1840 1035 1;00:00:00.233=-117 -81 1840 1035 1;00:00:00.317=-120 -124 1840 1035 1;00:00:00.400=-164 -50 1840 1035 1;00:00:00.483=-106 -100 1840 1035 1;00:00:00.567=-80 -55 1840 1035 1;00:00:00.633=-48 -55 1840 1035 1;00:00:00.717=-52 -32 1840 1035 1;00:00:00.750=</property>
      <property name="transition.valign">middle</property>
      <property name="transition.halign">center</property>
      <property name="shotcut:animIn">00:00:00.000</property>
      <property name="shotcut:animOut">00:00:00.000</property>
      <property name="transition.threads">0</property>
      <property name="transition.fix_rotate_x">0</property>
    </filter>
  </producer>
  <producer id="producer31" in="00:00:00.000" out="03:59:59.983">
    <property name="length">04:00:00.000</property>
    <property name="eof">pause</property>
    <property name="resource">#00000000</property>
    <property name="aspect_ratio">1</property>
    <property name="mlt_service">color</property>
    <property name="mlt_image_format">rgba</property>
    <property name="shotcut:caption">transparent</property>
    <property name="shotcut:detail">transparent</property>
    <property name="ignore_points">0</property>
    <property name="xml">was here</property>
    <property name="seekable">1</property>
    <filter id="filter78" in="00:00:01.817" out="00:00:03.300">
      <property name="argument"></property>
      <property name="geometry">160 90 1280 789 1</property>
      <property name="family">Sans</property>
      <property name="size">48</property>
      <property name="weight">400</property>
      <property name="style">normal</property>
      <property name="fgcolour">0x000000ff</property>
      <property name="bgcolour">#00000000</property>
      <property name="olcolour">0x00000000</property>
      <property name="pad">0</property>
      <property name="halign">left</property>
      <property name="valign">top</property>
      <property name="outline">0</property>
      <property name="pixel_ratio">1</property>
      <property name="mlt_service">qtext</property>
      <property name="shotcut:filter">richText</property>
      <property name="html">&lt;!DOCTYPE HTML PUBLIC &quot;-//W3C//DTD HTML 4.0//EN&quot; &quot;http://www.w3.org/TR/REC-html40/strict.dtd&quot;&gt;
&lt;html&gt;&lt;head&gt;&lt;meta name=&quot;qrichtext&quot; content=&quot;1&quot; /&gt;&lt;style type=&quot;text/css&quot;&gt;
p, li { white-space: pre-wrap; }
&lt;/style&gt;&lt;/head&gt;&lt;body style=&quot; font-family:'MS Shell Dlg 2'; font-size:8pt; font-weight:400; font-style:normal;&quot;&gt;
&lt;p style=&quot;-qt-paragraph-type:empty; margin-top:0px; margin-bottom:0px; margin-left:0px; margin-right:0px; -qt-block-indent:0; text-indent:0px; font-family:'Verdana'; font-size:72pt; font-weight:600; color:#ffffff;&quot;&gt;&lt;br /&gt;&lt;/p&gt;
&lt;p style=&quot;-qt-paragraph-type:empty; margin-top:0px; margin-bottom:0px; margin-left:0px; margin-right:0px; -qt-block-indent:0; text-indent:0px; font-family:'Verdana'; font-size:36pt; font-weight:600; color:#ffffff;&quot;&gt;&lt;br /&gt;&lt;/p&gt;
&lt;p style=&quot;-qt-paragraph-type:empty; margin-top:0px; margin-bottom:0px; margin-left:0px; margin-right:0px; -qt-block-indent:0; text-indent:0px; font-family:'Verdana'; font-size:36pt; font-weight:600; color:#ffffff;&quot;&gt;&lt;br /&gt;&lt;/p&gt;
&lt;p style=&quot;-qt-paragraph-type:empty; margin-top:0px; margin-bottom:0px; margin-left:0px; margin-right:0px; -qt-block-indent:0; text-indent:0px; font-family:'Verdana'; font-size:36pt; font-weight:600; color:#ffffff;&quot;&gt;&lt;br /&gt;&lt;/p&gt;
&lt;p style=&quot;-qt-paragraph-type:empty; margin-top:0px; margin-bottom:0px; margin-left:0px; margin-right:0px; -qt-block-indent:0; text-indent:0px; font-family:'Verdana'; font-size:36pt; font-weight:600; color:#ffffff;&quot;&gt;&lt;br /&gt;&lt;/p&gt;
&lt;p style=&quot;-qt-paragraph-type:empty; margin-top:0px; margin-bottom:0px; margin-left:0px; margin-right:0px; -qt-block-indent:0; text-indent:0px; font-family:'Verdana'; font-size:36pt; font-weight:600; color:#ffffff;&quot;&gt;&lt;br /&gt;&lt;/p&gt;
&lt;p style=&quot; margin-top:0px; margin-bottom:0px; margin-left:0px; margin-right:0px; -qt-block-indent:0; text-indent:0px;&quot;&gt;&lt;span style=&quot; font-family:'Verdana'; font-size:36pt; font-weight:600; color:#ffffff;&quot;&gt;:O Amogus Sussy Impostor Moonbase let's Explore&lt;/span&gt;&lt;/p&gt;&lt;/body&gt;&lt;/html&gt;</property>
      <property name="shotcut:animIn">00:00:00.000</property>
      <property name="shotcut:animOut">00:00:00.000</property>
    </filter>
  </producer>
  <producer id="producer32" in="00:00:00.000" out="03:59:59.983">
    <property name="length">04:00:00.000</property>
    <property name="eof">pause</property>
    <property name="resource">#00000000</property>
    <property name="aspect_ratio">1</property>
    <property name="mlt_service">color</property>
    <property name="mlt_image_format">rgba</property>
    <property name="shotcut:caption">transparent</property>
    <property name="shotcut:detail">transparent</property>
    <property name="ignore_points">0</property>
    <property name="xml">was here</property>
    <property name="seekable">1</property>
    <filter id="filter79" out="00:00:01.617">
      <property name="argument"></property>
      <property name="geometry">456 293 489 150 1</property>
      <property name="family">Sans</property>
      <property name="size">48</property>
      <property name="weight">400</property>
      <property name="style">normal</property>
      <property name="fgcolour">0x000000ff</property>
      <property name="bgcolour">#00000000</property>
      <property name="olcolour">0x00000000</property>
      <property name="pad">0</property>
      <property name="halign">left</property>
      <property name="valign">top</property>
      <property name="outline">0</property>
      <property name="pixel_ratio">1</property>
      <property name="mlt_service">qtext</property>
      <property name="shotcut:filter">richText</property>
      <property name="html">&lt;!DOCTYPE HTML PUBLIC &quot;-//W3C//DTD HTML 4.0//EN&quot; &quot;http://www.w3.org/TR/REC-html40/strict.dtd&quot;&gt;
&lt;html&gt;&lt;head&gt;&lt;meta name=&quot;qrichtext&quot; content=&quot;1&quot; /&gt;&lt;style type=&quot;text/css&quot;&gt;
p, li { white-space: pre-wrap; }
&lt;/style&gt;&lt;/head&gt;&lt;body style=&quot; font-family:'MS Shell Dlg 2'; font-size:8pt; font-weight:400; font-style:normal;&quot;&gt;
&lt;p style=&quot; margin-top:0px; margin-bottom:0px; margin-left:0px; margin-right:0px; -qt-block-indent:0; text-indent:0px;&quot;&gt;&lt;span style=&quot; font-family:'Cambria'; font-size:36pt; font-weight:600; color:#000000;&quot;&gt;I Want Die.&lt;/span&gt;&lt;/p&gt;&lt;/body&gt;&lt;/html&gt;</property>
      <property name="shotcut:animIn">00:00:00.000</property>
      <property name="shotcut:animOut">00:00:00.000</property>
    </filter>
  </producer>
  <producer id="producer33" in="00:00:00.000" out="03:59:59.983">
    <property name="length">04:00:00.000</property>
    <property name="eof">pause</property>
    <property name="resource">#00000000</property>
    <property name="aspect_ratio">1</property>
    <property name="mlt_service">color</property>
    <property name="mlt_image_format">rgba</property>
    <property name="shotcut:caption">transparent</property>
    <property name="shotcut:detail">transparent</property>
    <property name="ignore_points">0</property>
    <property name="xml">was here</property>
    <property name="seekable">1</property>
    <filter id="filter80" out="00:00:00.317">
      <property name="argument"></property>
      <property name="geometry">591 587 186 93 1</property>
      <property name="family">Sans</property>
      <property name="size">48</property>
      <property name="weight">400</property>
      <property name="style">normal</property>
      <property name="fgcolour">0x000000ff</property>
      <property name="bgcolour">#00000000</property>
      <property name="olcolour">0x00000000</property>
      <property name="pad">0</property>
      <property name="halign">left</property>
      <property name="valign">top</property>
      <property name="outline">0</property>
      <property name="pixel_ratio">1</property>
      <property name="mlt_service">qtext</property>
      <property name="shotcut:filter">richText</property>
      <property name="html">&lt;!DOCTYPE HTML PUBLIC &quot;-//W3C//DTD HTML 4.0//EN&quot; &quot;http://www.w3.org/TR/REC-html40/strict.dtd&quot;&gt;
&lt;html&gt;&lt;head&gt;&lt;meta name=&quot;qrichtext&quot; content=&quot;1&quot; /&gt;&lt;style type=&quot;text/css&quot;&gt;
p, li { white-space: pre-wrap; }
&lt;/style&gt;&lt;/head&gt;&lt;body style=&quot; font-family:'MS Shell Dlg 2'; font-size:8pt; font-weight:400; font-style:normal;&quot;&gt;
&lt;p style=&quot; margin-top:0px; margin-bottom:0px; margin-left:0px; margin-right:0px; -qt-block-indent:0; text-indent:0px;&quot;&gt;&lt;span style=&quot; font-family:'Cambria'; font-size:35pt; font-weight:600; color:#ffffff;&quot;&gt;Bonk&lt;/span&gt;&lt;/p&gt;&lt;/body&gt;&lt;/html&gt;</property>
      <property name="shotcut:animIn">00:00:00.000</property>
      <property name="shotcut:animOut">00:00:00.000</property>
    </filter>
    <filter id="filter81" out="00:00:00.317">
      <property name="background">color:#00000000</property>
      <property name="mlt_service">affine</property>
      <property name="shotcut:filter">affineSizePosition</property>
      <property name="transition.fill">1</property>
      <property name="transition.distort">0</property>
      <property name="transition.rect">00:00:00.000=0 0 1600 900 1;00:00:00.050=-51.0425 33.0275 1600 900 1;00:00:00.117=-132.861 111.843 1600 900 1;00:00:00.250=-364.053 171.143 1600 900 1;00:00:00.267=-381.962 171.143 1600 900 1;00:00:00.283=-394.628 174.79 1600 900 1;00:00:00.317=-406.281 171.447 1600 900 1;00:00:00.333=-312.26 171.143 1600 900 1</property>
      <property name="transition.valign">middle</property>
      <property name="transition.halign">center</property>
      <property name="shotcut:animIn">00:00:00.000</property>
      <property name="shotcut:animOut">00:00:00.000</property>
      <property name="transition.threads">0</property>
      <property name="transition.fix_rotate_x">0</property>
    </filter>
  </producer>
  <producer id="producer34" in="00:00:00.000" out="03:59:59.983">
    <property name="length">04:00:00.000</property>
    <property name="eof">pause</property>
    <property name="resource">#00000000</property>
    <property name="aspect_ratio">1</property>
    <property name="mlt_service">color</property>
    <property name="mlt_image_format">rgba</property>
    <property name="shotcut:caption">transparent</property>
    <property name="shotcut:detail">transparent</property>
    <property name="ignore_points">0</property>
    <property name="xml">was here</property>
    <property name="seekable">1</property>
    <filter id="filter82" out="00:00:01.083">
      <property name="argument"></property>
      <property name="geometry">160 90 1280 776 1</property>
      <property name="family">Sans</property>
      <property name="size">48</property>
      <property name="weight">400</property>
      <property name="style">normal</property>
      <property name="fgcolour">0x000000ff</property>
      <property name="bgcolour">#00000000</property>
      <property name="olcolour">0x00000000</property>
      <property name="pad">0</property>
      <property name="halign">left</property>
      <property name="valign">top</property>
      <property name="outline">0</property>
      <property name="pixel_ratio">1</property>
      <property name="mlt_service">qtext</property>
      <property name="shotcut:filter">richText</property>
      <property name="html">&lt;!DOCTYPE HTML PUBLIC &quot;-//W3C//DTD HTML 4.0//EN&quot; &quot;http://www.w3.org/TR/REC-html40/strict.dtd&quot;&gt;
&lt;html&gt;&lt;head&gt;&lt;meta name=&quot;qrichtext&quot; content=&quot;1&quot; /&gt;&lt;style type=&quot;text/css&quot;&gt;
p, li { white-space: pre-wrap; }
&lt;/style&gt;&lt;/head&gt;&lt;body style=&quot; font-family:'MS Shell Dlg 2'; font-size:8pt; font-weight:400; font-style:normal;&quot;&gt;
&lt;p style=&quot;-qt-paragraph-type:empty; margin-top:0px; margin-bottom:0px; margin-left:0px; margin-right:0px; -qt-block-indent:0; text-indent:0px; font-family:'Verdana'; font-size:72pt; font-weight:600; color:#ffffff;&quot;&gt;&lt;br /&gt;&lt;/p&gt;
&lt;p style=&quot;-qt-paragraph-type:empty; margin-top:0px; margin-bottom:0px; margin-left:0px; margin-right:0px; -qt-block-indent:0; text-indent:0px; font-family:'Verdana'; font-size:34pt; font-weight:600; color:#ffffff;&quot;&gt;&lt;br /&gt;&lt;/p&gt;
&lt;p style=&quot;-qt-paragraph-type:empty; margin-top:0px; margin-bottom:0px; margin-left:0px; margin-right:0px; -qt-block-indent:0; text-indent:0px; font-family:'Verdana'; font-size:34pt; font-weight:600; color:#ffffff;&quot;&gt;&lt;br /&gt;&lt;/p&gt;
&lt;p style=&quot;-qt-paragraph-type:empty; margin-top:0px; margin-bottom:0px; margin-left:0px; margin-right:0px; -qt-block-indent:0; text-indent:0px; font-family:'Verdana'; font-size:34pt; font-weight:600; color:#ffffff;&quot;&gt;&lt;br /&gt;&lt;/p&gt;
&lt;p style=&quot;-qt-paragraph-type:empty; margin-top:0px; margin-bottom:0px; margin-left:0px; margin-right:0px; -qt-block-indent:0; text-indent:0px; font-family:'Verdana'; font-size:34pt; font-weight:600; color:#ffffff;&quot;&gt;&lt;br /&gt;&lt;/p&gt;
&lt;p style=&quot;-qt-paragraph-type:empty; margin-top:0px; margin-bottom:0px; margin-left:0px; margin-right:0px; -qt-block-indent:0; text-indent:0px; font-family:'Verdana'; font-size:34pt; font-weight:600; color:#ffffff;&quot;&gt;&lt;br /&gt;&lt;/p&gt;
&lt;p style=&quot;-qt-paragraph-type:empty; margin-top:0px; margin-bottom:0px; margin-left:0px; margin-right:0px; -qt-block-indent:0; text-indent:0px; font-family:'Verdana'; font-size:34pt; font-weight:600; color:#ffffff;&quot;&gt;&lt;br /&gt;&lt;/p&gt;
&lt;p style=&quot; margin-top:0px; margin-bottom:0px; margin-left:0px; margin-right:0px; -qt-block-indent:0; text-indent:0px;&quot;&gt;&lt;span style=&quot; font-family:'Verdana'; font-size:34pt; font-weight:600; color:#ffffff;&quot;&gt;killsteal so no lightning bow &amp;gt;:(&lt;/span&gt;&lt;/p&gt;&lt;/body&gt;&lt;/html&gt;</property>
      <property name="shotcut:animIn">00:00:00.000</property>
      <property name="shotcut:animOut">00:00:00.000</property>
    </filter>
  </producer>
  <producer id="producer35" in="00:00:00.000" out="03:59:59.983">
    <property name="length">04:00:00.000</property>
    <property name="eof">pause</property>
    <property name="resource">#00000000</property>
    <property name="aspect_ratio">1</property>
    <property name="mlt_service">color</property>
    <property name="mlt_image_format">rgba</property>
    <property name="shotcut:caption">transparent</property>
    <property name="shotcut:detail">transparent</property>
    <property name="ignore_points">0</property>
    <property name="xml">was here</property>
    <property name="seekable">1</property>
    <filter id="filter83" out="00:00:01.367">
      <property name="argument"></property>
      <property name="geometry">864 615 411 178 1</property>
      <property name="family">Sans</property>
      <property name="size">48</property>
      <property name="weight">400</property>
      <property name="style">normal</property>
      <property name="fgcolour">0x000000ff</property>
      <property name="bgcolour">#00000000</property>
      <property name="olcolour">0x00000000</property>
      <property name="pad">0</property>
      <property name="halign">left</property>
      <property name="valign">top</property>
      <property name="outline">0</property>
      <property name="pixel_ratio">1</property>
      <property name="mlt_service">qtext</property>
      <property name="shotcut:filter">richText</property>
      <property name="html">&lt;!DOCTYPE HTML PUBLIC &quot;-//W3C//DTD HTML 4.0//EN&quot; &quot;http://www.w3.org/TR/REC-html40/strict.dtd&quot;&gt;
&lt;html&gt;&lt;head&gt;&lt;meta name=&quot;qrichtext&quot; content=&quot;1&quot; /&gt;&lt;style type=&quot;text/css&quot;&gt;
p, li { white-space: pre-wrap; }
&lt;/style&gt;&lt;/head&gt;&lt;body style=&quot; font-family:'MS Shell Dlg 2'; font-size:8pt; font-weight:400; font-style:normal;&quot;&gt;
&lt;p style=&quot; margin-top:0px; margin-bottom:0px; margin-left:0px; margin-right:0px; -qt-block-indent:0; text-indent:0px;&quot;&gt;&lt;span style=&quot; font-family:'Cambria'; font-size:35pt; color:#aa0000;&quot;&gt;what you aiming at??&lt;/span&gt;&lt;/p&gt;&lt;/body&gt;&lt;/html&gt;</property>
      <property name="shotcut:animIn">00:00:00.000</property>
      <property name="shotcut:animOut">00:00:00.000</property>
    </filter>
    <filter id="filter84" out="00:00:01.367">
      <property name="background">color:#00000000</property>
      <property name="mlt_service">affine</property>
      <property name="shotcut:filter">affineSizePosition</property>
      <property name="transition.fill">1</property>
      <property name="transition.distort">0</property>
      <property name="transition.rect">00:00:00.000=-127 -69 1840 1035 1;00:00:00.083=-124 -106 1840 1035 1;00:00:00.167=-2 -117 1840 1035 1;00:00:00.233=-117 -81 1840 1035 1;00:00:00.317=-120 -124 1840 1035 1;00:00:00.400=-164 -50 1840 1035 1;00:00:00.483=-106 -100 1840 1035 1;00:00:00.567=-80 -55 1840 1035 1;00:00:00.633=-48 -55 1840 1035 1;00:00:00.717=-52 -32 1840 1035 1;00:00:00.800=-84 -64 1840 1035 1;00:00:00.883=-94 -32 1840 1035 1;00:00:00.967=-175 -84 1840 1035 1;00:00:01.033=-120 -67 1840 1035 1</property>
      <property name="transition.valign">middle</property>
      <property name="transition.halign">center</property>
      <property name="shotcut:animIn">00:00:00.000</property>
      <property name="shotcut:animOut">00:00:00.000</property>
      <property name="transition.threads">0</property>
      <property name="transition.fix_rotate_x">0</property>
    </filter>
  </producer>
  <producer id="producer36" in="00:00:00.000" out="03:59:59.983">
    <property name="length">04:00:00.000</property>
    <property name="eof">pause</property>
    <property name="resource">#00000000</property>
    <property name="aspect_ratio">1</property>
    <property name="mlt_service">color</property>
    <property name="mlt_image_format">rgba</property>
    <property name="shotcut:caption">transparent</property>
    <property name="shotcut:detail">transparent</property>
    <property name="ignore_points">0</property>
    <property name="xml">was here</property>
    <property name="seekable">1</property>
    <filter id="filter85" in="00:00:01.050" out="00:00:02.033">
      <property name="argument"></property>
      <property name="geometry">864 615 411 178 1</property>
      <property name="family">Sans</property>
      <property name="size">48</property>
      <property name="weight">400</property>
      <property name="style">normal</property>
      <property name="fgcolour">0x000000ff</property>
      <property name="bgcolour">#00000000</property>
      <property name="olcolour">0x00000000</property>
      <property name="pad">0</property>
      <property name="halign">left</property>
      <property name="valign">top</property>
      <property name="outline">0</property>
      <property name="pixel_ratio">1</property>
      <property name="mlt_service">qtext</property>
      <property name="shotcut:filter">richText</property>
      <property name="html">&lt;!DOCTYPE HTML PUBLIC &quot;-//W3C//DTD HTML 4.0//EN&quot; &quot;http://www.w3.org/TR/REC-html40/strict.dtd&quot;&gt;
&lt;html&gt;&lt;head&gt;&lt;meta name=&quot;qrichtext&quot; content=&quot;1&quot; /&gt;&lt;style type=&quot;text/css&quot;&gt;
p, li { white-space: pre-wrap; }
&lt;/style&gt;&lt;/head&gt;&lt;body style=&quot; font-family:'MS Shell Dlg 2'; font-size:8pt; font-weight:400; font-style:normal;&quot;&gt;
&lt;p style=&quot; margin-top:0px; margin-bottom:0px; margin-left:0px; margin-right:0px; -qt-block-indent:0; text-indent:0px;&quot;&gt;&lt;span style=&quot; font-family:'Cambria'; font-size:35pt; color:#aa0000;&quot;&gt;what are you aiming at??&lt;/span&gt;&lt;/p&gt;&lt;/body&gt;&lt;/html&gt;</property>
      <property name="shotcut:animIn">00:00:00.000</property>
      <property name="shotcut:animOut">00:00:00.000</property>
    </filter>
    <filter id="filter86" in="00:00:01.050" out="00:00:02.033">
      <property name="background">color:#00000000</property>
      <property name="mlt_service">affine</property>
      <property name="shotcut:filter">affineSizePosition</property>
      <property name="transition.fill">1</property>
      <property name="transition.distort">0</property>
      <property name="transition.rect">00:00:00.000=-127 -69 1840 1035 1;00:00:00.083=-124 -106 1840 1035 1;00:00:00.167=-2 -117 1840 1035 1;00:00:00.233=-117 -81 1840 1035 1;00:00:00.317=-120 -124 1840 1035 1;00:00:00.400=-164 -50 1840 1035 1;00:00:00.483=-106 -100 1840 1035 1;00:00:00.567=-80 -55 1840 1035 1;00:00:00.633=-48 -55 1840 1035 1;00:00:00.717=-52 -32 1840 1035 1;00:00:00.800=-84 -64 1840 1035 1;00:00:00.883=-94 -32 1840 1035 1;00:00:00.967=-175 -84 1840 1035 1;00:00:01.033=-120 -67 1840 1035 1</property>
      <property name="transition.valign">middle</property>
      <property name="transition.halign">center</property>
      <property name="shotcut:animIn">00:00:00.000</property>
      <property name="shotcut:animOut">00:00:00.000</property>
      <property name="transition.threads">0</property>
      <property name="transition.fix_rotate_x">0</property>
    </filter>
  </producer>
  <producer id="producer37" in="00:00:00.000" out="03:59:59.983">
    <property name="length">04:00:00.000</property>
    <property name="eof">pause</property>
    <property name="resource">#00000000</property>
    <property name="aspect_ratio">1</property>
    <property name="mlt_service">color</property>
    <property name="mlt_image_format">rgba</property>
    <property name="shotcut:caption">transparent</property>
    <property name="shotcut:detail">transparent</property>
    <property name="ignore_points">0</property>
    <property name="xml">was here</property>
    <property name="seekable">1</property>
    <filter id="filter87" in="00:00:02.050" out="00:00:02.917">
      <property name="argument"></property>
      <property name="geometry">864 615 411 178 1</property>
      <property name="family">Sans</property>
      <property name="size">48</property>
      <property name="weight">400</property>
      <property name="style">normal</property>
      <property name="fgcolour">0x000000ff</property>
      <property name="bgcolour">#00000000</property>
      <property name="olcolour">0x00000000</property>
      <property name="pad">0</property>
      <property name="halign">left</property>
      <property name="valign">top</property>
      <property name="outline">0</property>
      <property name="pixel_ratio">1</property>
      <property name="mlt_service">qtext</property>
      <property name="shotcut:filter">richText</property>
      <property name="html">&lt;!DOCTYPE HTML PUBLIC &quot;-//W3C//DTD HTML 4.0//EN&quot; &quot;http://www.w3.org/TR/REC-html40/strict.dtd&quot;&gt;
&lt;html&gt;&lt;head&gt;&lt;meta name=&quot;qrichtext&quot; content=&quot;1&quot; /&gt;&lt;style type=&quot;text/css&quot;&gt;
p, li { white-space: pre-wrap; }
&lt;/style&gt;&lt;/head&gt;&lt;body style=&quot; font-family:'MS Shell Dlg 2'; font-size:8pt; font-weight:400; font-style:normal;&quot;&gt;
&lt;p style=&quot; margin-top:0px; margin-bottom:0px; margin-left:0px; margin-right:0px; -qt-block-indent:0; text-indent:0px;&quot;&gt;&lt;span style=&quot; font-family:'Cambria'; font-size:35pt; color:#aa0000;&quot;&gt;what are you aiming at??&lt;/span&gt;&lt;/p&gt;&lt;/body&gt;&lt;/html&gt;</property>
      <property name="shotcut:animIn">00:00:00.000</property>
      <property name="shotcut:animOut">00:00:00.000</property>
    </filter>
    <filter id="filter88" in="00:00:02.050" out="00:00:02.917">
      <property name="background">color:#00000000</property>
      <property name="mlt_service">affine</property>
      <property name="shotcut:filter">affineSizePosition</property>
      <property name="transition.fill">1</property>
      <property name="transition.distort">0</property>
      <property name="transition.rect">00:00:00.000=-127 -69 1840 1035 1;00:00:00.083=-124 -106 1840 1035 1;00:00:00.167=-2 -117 1840 1035 1;00:00:00.233=-117 -81 1840 1035 1;00:00:00.317=-120 -124 1840 1035 1;00:00:00.400=-164 -50 1840 1035 1;00:00:00.483=-106 -100 1840 1035 1;00:00:00.567=-80 -55 1840 1035 1;00:00:00.633=-48 -55 1840 1035 1;00:00:00.717=-52 -32 1840 1035 1;00:00:00.800=-84 -64 1840 1035 1;00:00:00.883=-94 -32 1840 1035 1</property>
      <property name="transition.valign">middle</property>
      <property name="transition.halign">center</property>
      <property name="shotcut:animIn">00:00:00.000</property>
      <property name="shotcut:animOut">00:00:00.000</property>
      <property name="transition.threads">0</property>
      <property name="transition.fix_rotate_x">0</property>
    </filter>
  </producer>
  <producer id="producer38" in="00:00:00.000" out="03:59:59.983">
    <property name="length">04:00:00.000</property>
    <property name="eof">pause</property>
    <property name="resource">#00000000</property>
    <property name="aspect_ratio">1</property>
    <property name="mlt_service">color</property>
    <property name="mlt_image_format">rgba</property>
    <property name="shotcut:caption">transparent</property>
    <property name="shotcut:detail">transparent</property>
    <property name="ignore_points">0</property>
    <property name="xml">was here</property>
    <property name="seekable">1</property>
    <filter id="filter89" out="00:00:01.233">
      <property name="argument"></property>
      <property name="geometry">160 90 1280 720 1</property>
      <property name="family">Sans</property>
      <property name="size">48</property>
      <property name="weight">400</property>
      <property name="style">normal</property>
      <property name="fgcolour">0x000000ff</property>
      <property name="bgcolour">#00000000</property>
      <property name="olcolour">0x00000000</property>
      <property name="pad">0</property>
      <property name="halign">left</property>
      <property name="valign">top</property>
      <property name="outline">0</property>
      <property name="pixel_ratio">1</property>
      <property name="mlt_service">qtext</property>
      <property name="shotcut:filter">richText</property>
      <property name="html">&lt;!DOCTYPE HTML PUBLIC &quot;-//W3C//DTD HTML 4.0//EN&quot; &quot;http://www.w3.org/TR/REC-html40/strict.dtd&quot;&gt;
&lt;html&gt;&lt;head&gt;&lt;meta name=&quot;qrichtext&quot; content=&quot;1&quot; /&gt;&lt;style type=&quot;text/css&quot;&gt;
p, li { white-space: pre-wrap; }
&lt;/style&gt;&lt;/head&gt;&lt;body style=&quot; font-family:'MS Shell Dlg 2'; font-size:8pt; font-weight:400; font-style:normal;&quot;&gt;
&lt;p style=&quot;-qt-paragraph-type:empty; margin-top:0px; margin-bottom:0px; margin-left:0px; margin-right:0px; -qt-block-indent:0; text-indent:0px; font-family:'Verdana'; font-size:72pt; font-weight:600; color:#ffffff;&quot;&gt;&lt;br /&gt;&lt;/p&gt;
&lt;p style=&quot;-qt-paragraph-type:empty; margin-top:0px; margin-bottom:0px; margin-left:0px; margin-right:0px; -qt-block-indent:0; text-indent:0px; font-family:'Verdana'; font-size:36pt; font-weight:600; color:#ffffff;&quot;&gt;&lt;br /&gt;&lt;/p&gt;
&lt;p style=&quot;-qt-paragraph-type:empty; margin-top:0px; margin-bottom:0px; margin-left:0px; margin-right:0px; -qt-block-indent:0; text-indent:0px; font-family:'Verdana'; font-size:36pt; font-weight:600; color:#ffffff;&quot;&gt;&lt;br /&gt;&lt;/p&gt;
&lt;p style=&quot;-qt-paragraph-type:empty; margin-top:0px; margin-bottom:0px; margin-left:0px; margin-right:0px; -qt-block-indent:0; text-indent:0px; font-family:'Verdana'; font-size:36pt; font-weight:600; color:#ffffff;&quot;&gt;&lt;br /&gt;&lt;/p&gt;
&lt;p style=&quot; margin-top:0px; margin-bottom:0px; margin-left:0px; margin-right:0px; -qt-block-indent:0; text-indent:0px;&quot;&gt;&lt;span style=&quot; font-family:'Verdana'; font-size:36pt; font-weight:600; color:#ffffff;&quot;&gt; out of range of AOE :&amp;lt;&lt;/span&gt;&lt;/p&gt;&lt;/body&gt;&lt;/html&gt;</property>
      <property name="shotcut:animIn">00:00:00.000</property>
      <property name="shotcut:animOut">00:00:00.000</property>
    </filter>
  </producer>
  <producer id="producer39" in="00:00:00.000" out="03:59:59.983">
    <property name="length">04:00:00.000</property>
    <property name="eof">pause</property>
    <property name="resource">#00000000</property>
    <property name="aspect_ratio">1</property>
    <property name="mlt_service">color</property>
    <property name="mlt_image_format">rgba</property>
    <property name="shotcut:caption">transparent</property>
    <property name="shotcut:detail">transparent</property>
    <property name="ignore_points">0</property>
    <property name="xml">was here</property>
    <property name="seekable">1</property>
    <filter id="filter90" out="00:00:07.550">
      <property name="argument"></property>
      <property name="geometry">160 90 1280 720 1</property>
      <property name="family">Sans</property>
      <property name="size">48</property>
      <property name="weight">400</property>
      <property name="style">normal</property>
      <property name="fgcolour">0x000000ff</property>
      <property name="bgcolour">#00000000</property>
      <property name="olcolour">0x00000000</property>
      <property name="pad">0</property>
      <property name="halign">left</property>
      <property name="valign">top</property>
      <property name="outline">0</property>
      <property name="pixel_ratio">1</property>
      <property name="mlt_service">qtext</property>
      <property name="shotcut:filter">richText</property>
      <property name="html">&lt;!DOCTYPE HTML PUBLIC &quot;-//W3C//DTD HTML 4.0//EN&quot; &quot;http://www.w3.org/TR/REC-html40/strict.dtd&quot;&gt;
&lt;html&gt;&lt;head&gt;&lt;meta name=&quot;qrichtext&quot; content=&quot;1&quot; /&gt;&lt;style type=&quot;text/css&quot;&gt;
p, li { white-space: pre-wrap; }
&lt;/style&gt;&lt;/head&gt;&lt;body style=&quot; font-family:'MS Shell Dlg 2'; font-size:8pt; font-weight:400; font-style:normal;&quot;&gt;
&lt;p align=&quot;center&quot; style=&quot; margin-top:0px; margin-bottom:0px; margin-left:0px; margin-right:0px; -qt-block-indent:0; text-indent:0px;&quot;&gt;&lt;span style=&quot; font-family:'Verdana'; font-size:36pt; font-weight:600; color:#ffffff;&quot;&gt;Me when&lt;/span&gt;&lt;/p&gt;
&lt;p align=&quot;center&quot; style=&quot;-qt-paragraph-type:empty; margin-top:0px; margin-bottom:0px; margin-left:0px; margin-right:0px; -qt-block-indent:0; text-indent:0px; font-family:'Verdana'; font-size:36pt; font-weight:600; color:#ffffff;&quot;&gt;&lt;br /&gt;&lt;/p&gt;
&lt;p style=&quot;-qt-paragraph-type:empty; margin-top:0px; margin-bottom:0px; margin-left:0px; margin-right:0px; -qt-block-indent:0; text-indent:0px; font-family:'Verdana'; font-size:36pt; font-weight:600; color:#ffffff;&quot;&gt;&lt;br /&gt;&lt;/p&gt;
&lt;p style=&quot;-qt-paragraph-type:empty; margin-top:0px; margin-bottom:0px; margin-left:0px; margin-right:0px; -qt-block-indent:0; text-indent:0px; font-family:'Verdana'; font-size:36pt; font-weight:600; color:#ffffff;&quot;&gt;&lt;br /&gt;&lt;/p&gt;
&lt;p style=&quot;-qt-paragraph-type:empty; margin-top:0px; margin-bottom:0px; margin-left:0px; margin-right:0px; -qt-block-indent:0; text-indent:0px; font-family:'Verdana'; font-size:36pt; font-weight:600; color:#ffffff;&quot;&gt;&lt;br /&gt;&lt;/p&gt;
&lt;p style=&quot;-qt-paragraph-type:empty; margin-top:0px; margin-bottom:0px; margin-left:0px; margin-right:0px; -qt-block-indent:0; text-indent:0px; font-family:'Verdana'; font-size:36pt; font-weight:600; color:#ffffff;&quot;&gt;&lt;br /&gt;&lt;/p&gt;
&lt;p style=&quot;-qt-paragraph-type:empty; margin-top:0px; margin-bottom:0px; margin-left:0px; margin-right:0px; -qt-block-indent:0; text-indent:0px; font-family:'Verdana'; font-size:36pt; font-weight:600; color:#ffffff;&quot;&gt;&lt;br /&gt;&lt;/p&gt;
&lt;p align=&quot;center&quot; style=&quot; margin-top:0px; margin-bottom:0px; margin-left:0px; margin-right:0px; -qt-block-indent:0; text-indent:0px;&quot;&gt;&lt;span style=&quot; font-family:'Verdana'; font-size:36pt; font-weight:600; color:#ffffff;&quot;&gt;Mass Genocide&lt;/span&gt;&lt;/p&gt;&lt;/body&gt;&lt;/html&gt;</property>
      <property name="shotcut:animIn">00:00:00.000</property>
      <property name="shotcut:animOut">00:00:00.000</property>
    </filter>
  </producer>
  <producer id="producer44" in="00:00:00.000" out="03:59:59.983">
    <property name="length">04:00:00.000</property>
    <property name="eof">pause</property>
    <property name="resource">#00000000</property>
    <property name="aspect_ratio">1</property>
    <property name="mlt_service">color</property>
    <property name="mlt_image_format">rgba</property>
    <property name="shotcut:caption">transparent</property>
    <property name="shotcut:detail">transparent</property>
    <property name="ignore_points">0</property>
    <property name="xml">was here</property>
    <property name="seekable">1</property>
    <filter id="filter91" out="00:00:03.983">
      <property name="argument"></property>
      <property name="geometry">160 90 1280 720 1</property>
      <property name="family">Sans</property>
      <property name="size">48</property>
      <property name="weight">400</property>
      <property name="style">normal</property>
      <property name="fgcolour">0x000000ff</property>
      <property name="bgcolour">#00000000</property>
      <property name="olcolour">0x00000000</property>
      <property name="pad">0</property>
      <property name="halign">left</property>
      <property name="valign">top</property>
      <property name="outline">0</property>
      <property name="pixel_ratio">1</property>
      <property name="mlt_service">qtext</property>
      <property name="shotcut:filter">richText</property>
      <property name="html">&lt;!DOCTYPE HTML PUBLIC &quot;-//W3C//DTD HTML 4.0//EN&quot; &quot;http://www.w3.org/TR/REC-html40/strict.dtd&quot;&gt;
&lt;html&gt;&lt;head&gt;&lt;meta name=&quot;qrichtext&quot; content=&quot;1&quot; /&gt;&lt;style type=&quot;text/css&quot;&gt;
p, li { white-space: pre-wrap; }
&lt;/style&gt;&lt;/head&gt;&lt;body style=&quot; font-family:'MS Shell Dlg 2'; font-size:8pt; font-weight:400; font-style:normal;&quot;&gt;
&lt;p style=&quot; margin-top:0px; margin-bottom:0px; margin-left:0px; margin-right:0px; -qt-block-indent:0; text-indent:0px;&quot;&gt;&lt;span style=&quot; font-family:'Verdana'; font-size:72pt; font-weight:600; color:#ffffff;&quot;&gt;Missed.&lt;/span&gt;&lt;/p&gt;
&lt;p style=&quot; margin-top:0px; margin-bottom:0px; margin-left:0px; margin-right:0px; -qt-block-indent:0; text-indent:0px;&quot;&gt;&lt;span style=&quot; font-family:'Verdana'; font-size:72pt; font-weight:600; color:#ffffff;&quot;&gt;The.&lt;/span&gt;&lt;/p&gt;
&lt;p style=&quot; margin-top:0px; margin-bottom:0px; margin-left:0px; margin-right:0px; -qt-block-indent:0; text-indent:0px;&quot;&gt;&lt;span style=&quot; font-family:'Verdana'; font-size:72pt; font-weight:600; color:#ffffff;&quot;&gt;Crit.&lt;/span&gt;&lt;/p&gt;&lt;/body&gt;&lt;/html&gt;</property>
      <property name="shotcut:animIn">00:00:00.000</property>
      <property name="shotcut:animOut">00:00:00.000</property>
    </filter>
  </producer>
  <producer id="producer40" in="00:00:00.000" out="03:59:59.983">
    <property name="length">04:00:00.000</property>
    <property name="eof">pause</property>
    <property name="resource">#00000000</property>
    <property name="aspect_ratio">1</property>
    <property name="mlt_service">color</property>
    <property name="mlt_image_format">rgba</property>
    <property name="shotcut:caption">transparent</property>
    <property name="shotcut:detail">transparent</property>
    <property name="ignore_points">0</property>
    <property name="xml">was here</property>
    <property name="seekable">1</property>
    <filter id="filter92" out="00:00:03.983">
      <property name="argument"></property>
      <property name="geometry">924 239 526 368 1</property>
      <property name="family">Sans</property>
      <property name="size">48</property>
      <property name="weight">400</property>
      <property name="style">normal</property>
      <property name="fgcolour">0x000000ff</property>
      <property name="bgcolour">#00000000</property>
      <property name="olcolour">0x00000000</property>
      <property name="pad">0</property>
      <property name="halign">left</property>
      <property name="valign">top</property>
      <property name="outline">0</property>
      <property name="pixel_ratio">1</property>
      <property name="mlt_service">qtext</property>
      <property name="shotcut:filter">richText</property>
      <property name="html">&lt;!DOCTYPE HTML PUBLIC &quot;-//W3C//DTD HTML 4.0//EN&quot; &quot;http://www.w3.org/TR/REC-html40/strict.dtd&quot;&gt;
&lt;html&gt;&lt;head&gt;&lt;meta name=&quot;qrichtext&quot; content=&quot;1&quot; /&gt;&lt;style type=&quot;text/css&quot;&gt;
p, li { white-space: pre-wrap; }
&lt;/style&gt;&lt;/head&gt;&lt;body style=&quot; font-family:'MS Shell Dlg 2'; font-size:8pt; font-weight:400; font-style:normal;&quot;&gt;
&lt;p style=&quot; margin-top:0px; margin-bottom:0px; margin-left:0px; margin-right:0px; -qt-block-indent:0; text-indent:0px;&quot;&gt;&lt;span style=&quot; font-size:24pt;&quot;&gt;Vex Mythpoclast tier weapon ------------&amp;gt;&lt;/span&gt;&lt;/p&gt;&lt;/body&gt;&lt;/html&gt;</property>
      <property name="shotcut:animIn">00:00:00.000</property>
      <property name="shotcut:animOut">00:00:00.000</property>
    </filter>
  </producer>
  <producer id="producer41" in="00:00:00.000" out="03:59:59.983">
    <property name="length">04:00:00.000</property>
    <property name="eof">pause</property>
    <property name="resource">#00000000</property>
    <property name="aspect_ratio">1</property>
    <property name="mlt_service">color</property>
    <property name="mlt_image_format">rgba</property>
    <property name="shotcut:caption">transparent</property>
    <property name="shotcut:detail">transparent</property>
    <property name="ignore_points">0</property>
    <property name="xml">was here</property>
    <property name="seekable">1</property>
    <filter id="filter93" out="00:00:02.433">
      <property name="argument"></property>
      <property name="geometry">779 515 519 93 1</property>
      <property name="family">Sans</property>
      <property name="size">48</property>
      <property name="weight">400</property>
      <property name="style">normal</property>
      <property name="fgcolour">0x000000ff</property>
      <property name="bgcolour">#00000000</property>
      <property name="olcolour">0x00000000</property>
      <property name="pad">0</property>
      <property name="halign">left</property>
      <property name="valign">top</property>
      <property name="outline">0</property>
      <property name="pixel_ratio">1</property>
      <property name="mlt_service">qtext</property>
      <property name="shotcut:filter">richText</property>
      <property name="html">&lt;!DOCTYPE HTML PUBLIC &quot;-//W3C//DTD HTML 4.0//EN&quot; &quot;http://www.w3.org/TR/REC-html40/strict.dtd&quot;&gt;
&lt;html&gt;&lt;head&gt;&lt;meta name=&quot;qrichtext&quot; content=&quot;1&quot; /&gt;&lt;style type=&quot;text/css&quot;&gt;
p, li { white-space: pre-wrap; }
&lt;/style&gt;&lt;/head&gt;&lt;body style=&quot; font-family:'MS Shell Dlg 2'; font-size:8pt; font-weight:400; font-style:normal;&quot;&gt;
&lt;p style=&quot; margin-top:0px; margin-bottom:0px; margin-left:0px; margin-right:0px; -qt-block-indent:0; text-indent:0px;&quot;&gt;&lt;span style=&quot; font-family:'Cambria'; font-size:35pt; font-weight:600; color:#aa0000;&quot;&gt;Shall we begin?&lt;/span&gt;&lt;/p&gt;&lt;/body&gt;&lt;/html&gt;</property>
      <property name="shotcut:animIn">00:00:00.000</property>
      <property name="shotcut:animOut">00:00:00.000</property>
    </filter>
    <filter id="filter94" out="00:00:02.433">
      <property name="start">1</property>
      <property name="level">00:00:00.000=0;00:00:00.983=1</property>
      <property name="mlt_service">brightness</property>
      <property name="shotcut:filter">fadeInBrightness</property>
      <property name="alpha">1</property>
      <property name="shotcut:animIn">00:00:01.000</property>
    </filter>
    <filter id="filter95" out="00:00:02.433">
      <property name="start">1</property>
      <property name="level">00:00:01.950=1;00:00:02.433=0</property>
      <property name="mlt_service">brightness</property>
      <property name="shotcut:filter">fadeOutBrightness</property>
      <property name="alpha">1</property>
      <property name="shotcut:animOut">00:00:00.500</property>
    </filter>
  </producer>
  <tractor id="tractor2" in="00:00:00.000" out="00:00:00.033">
    <property name="shotcut:transition">lumaMix</property>
    <track producer="producer40" in="00:00:03.950" out="00:00:03.983"/>
    <track producer="producer41" in="00:00:00.000" out="00:00:00.033"/>
    <transition id="transition4" out="00:00:00.033">
      <property name="a_track">0</property>
      <property name="b_track">1</property>
      <property name="factory">loader</property>
      <property name="mlt_service">luma</property>
      <property name="alpha_over">1</property>
    </transition>
    <transition id="transition5" out="00:00:00.033">
      <property name="a_track">0</property>
      <property name="b_track">1</property>
      <property name="mlt_service">mix</property>
      <property name="start">-1</property>
      <property name="accepts_blanks">1</property>
    </transition>
  </tractor>
  <producer id="producer42" in="00:00:00.000" out="03:59:59.983">
    <property name="length">04:00:00.000</property>
    <property name="eof">pause</property>
    <property name="resource">#00000000</property>
    <property name="aspect_ratio">1</property>
    <property name="mlt_service">color</property>
    <property name="mlt_image_format">rgba</property>
    <property name="shotcut:caption">transparent</property>
    <property name="shotcut:detail">transparent</property>
    <property name="ignore_points">0</property>
    <property name="xml">was here</property>
    <property name="seekable">1</property>
    <filter id="filter96" out="00:00:03.983">
      <property name="argument"></property>
      <property name="geometry">160 90 1280 720 1</property>
      <property name="family">Sans</property>
      <property name="size">48</property>
      <property name="weight">400</property>
      <property name="style">normal</property>
      <property name="fgcolour">0x000000ff</property>
      <property name="bgcolour">#00000000</property>
      <property name="olcolour">0x00000000</property>
      <property name="pad">0</property>
      <property name="halign">left</property>
      <property name="valign">top</property>
      <property name="outline">0</property>
      <property name="pixel_ratio">1</property>
      <property name="mlt_service">qtext</property>
      <property name="shotcut:filter">richText</property>
      <property name="html">&lt;!DOCTYPE HTML PUBLIC &quot;-//W3C//DTD HTML 4.0//EN&quot; &quot;http://www.w3.org/TR/REC-html40/strict.dtd&quot;&gt;
&lt;html&gt;&lt;head&gt;&lt;meta name=&quot;qrichtext&quot; content=&quot;1&quot; /&gt;&lt;style type=&quot;text/css&quot;&gt;
p, li { white-space: pre-wrap; }
&lt;/style&gt;&lt;/head&gt;&lt;body style=&quot; font-family:'MS Shell Dlg 2'; font-size:8pt; font-weight:400; font-style:normal;&quot;&gt;
&lt;p style=&quot; margin-top:0px; margin-bottom:0px; margin-left:0px; margin-right:0px; -qt-block-indent:0; text-indent:0px;&quot;&gt;&lt;span style=&quot; font-family:'Verdana'; font-size:20pt; font-weight:600; color:#ffffff;&quot;&gt;make sure to lick and subscib for more cringe content &lt;/span&gt;&lt;/p&gt;
&lt;p style=&quot; margin-top:0px; margin-bottom:0px; margin-left:0px; margin-right:0px; -qt-block-indent:0; text-indent:0px;&quot;&gt;&lt;span style=&quot; font-family:'Verdana'; font-size:20pt; font-weight:600; color:#ffffff;&quot;&gt;when we hit 25 susbs i will make a youtube apology video&lt;/span&gt;&lt;/p&gt;&lt;/body&gt;&lt;/html&gt;</property>
      <property name="shotcut:animIn">00:00:00.000</property>
      <property name="shotcut:animOut">00:00:00.000</property>
    </filter>
  </producer>
  <producer id="producer43" in="00:00:00.000" out="03:59:59.983">
    <property name="length">04:00:00.000</property>
    <property name="eof">pause</property>
    <property name="resource">#00000000</property>
    <property name="aspect_ratio">1</property>
    <property name="mlt_service">color</property>
    <property name="mlt_image_format">rgba</property>
    <property name="shotcut:caption">transparent</property>
    <property name="shotcut:detail">transparent</property>
    <property name="ignore_points">0</property>
    <property name="xml">was here</property>
    <property name="seekable">1</property>
  </producer>
  <producer id="producer45" in="00:00:00.000" out="03:59:59.983">
    <property name="length">04:00:00.000</property>
    <property name="eof">pause</property>
    <property name="resource">#00000000</property>
    <property name="aspect_ratio">1</property>
    <property name="mlt_service">color</property>
    <property name="mlt_image_format">rgba</property>
    <property name="shotcut:caption">transparent</property>
    <property name="shotcut:detail">transparent</property>
    <property name="ignore_points">0</property>
    <property name="xml">was here</property>
    <property name="seekable">1</property>
    <filter id="filter97" in="00:00:04.267" out="00:00:06.300">
      <property name="argument"></property>
      <property name="geometry">160 90 1280 720 1</property>
      <property name="family">Sans</property>
      <property name="size">48</property>
      <property name="weight">400</property>
      <property name="style">normal</property>
      <property name="fgcolour">0x000000ff</property>
      <property name="bgcolour">#00000000</property>
      <property name="olcolour">0x00000000</property>
      <property name="pad">0</property>
      <property name="halign">left</property>
      <property name="valign">top</property>
      <property name="outline">0</property>
      <property name="pixel_ratio">1</property>
      <property name="mlt_service">qtext</property>
      <property name="shotcut:filter">richText</property>
      <property name="html">&lt;!DOCTYPE HTML PUBLIC &quot;-//W3C//DTD HTML 4.0//EN&quot; &quot;http://www.w3.org/TR/REC-html40/strict.dtd&quot;&gt;
&lt;html&gt;&lt;head&gt;&lt;meta name=&quot;qrichtext&quot; content=&quot;1&quot; /&gt;&lt;style type=&quot;text/css&quot;&gt;
p, li { white-space: pre-wrap; }
&lt;/style&gt;&lt;/head&gt;&lt;body style=&quot; font-family:'MS Shell Dlg 2'; font-size:8pt; font-weight:400; font-style:normal;&quot;&gt;
&lt;p align=&quot;right&quot; style=&quot;-qt-paragraph-type:empty; margin-top:0px; margin-bottom:0px; margin-left:0px; margin-right:0px; -qt-block-indent:0; text-indent:0px; font-family:'Verdana'; font-size:72pt; font-weight:600; color:#ffffff;&quot;&gt;&lt;br /&gt;&lt;/p&gt;
&lt;p align=&quot;right&quot; style=&quot;-qt-paragraph-type:empty; margin-top:0px; margin-bottom:0px; margin-left:0px; margin-right:0px; -qt-block-indent:0; text-indent:0px; font-family:'Verdana'; font-size:36pt; font-weight:600; color:#ffff00;&quot;&gt;&lt;br /&gt;&lt;/p&gt;
&lt;p align=&quot;right&quot; style=&quot;-qt-paragraph-type:empty; margin-top:0px; margin-bottom:0px; margin-left:0px; margin-right:0px; -qt-block-indent:0; text-indent:0px; font-family:'Verdana'; font-size:36pt; font-weight:600; color:#ffff00;&quot;&gt;&lt;br /&gt;&lt;/p&gt;
&lt;p align=&quot;right&quot; style=&quot;-qt-paragraph-type:empty; margin-top:0px; margin-bottom:0px; margin-left:0px; margin-right:0px; -qt-block-indent:0; text-indent:0px; font-family:'Verdana'; font-size:36pt; font-weight:600; color:#ffff00;&quot;&gt;&lt;br /&gt;&lt;/p&gt;
&lt;p align=&quot;right&quot; style=&quot;-qt-paragraph-type:empty; margin-top:0px; margin-bottom:0px; margin-left:0px; margin-right:0px; -qt-block-indent:0; text-indent:0px; font-family:'Verdana'; font-size:36pt; font-weight:600; color:#ffff00;&quot;&gt;&lt;br /&gt;&lt;/p&gt;
&lt;p align=&quot;right&quot; style=&quot;-qt-paragraph-type:empty; margin-top:0px; margin-bottom:0px; margin-left:0px; margin-right:0px; -qt-block-indent:0; text-indent:0px; font-family:'Verdana'; font-size:36pt; font-weight:600; color:#ffff00;&quot;&gt;&lt;br /&gt;&lt;/p&gt;
&lt;p align=&quot;right&quot; style=&quot; margin-top:0px; margin-bottom:0px; margin-left:0px; margin-right:0px; -qt-block-indent:0; text-indent:0px;&quot;&gt;&lt;span style=&quot; font-family:'Verdana'; font-size:36pt; font-weight:600; color:#ffff00;&quot;&gt;Zeus Bow Be like&lt;/span&gt;&lt;/p&gt;&lt;/body&gt;&lt;/html&gt;</property>
      <property name="shotcut:animIn">00:00:00.000</property>
      <property name="shotcut:animOut">00:00:00.000</property>
    </filter>
  </producer>
  <producer id="producer46" in="00:00:00.000" out="03:59:59.983">
    <property name="length">04:00:00.000</property>
    <property name="eof">pause</property>
    <property name="resource">#00000000</property>
    <property name="aspect_ratio">1</property>
    <property name="mlt_service">color</property>
    <property name="mlt_image_format">rgba</property>
    <property name="shotcut:caption">transparent</property>
    <property name="shotcut:detail">transparent</property>
    <property name="ignore_points">0</property>
    <property name="xml">was here</property>
    <property name="seekable">1</property>
    <filter id="filter98" out="00:00:03.983">
      <property name="argument"></property>
      <property name="geometry">160 90 1280 720 1</property>
      <property name="family">Sans</property>
      <property name="size">48</property>
      <property name="weight">400</property>
      <property name="style">normal</property>
      <property name="fgcolour">0x000000ff</property>
      <property name="bgcolour">#00000000</property>
      <property name="olcolour">0x00000000</property>
      <property name="pad">0</property>
      <property name="halign">left</property>
      <property name="valign">top</property>
      <property name="outline">0</property>
      <property name="pixel_ratio">1</property>
      <property name="mlt_service">qtext</property>
      <property name="shotcut:filter">richText</property>
      <property name="html">&lt;!DOCTYPE HTML PUBLIC &quot;-//W3C//DTD HTML 4.0//EN&quot; &quot;http://www.w3.org/TR/REC-html40/strict.dtd&quot;&gt;
&lt;html&gt;&lt;head&gt;&lt;meta name=&quot;qrichtext&quot; content=&quot;1&quot; /&gt;&lt;style type=&quot;text/css&quot;&gt;
p, li { white-space: pre-wrap; }
&lt;/style&gt;&lt;/head&gt;&lt;body style=&quot; font-family:'MS Shell Dlg 2'; font-size:8pt; font-weight:400; font-style:normal;&quot;&gt;
&lt;p align=&quot;right&quot; style=&quot; margin-top:0px; margin-bottom:0px; margin-left:0px; margin-right:0px; -qt-block-indent:0; text-indent:0px;&quot;&gt;&lt;span style=&quot; font-family:'Verdana'; font-size:36pt; font-weight:600; color:#ffff00;&quot;&gt;Me When&lt;/span&gt;&lt;/p&gt;
&lt;p align=&quot;right&quot; style=&quot;-qt-paragraph-type:empty; margin-top:0px; margin-bottom:0px; margin-left:0px; margin-right:0px; -qt-block-indent:0; text-indent:0px; font-family:'Verdana'; font-size:36pt; font-weight:600; color:#ffff00;&quot;&gt;&lt;br /&gt;&lt;/p&gt;
&lt;p align=&quot;right&quot; style=&quot;-qt-paragraph-type:empty; margin-top:0px; margin-bottom:0px; margin-left:0px; margin-right:0px; -qt-block-indent:0; text-indent:0px; font-family:'Verdana'; font-size:36pt; font-weight:600; color:#ffff00;&quot;&gt;&lt;br /&gt;&lt;/p&gt;
&lt;p align=&quot;right&quot; style=&quot;-qt-paragraph-type:empty; margin-top:0px; margin-bottom:0px; margin-left:0px; margin-right:0px; -qt-block-indent:0; text-indent:0px; font-family:'Verdana'; font-size:36pt; font-weight:600; color:#ffff00;&quot;&gt;&lt;br /&gt;&lt;/p&gt;
&lt;p align=&quot;right&quot; style=&quot;-qt-paragraph-type:empty; margin-top:0px; margin-bottom:0px; margin-left:0px; margin-right:0px; -qt-block-indent:0; text-indent:0px; font-family:'Verdana'; font-size:36pt; font-weight:600; color:#ffff00;&quot;&gt;&lt;br /&gt;&lt;/p&gt;
&lt;p align=&quot;right&quot; style=&quot;-qt-paragraph-type:empty; margin-top:0px; margin-bottom:0px; margin-left:0px; margin-right:0px; -qt-block-indent:0; text-indent:0px; font-family:'Verdana'; font-size:36pt; font-weight:600; color:#ffff00;&quot;&gt;&lt;br /&gt;&lt;/p&gt;
&lt;p align=&quot;right&quot; style=&quot;-qt-paragraph-type:empty; margin-top:0px; margin-bottom:0px; margin-left:0px; margin-right:0px; -qt-block-indent:0; text-indent:0px; font-family:'Verdana'; font-size:36pt; font-weight:600; color:#ffff00;&quot;&gt;&lt;br /&gt;&lt;/p&gt;
&lt;p align=&quot;right&quot; style=&quot; margin-top:0px; margin-bottom:0px; margin-left:0px; margin-right:0px; -qt-block-indent:0; text-indent:0px;&quot;&gt;&lt;span style=&quot; font-family:'Verdana'; font-size:36pt; font-weight:600; color:#ffff00;&quot;&gt;Zeus Bow&lt;/span&gt;&lt;/p&gt;&lt;/body&gt;&lt;/html&gt;</property>
      <property name="shotcut:animIn">00:00:00.000</property>
      <property name="shotcut:animOut">00:00:00.000</property>
    </filter>
  </producer>
  <producer id="producer47" in="00:00:00.000" out="03:59:59.983">
    <property name="length">04:00:00.000</property>
    <property name="eof">pause</property>
    <property name="resource">#00000000</property>
    <property name="aspect_ratio">1</property>
    <property name="mlt_service">color</property>
    <property name="mlt_image_format">rgba</property>
    <property name="shotcut:caption">transparent</property>
    <property name="shotcut:detail">transparent</property>
    <property name="ignore_points">0</property>
    <property name="xml">was here</property>
    <property name="seekable">1</property>
    <filter id="filter99" out="00:00:02.883">
      <property name="argument"></property>
      <property name="geometry">329 231 631 223 1</property>
      <property name="family">Sans</property>
      <property name="size">48</property>
      <property name="weight">400</property>
      <property name="style">normal</property>
      <property name="fgcolour">0x000000ff</property>
      <property name="bgcolour">#00000000</property>
      <property name="olcolour">0x00000000</property>
      <property name="pad">0</property>
      <property name="halign">left</property>
      <property name="valign">top</property>
      <property name="outline">0</property>
      <property name="pixel_ratio">1</property>
      <property name="mlt_service">qtext</property>
      <property name="shotcut:filter">richText</property>
      <property name="html">&lt;!DOCTYPE HTML PUBLIC &quot;-//W3C//DTD HTML 4.0//EN&quot; &quot;http://www.w3.org/TR/REC-html40/strict.dtd&quot;&gt;
&lt;html&gt;&lt;head&gt;&lt;meta name=&quot;qrichtext&quot; content=&quot;1&quot; /&gt;&lt;style type=&quot;text/css&quot;&gt;
p, li { white-space: pre-wrap; }
&lt;/style&gt;&lt;/head&gt;&lt;body style=&quot; font-family:'MS Shell Dlg 2'; font-size:8pt; font-weight:400; font-style:normal;&quot;&gt;
&lt;p style=&quot; margin-top:0px; margin-bottom:0px; margin-left:0px; margin-right:0px; -qt-block-indent:0; text-indent:0px;&quot;&gt;&lt;span style=&quot; font-family:'Verdana'; font-size:20pt; font-weight:600; color:#ffffff;&quot;&gt;speeed&lt;/span&gt;&lt;/p&gt;&lt;/body&gt;&lt;/html&gt;</property>
      <property name="shotcut:animIn">00:00:00.000</property>
      <property name="shotcut:animOut">00:00:00.000</property>
    </filter>
  </producer>
  <producer id="producer48" in="00:00:00.000" out="03:59:59.983">
    <property name="length">04:00:00.000</property>
    <property name="eof">pause</property>
    <property name="resource">#00000000</property>
    <property name="aspect_ratio">1</property>
    <property name="mlt_service">color</property>
    <property name="mlt_image_format">rgba</property>
    <property name="shotcut:caption">transparent</property>
    <property name="shotcut:detail">transparent</property>
    <property name="ignore_points">0</property>
    <property name="xml">was here</property>
    <property name="seekable">1</property>
    <filter id="filter100" out="00:00:00.633">
      <property name="argument"></property>
      <property name="geometry">899 351 332 101 1</property>
      <property name="family">Sans</property>
      <property name="size">48</property>
      <property name="weight">400</property>
      <property name="style">normal</property>
      <property name="fgcolour">0x000000ff</property>
      <property name="bgcolour">#00000000</property>
      <property name="olcolour">0x00000000</property>
      <property name="pad">0</property>
      <property name="halign">left</property>
      <property name="valign">top</property>
      <property name="outline">0</property>
      <property name="pixel_ratio">1</property>
      <property name="mlt_service">qtext</property>
      <property name="shotcut:filter">richText</property>
      <property name="html">&lt;!DOCTYPE HTML PUBLIC &quot;-//W3C//DTD HTML 4.0//EN&quot; &quot;http://www.w3.org/TR/REC-html40/strict.dtd&quot;&gt;
&lt;html&gt;&lt;head&gt;&lt;meta name=&quot;qrichtext&quot; content=&quot;1&quot; /&gt;&lt;style type=&quot;text/css&quot;&gt;
p, li { white-space: pre-wrap; }
&lt;/style&gt;&lt;/head&gt;&lt;body style=&quot; font-family:'MS Shell Dlg 2'; font-size:8pt; font-weight:400; font-style:normal;&quot;&gt;
&lt;p align=&quot;center&quot; style=&quot; margin-top:0px; margin-bottom:0px; margin-left:0px; margin-right:0px; -qt-block-indent:0; text-indent:0px;&quot;&gt;&lt;span style=&quot; font-size:36pt;&quot;&gt;KABOM&lt;/span&gt;&lt;/p&gt;&lt;/body&gt;&lt;/html&gt;</property>
      <property name="shotcut:animIn">00:00:00.000</property>
      <property name="shotcut:animOut">00:00:00.000</property>
    </filter>
    <filter id="filter101" out="00:00:00.633">
      <property name="background">color:#00000000</property>
      <property name="mlt_service">affine</property>
      <property name="shotcut:filter">affineSizePosition</property>
      <property name="transition.fill">1</property>
      <property name="transition.distort">0</property>
      <property name="transition.rect">00:00:00.000=-127 -69 1840 1035 1;00:00:00.083=-124 -106 1840 1035 1;00:00:00.167=-2 -117 1840 1035 1;00:00:00.233=-117 -81 1840 1035 1;00:00:00.317=-120 -124 1840 1035 1;00:00:00.400=-164 -50 1840 1035 1;00:00:00.483=-106 -100 1840 1035 1;00:00:00.567=-80 -55 1840 1035 1;00:00:00.633=-48 -55 1840 1035 1;00:00:00.650=</property>
      <property name="transition.valign">middle</property>
      <property name="transition.halign">center</property>
      <property name="shotcut:animIn">00:00:00.000</property>
      <property name="shotcut:animOut">00:00:00.000</property>
      <property name="transition.threads">0</property>
      <property name="transition.fix_rotate_x">0</property>
    </filter>
  </producer>
  <producer id="producer49" in="00:00:00.000" out="03:59:59.983">
    <property name="length">04:00:00.000</property>
    <property name="eof">pause</property>
    <property name="resource">#00000000</property>
    <property name="aspect_ratio">1</property>
    <property name="mlt_service">color</property>
    <property name="mlt_image_format">rgba</property>
    <property name="shotcut:caption">transparent</property>
    <property name="shotcut:detail">transparent</property>
    <property name="ignore_points">0</property>
    <property name="xml">was here</property>
    <property name="seekable">1</property>
    <filter id="filter102" out="00:00:03.983">
      <property name="argument"></property>
      <property name="geometry">160 90 1280 720 1</property>
      <property name="family">Sans</property>
      <property name="size">48</property>
      <property name="weight">400</property>
      <property name="style">normal</property>
      <property name="fgcolour">0x000000ff</property>
      <property name="bgcolour">#00000000</property>
      <property name="olcolour">0x00000000</property>
      <property name="pad">0</property>
      <property name="halign">left</property>
      <property name="valign">top</property>
      <property name="outline">0</property>
      <property name="pixel_ratio">1</property>
      <property name="mlt_service">qtext</property>
      <property name="shotcut:filter">richText</property>
      <property name="html">&lt;!DOCTYPE HTML PUBLIC &quot;-//W3C//DTD HTML 4.0//EN&quot; &quot;http://www.w3.org/TR/REC-html40/strict.dtd&quot;&gt;
&lt;html&gt;&lt;head&gt;&lt;meta name=&quot;qrichtext&quot; content=&quot;1&quot; /&gt;&lt;style type=&quot;text/css&quot;&gt;
p, li { white-space: pre-wrap; }
&lt;/style&gt;&lt;/head&gt;&lt;body style=&quot; font-family:'MS Shell Dlg 2'; font-size:8pt; font-weight:400; font-style:normal;&quot;&gt;
&lt;p style=&quot; margin-top:0px; margin-bottom:0px; margin-left:0px; margin-right:0px; -qt-block-indent:0; text-indent:0px;&quot;&gt;&lt;span style=&quot; font-family:'Verdana'; font-size:20pt; font-weight:600; color:#ffffff;&quot;&gt;*literally had my dodge up &lt;/span&gt;&lt;/p&gt;
&lt;p style=&quot; margin-top:0px; margin-bottom:0px; margin-left:0px; margin-right:0px; -qt-block-indent:0; text-indent:0px;&quot;&gt;&lt;span style=&quot; font-family:'Verdana'; font-size:20pt; font-weight:600; color:#ffffff;&quot;&gt;so i could've reloaded&lt;/span&gt;&lt;/p&gt;&lt;/body&gt;&lt;/html&gt;</property>
      <property name="shotcut:animIn">00:00:00.000</property>
      <property name="shotcut:animOut">00:00:00.000</property>
    </filter>
  </producer>
  <producer id="producer50" in="00:00:00.000" out="03:59:59.983">
    <property name="length">04:00:00.000</property>
    <property name="eof">pause</property>
    <property name="resource">#00000000</property>
    <property name="aspect_ratio">1</property>
    <property name="mlt_service">color</property>
    <property name="mlt_image_format">rgba</property>
    <property name="shotcut:caption">transparent</property>
    <property name="shotcut:detail">transparent</property>
    <property name="ignore_points">0</property>
    <property name="xml">was here</property>
    <property name="seekable">1</property>
    <filter id="filter103" out="00:00:01.017">
      <property name="argument"></property>
      <property name="geometry">160 90 1280 720 1</property>
      <property name="family">Sans</property>
      <property name="size">48</property>
      <property name="weight">400</property>
      <property name="style">normal</property>
      <property name="fgcolour">0x000000ff</property>
      <property name="bgcolour">#00000000</property>
      <property name="olcolour">0x00000000</property>
      <property name="pad">0</property>
      <property name="halign">left</property>
      <property name="valign">top</property>
      <property name="outline">0</property>
      <property name="pixel_ratio">1</property>
      <property name="mlt_service">qtext</property>
      <property name="shotcut:filter">richText</property>
      <property name="html">&lt;!DOCTYPE HTML PUBLIC &quot;-//W3C//DTD HTML 4.0//EN&quot; &quot;http://www.w3.org/TR/REC-html40/strict.dtd&quot;&gt;
&lt;html&gt;&lt;head&gt;&lt;meta name=&quot;qrichtext&quot; content=&quot;1&quot; /&gt;&lt;style type=&quot;text/css&quot;&gt;
p, li { white-space: pre-wrap; }
&lt;/style&gt;&lt;/head&gt;&lt;body style=&quot; font-family:'MS Shell Dlg 2'; font-size:8pt; font-weight:400; font-style:normal;&quot;&gt;
&lt;p style=&quot; margin-top:0px; margin-bottom:0px; margin-left:0px; margin-right:0px; -qt-block-indent:0; text-indent:0px;&quot;&gt;&lt;span style=&quot; font-family:'Verdana'; font-size:15pt; font-weight:600; color:#ffffff;&quot;&gt;*actually remembered I can dodge to reload&lt;/span&gt;&lt;/p&gt;
&lt;p style=&quot; margin-top:0px; margin-bottom:0px; margin-left:0px; margin-right:0px; -qt-block-indent:0; text-indent:0px;&quot;&gt;&lt;span style=&quot; font-family:'Verdana'; font-size:15pt; font-weight:600; color:#ffffff;&quot;&gt;literally who knew&lt;/span&gt;&lt;/p&gt;&lt;/body&gt;&lt;/html&gt;</property>
      <property name="shotcut:animIn">00:00:00.000</property>
      <property name="shotcut:animOut">00:00:00.000</property>
    </filter>
  </producer>
  <producer id="producer51" in="00:00:00.000" out="03:59:59.983">
    <property name="length">04:00:00.000</property>
    <property name="eof">pause</property>
    <property name="resource">#00000000</property>
    <property name="aspect_ratio">1</property>
    <property name="mlt_service">color</property>
    <property name="mlt_image_format">rgba</property>
    <property name="shotcut:caption">transparent</property>
    <property name="shotcut:detail">transparent</property>
    <property name="ignore_points">0</property>
    <property name="xml">was here</property>
    <property name="seekable">1</property>
    <filter id="filter104" in="00:00:01.033" out="00:00:02.050">
      <property name="argument"></property>
      <property name="geometry">160 90 1280 720 1</property>
      <property name="family">Sans</property>
      <property name="size">48</property>
      <property name="weight">400</property>
      <property name="style">normal</property>
      <property name="fgcolour">0x000000ff</property>
      <property name="bgcolour">#00000000</property>
      <property name="olcolour">0x00000000</property>
      <property name="pad">0</property>
      <property name="halign">left</property>
      <property name="valign">top</property>
      <property name="outline">0</property>
      <property name="pixel_ratio">1</property>
      <property name="mlt_service">qtext</property>
      <property name="shotcut:filter">richText</property>
      <property name="html">&lt;!DOCTYPE HTML PUBLIC &quot;-//W3C//DTD HTML 4.0//EN&quot; &quot;http://www.w3.org/TR/REC-html40/strict.dtd&quot;&gt;
&lt;html&gt;&lt;head&gt;&lt;meta name=&quot;qrichtext&quot; content=&quot;1&quot; /&gt;&lt;style type=&quot;text/css&quot;&gt;
p, li { white-space: pre-wrap; }
&lt;/style&gt;&lt;/head&gt;&lt;body style=&quot; font-family:'MS Shell Dlg 2'; font-size:8pt; font-weight:400; font-style:normal;&quot;&gt;
&lt;p style=&quot; margin-top:0px; margin-bottom:0px; margin-left:0px; margin-right:0px; -qt-block-indent:0; text-indent:0px;&quot;&gt;&lt;span style=&quot; font-size:20pt;&quot;&gt;not me&lt;/span&gt;&lt;/p&gt;&lt;/body&gt;&lt;/html&gt;</property>
      <property name="shotcut:animIn">00:00:00.000</property>
      <property name="shotcut:animOut">00:00:00.000</property>
    </filter>
  </producer>
  <producer id="producer52" in="00:00:00.000" out="03:59:59.983">
    <property name="length">04:00:00.000</property>
    <property name="eof">pause</property>
    <property name="resource">#00000000</property>
    <property name="aspect_ratio">1</property>
    <property name="mlt_service">color</property>
    <property name="mlt_image_format">rgba</property>
    <property name="shotcut:caption">transparent</property>
    <property name="shotcut:detail">transparent</property>
    <property name="ignore_points">0</property>
    <property name="xml">was here</property>
    <property name="seekable">1</property>
    <filter id="filter105" in="00:00:02.067" out="00:00:02.783">
      <property name="argument"></property>
      <property name="geometry">160 90 1280 720 1</property>
      <property name="family">Sans</property>
      <property name="size">48</property>
      <property name="weight">400</property>
      <property name="style">normal</property>
      <property name="fgcolour">0x000000ff</property>
      <property name="bgcolour">#00000000</property>
      <property name="olcolour">0x00000000</property>
      <property name="pad">0</property>
      <property name="halign">left</property>
      <property name="valign">top</property>
      <property name="outline">0</property>
      <property name="pixel_ratio">1</property>
      <property name="mlt_service">qtext</property>
      <property name="shotcut:filter">richText</property>
      <property name="html">&lt;!DOCTYPE HTML PUBLIC &quot;-//W3C//DTD HTML 4.0//EN&quot; &quot;http://www.w3.org/TR/REC-html40/strict.dtd&quot;&gt;
&lt;html&gt;&lt;head&gt;&lt;meta name=&quot;qrichtext&quot; content=&quot;1&quot; /&gt;&lt;style type=&quot;text/css&quot;&gt;
p, li { white-space: pre-wrap; }
&lt;/style&gt;&lt;/head&gt;&lt;body style=&quot; font-family:'MS Shell Dlg 2'; font-size:8pt; font-weight:400; font-style:normal;&quot;&gt;
&lt;p style=&quot; margin-top:0px; margin-bottom:0px; margin-left:0px; margin-right:0px; -qt-block-indent:0; text-indent:0px;&quot;&gt;&lt;span style=&quot; font-size:20pt;&quot;&gt;or him&lt;/span&gt;&lt;/p&gt;&lt;/body&gt;&lt;/html&gt;</property>
      <property name="shotcut:animIn">00:00:00.000</property>
      <property name="shotcut:animOut">00:00:00.000</property>
    </filter>
  </producer>
  <producer id="producer53" in="00:00:00.000" out="03:59:59.983">
    <property name="length">04:00:00.000</property>
    <property name="eof">pause</property>
    <property name="resource">#00000000</property>
    <property name="aspect_ratio">1</property>
    <property name="mlt_service">color</property>
    <property name="mlt_image_format">rgba</property>
    <property name="shotcut:caption">transparent</property>
    <property name="shotcut:detail">transparent</property>
    <property name="ignore_points">0</property>
    <property name="xml">was here</property>
    <property name="seekable">1</property>
    <filter id="filter106" in="00:00:00.667" out="00:00:00.917">
      <property name="argument"></property>
      <property name="geometry">160 90 1280 720 1</property>
      <property name="family">Sans</property>
      <property name="size">48</property>
      <property name="weight">400</property>
      <property name="style">normal</property>
      <property name="fgcolour">0x000000ff</property>
      <property name="bgcolour">#00000000</property>
      <property name="olcolour">0x00000000</property>
      <property name="pad">0</property>
      <property name="halign">left</property>
      <property name="valign">top</property>
      <property name="outline">0</property>
      <property name="pixel_ratio">1</property>
      <property name="mlt_service">qtext</property>
      <property name="shotcut:filter">richText</property>
      <property name="html">&lt;!DOCTYPE HTML PUBLIC &quot;-//W3C//DTD HTML 4.0//EN&quot; &quot;http://www.w3.org/TR/REC-html40/strict.dtd&quot;&gt;
&lt;html&gt;&lt;head&gt;&lt;meta name=&quot;qrichtext&quot; content=&quot;1&quot; /&gt;&lt;style type=&quot;text/css&quot;&gt;
p, li { white-space: pre-wrap; }
&lt;/style&gt;&lt;/head&gt;&lt;body style=&quot; font-family:'MS Shell Dlg 2'; font-size:8pt; font-weight:400; font-style:normal;&quot;&gt;
&lt;p style=&quot; margin-top:0px; margin-bottom:0px; margin-left:0px; margin-right:0px; -qt-block-indent:0; text-indent:0px;&quot;&gt;&lt;span style=&quot; font-family:'Yu Gothic'; font-size:20pt; font-weight:600; color:#ffffff;&quot;&gt;I killed 1 red bar Dreg&lt;/span&gt;&lt;/p&gt;&lt;/body&gt;&lt;/html&gt;</property>
      <property name="shotcut:animIn">00:00:00.000</property>
      <property name="shotcut:animOut">00:00:00.000</property>
    </filter>
  </producer>
  <producer id="producer54" in="00:00:00.000" out="03:59:59.983">
    <property name="length">04:00:00.000</property>
    <property name="eof">pause</property>
    <property name="resource">#00000000</property>
    <property name="aspect_ratio">1</property>
    <property name="mlt_service">color</property>
    <property name="mlt_image_format">rgba</property>
    <property name="shotcut:caption">transparent</property>
    <property name="shotcut:detail">transparent</property>
    <property name="ignore_points">0</property>
    <property name="xml">was here</property>
    <property name="seekable">1</property>
    <filter id="filter107" out="00:00:00.267">
      <property name="argument"></property>
      <property name="geometry">160 90 1280 720 1</property>
      <property name="family">Sans</property>
      <property name="size">48</property>
      <property name="weight">400</property>
      <property name="style">normal</property>
      <property name="fgcolour">0x000000ff</property>
      <property name="bgcolour">#00000000</property>
      <property name="olcolour">0x00000000</property>
      <property name="pad">0</property>
      <property name="halign">left</property>
      <property name="valign">top</property>
      <property name="outline">0</property>
      <property name="pixel_ratio">1</property>
      <property name="mlt_service">qtext</property>
      <property name="shotcut:filter">richText</property>
      <property name="html">&lt;!DOCTYPE HTML PUBLIC &quot;-//W3C//DTD HTML 4.0//EN&quot; &quot;http://www.w3.org/TR/REC-html40/strict.dtd&quot;&gt;
&lt;html&gt;&lt;head&gt;&lt;meta name=&quot;qrichtext&quot; content=&quot;1&quot; /&gt;&lt;style type=&quot;text/css&quot;&gt;
p, li { white-space: pre-wrap; }
&lt;/style&gt;&lt;/head&gt;&lt;body style=&quot; font-family:'MS Shell Dlg 2'; font-size:8pt; font-weight:400; font-style:normal;&quot;&gt;
&lt;p style=&quot;-qt-paragraph-type:empty; margin-top:0px; margin-bottom:0px; margin-left:0px; margin-right:0px; -qt-block-indent:0; text-indent:0px; font-family:'Verdana'; font-size:72pt; font-weight:600; color:#ffffff;&quot;&gt;&lt;br /&gt;&lt;/p&gt;
&lt;p style=&quot;-qt-paragraph-type:empty; margin-top:0px; margin-bottom:0px; margin-left:0px; margin-right:0px; -qt-block-indent:0; text-indent:0px; font-family:'Verdana'; font-size:20pt; font-weight:600; color:#ffffff;&quot;&gt;&lt;br /&gt;&lt;/p&gt;
&lt;p style=&quot; margin-top:0px; margin-bottom:0px; margin-left:0px; margin-right:0px; -qt-block-indent:0; text-indent:0px;&quot;&gt;&lt;span style=&quot; font-family:'Verdana'; font-size:20pt; font-weight:600; color:#ffffff;&quot;&gt;that flick though&lt;/span&gt;&lt;/p&gt;&lt;/body&gt;&lt;/html&gt;</property>
      <property name="shotcut:animIn">00:00:00.000</property>
      <property name="shotcut:animOut">00:00:00.000</property>
    </filter>
  </producer>
  <producer id="producer55" in="00:00:00.000" out="03:59:59.983">
    <property name="length">04:00:00.000</property>
    <property name="eof">pause</property>
    <property name="resource">#00000000</property>
    <property name="aspect_ratio">1</property>
    <property name="mlt_service">color</property>
    <property name="mlt_image_format">rgba</property>
    <property name="shotcut:caption">transparent</property>
    <property name="shotcut:detail">transparent</property>
    <property name="ignore_points">0</property>
    <property name="xml">was here</property>
    <property name="seekable">1</property>
    <filter id="filter108" in="00:00:00.400" out="00:00:01.300">
      <property name="argument"></property>
      <property name="geometry">160 90 1280 720 1</property>
      <property name="family">Sans</property>
      <property name="size">48</property>
      <property name="weight">400</property>
      <property name="style">normal</property>
      <property name="fgcolour">0x000000ff</property>
      <property name="bgcolour">#00000000</property>
      <property name="olcolour">0x00000000</property>
      <property name="pad">0</property>
      <property name="halign">left</property>
      <property name="valign">top</property>
      <property name="outline">0</property>
      <property name="pixel_ratio">1</property>
      <property name="mlt_service">qtext</property>
      <property name="shotcut:filter">richText</property>
      <property name="html">&lt;!DOCTYPE HTML PUBLIC &quot;-//W3C//DTD HTML 4.0//EN&quot; &quot;http://www.w3.org/TR/REC-html40/strict.dtd&quot;&gt;
&lt;html&gt;&lt;head&gt;&lt;meta name=&quot;qrichtext&quot; content=&quot;1&quot; /&gt;&lt;style type=&quot;text/css&quot;&gt;
p, li { white-space: pre-wrap; }
&lt;/style&gt;&lt;/head&gt;&lt;body style=&quot; font-family:'MS Shell Dlg 2'; font-size:8pt; font-weight:400; font-style:normal;&quot;&gt;
&lt;p style=&quot; margin-top:0px; margin-bottom:0px; margin-left:0px; margin-right:0px; -qt-block-indent:0; text-indent:0px;&quot;&gt;&lt;span style=&quot; font-family:'Verdana'; font-size:25pt; font-weight:600; color:#ffffff;&quot;&gt;crap that's a lot of shanks&lt;/span&gt;&lt;/p&gt;&lt;/body&gt;&lt;/html&gt;</property>
      <property name="shotcut:animIn">00:00:00.000</property>
      <property name="shotcut:animOut">00:00:00.000</property>
    </filter>
  </producer>
  <producer id="producer56" in="00:00:00.000" out="03:59:59.983">
    <property name="length">04:00:00.000</property>
    <property name="eof">pause</property>
    <property name="resource">#00000000</property>
    <property name="aspect_ratio">1</property>
    <property name="mlt_service">color</property>
    <property name="mlt_image_format">rgba</property>
    <property name="shotcut:caption">transparent</property>
    <property name="shotcut:detail">transparent</property>
    <property name="ignore_points">0</property>
    <property name="xml">was here</property>
    <property name="seekable">1</property>
    <filter id="filter109" in="00:00:00.417" out="00:00:01.017">
      <property name="argument"></property>
      <property name="geometry">160 90 1280 720 1</property>
      <property name="family">Sans</property>
      <property name="size">48</property>
      <property name="weight">400</property>
      <property name="style">normal</property>
      <property name="fgcolour">0x000000ff</property>
      <property name="bgcolour">#00000000</property>
      <property name="olcolour">0x00000000</property>
      <property name="pad">0</property>
      <property name="halign">left</property>
      <property name="valign">top</property>
      <property name="outline">0</property>
      <property name="pixel_ratio">1</property>
      <property name="mlt_service">qtext</property>
      <property name="shotcut:filter">richText</property>
      <property name="html">&lt;!DOCTYPE HTML PUBLIC &quot;-//W3C//DTD HTML 4.0//EN&quot; &quot;http://www.w3.org/TR/REC-html40/strict.dtd&quot;&gt;
&lt;html&gt;&lt;head&gt;&lt;meta name=&quot;qrichtext&quot; content=&quot;1&quot; /&gt;&lt;style type=&quot;text/css&quot;&gt;
p, li { white-space: pre-wrap; }
&lt;/style&gt;&lt;/head&gt;&lt;body style=&quot; font-family:'MS Shell Dlg 2'; font-size:8pt; font-weight:400; font-style:normal;&quot;&gt;
&lt;p style=&quot; margin-top:0px; margin-bottom:0px; margin-left:0px; margin-right:0px; -qt-block-indent:0; text-indent:0px;&quot;&gt;&lt;span style=&quot; font-family:'Verdana'; font-size:36pt; font-weight:600; color:#ffffff;&quot;&gt;OW&lt;/span&gt;&lt;/p&gt;&lt;/body&gt;&lt;/html&gt;</property>
      <property name="shotcut:animIn">00:00:00.000</property>
      <property name="shotcut:animOut">00:00:00.000</property>
    </filter>
  </producer>
  <producer id="producer57" in="00:00:00.000" out="03:59:59.983">
    <property name="length">04:00:00.000</property>
    <property name="eof">pause</property>
    <property name="resource">#00000000</property>
    <property name="aspect_ratio">1</property>
    <property name="mlt_service">color</property>
    <property name="mlt_image_format">rgba</property>
    <property name="shotcut:caption">transparent</property>
    <property name="shotcut:detail">transparent</property>
    <property name="ignore_points">0</property>
    <property name="xml">was here</property>
    <property name="seekable">1</property>
    <filter id="filter110" out="00:00:02.633">
      <property name="argument"></property>
      <property name="geometry">55 59 441 343 1</property>
      <property name="family">Sans</property>
      <property name="size">48</property>
      <property name="weight">400</property>
      <property name="style">normal</property>
      <property name="fgcolour">0x000000ff</property>
      <property name="bgcolour">#00000000</property>
      <property name="olcolour">0x00000000</property>
      <property name="pad">0</property>
      <property name="halign">left</property>
      <property name="valign">top</property>
      <property name="outline">0</property>
      <property name="pixel_ratio">1</property>
      <property name="mlt_service">qtext</property>
      <property name="shotcut:filter">richText</property>
      <property name="html">&lt;!DOCTYPE HTML PUBLIC &quot;-//W3C//DTD HTML 4.0//EN&quot; &quot;http://www.w3.org/TR/REC-html40/strict.dtd&quot;&gt;
&lt;html&gt;&lt;head&gt;&lt;meta name=&quot;qrichtext&quot; content=&quot;1&quot; /&gt;&lt;style type=&quot;text/css&quot;&gt;
p, li { white-space: pre-wrap; }
&lt;/style&gt;&lt;/head&gt;&lt;body style=&quot; font-family:'MS Shell Dlg 2'; font-size:8pt; font-weight:400; font-style:normal;&quot;&gt;
&lt;p style=&quot; margin-top:0px; margin-bottom:0px; margin-left:0px; margin-right:0px; -qt-block-indent:0; text-indent:0px;&quot;&gt;&lt;a name=&quot;docs-internal-guid-3958aaf8-7fff-9951-5c04-5c18b0ad458b&quot;&gt;&lt;/a&gt;&lt;span style=&quot; font-family:'Cambria'; font-size:36pt; color:#ffffff; background-color:transparent;&quot;&gt;n&lt;/span&gt;&lt;span style=&quot; font-family:'Cambria'; font-size:36pt; color:#ffffff; background-color:transparent;&quot;&gt;ew raid boss = lost sector servitor 2021 confirmed&lt;/span&gt;&lt;/p&gt;&lt;/body&gt;&lt;/html&gt;</property>
      <property name="shotcut:animIn">00:00:00.000</property>
      <property name="shotcut:animOut">00:00:00.000</property>
    </filter>
    <filter id="filter111" out="00:00:02.633">
      <property name="background">color:#00000000</property>
      <property name="mlt_service">affine</property>
      <property name="shotcut:filter">affineSizePosition</property>
      <property name="transition.fill">1</property>
      <property name="transition.distort">0</property>
      <property name="transition.rect">00:00:00.000=640 360 320 180 1;00:00:01.333=80.367 -28.0734 3520 1980 1</property>
      <property name="transition.valign">middle</property>
      <property name="transition.halign">center</property>
      <property name="shotcut:animIn">00:00:00.000</property>
      <property name="shotcut:animOut">00:00:00.000</property>
      <property name="transition.threads">0</property>
    </filter>
  </producer>
  <producer id="producer58" in="00:00:00.000" out="03:59:59.983">
    <property name="length">04:00:00.000</property>
    <property name="eof">pause</property>
    <property name="resource">#00000000</property>
    <property name="aspect_ratio">1</property>
    <property name="mlt_service">color</property>
    <property name="mlt_image_format">rgba</property>
    <property name="shotcut:caption">transparent</property>
    <property name="shotcut:detail">transparent</property>
    <property name="ignore_points">0</property>
    <property name="xml">was here</property>
    <property name="seekable">1</property>
  </producer>
  <producer id="producer59" in="00:00:00.000" out="03:59:59.983">
    <property name="length">04:00:00.000</property>
    <property name="eof">pause</property>
    <property name="resource">#00000000</property>
    <property name="aspect_ratio">1</property>
    <property name="mlt_service">color</property>
    <property name="mlt_image_format">rgba</property>
    <property name="shotcut:caption">transparent</property>
    <property name="shotcut:detail">transparent</property>
    <property name="ignore_points">0</property>
    <property name="xml">was here</property>
    <property name="seekable">1</property>
  </producer>
  <producer id="producer60" in="00:00:00.000" out="03:59:59.983">
    <property name="length">04:00:00.000</property>
    <property name="eof">pause</property>
    <property name="resource">#00000000</property>
    <property name="aspect_ratio">1</property>
    <property name="mlt_service">color</property>
    <property name="mlt_image_format">rgba</property>
    <property name="shotcut:caption">transparent</property>
    <property name="shotcut:detail">transparent</property>
    <property name="ignore_points">0</property>
    <property name="xml">was here</property>
    <property name="seekable">1</property>
    <filter id="filter112" in="00:00:00.283" out="00:00:13.733">
      <property name="argument"></property>
      <property name="geometry">00:00:00.000=160/900:1280x10000;00:00:13.450=160/-3005:1280x10000</property>
      <property name="family">Sans</property>
      <property name="size">48</property>
      <property name="weight">400</property>
      <property name="style">normal</property>
      <property name="fgcolour">0x000000ff</property>
      <property name="bgcolour">#00000000</property>
      <property name="olcolour">0x00000000</property>
      <property name="pad">0</property>
      <property name="halign">left</property>
      <property name="valign">top</property>
      <property name="outline">0</property>
      <property name="pixel_ratio">1</property>
      <property name="mlt_service">qtext</property>
      <property name="shotcut:filter">richText</property>
      <property name="html">&lt;!DOCTYPE HTML PUBLIC &quot;-//W3C//DTD HTML 4.0//EN&quot; &quot;http://www.w3.org/TR/REC-html40/strict.dtd&quot;&gt;
&lt;html&gt;&lt;head&gt;&lt;meta name=&quot;qrichtext&quot; content=&quot;1&quot; /&gt;&lt;style type=&quot;text/css&quot;&gt;
p, li { white-space: pre-wrap; }
&lt;/style&gt;&lt;/head&gt;&lt;body style=&quot; font-family:'MS Shell Dlg 2'; font-size:8pt; font-weight:400; font-style:normal;&quot;&gt;
&lt;p align=&quot;center&quot; style=&quot; margin-top:0px; margin-bottom:0px; margin-left:0px; margin-right:0px; -qt-block-indent:0; text-indent:0px;&quot;&gt;&lt;span style=&quot; font-family:'Cambria'; font-size:32pt;&quot;&gt;Credits&lt;/span&gt;&lt;/p&gt;
&lt;p align=&quot;center&quot; style=&quot;-qt-paragraph-type:empty; margin-top:0px; margin-bottom:0px; margin-left:0px; margin-right:0px; -qt-block-indent:0; text-indent:0px; font-family:'Cambria'; font-size:32pt;&quot;&gt;&lt;br /&gt;&lt;/p&gt;
&lt;p align=&quot;center&quot; style=&quot;-qt-paragraph-type:empty; margin-top:0px; margin-bottom:0px; margin-left:0px; margin-right:0px; -qt-block-indent:0; text-indent:0px; font-family:'Cambria'; font-size:32pt;&quot;&gt;&lt;br /&gt;&lt;/p&gt;
&lt;p align=&quot;center&quot; style=&quot;-qt-paragraph-type:empty; margin-top:0px; margin-bottom:0px; margin-left:0px; margin-right:0px; -qt-block-indent:0; text-indent:0px; font-family:'Cambria'; font-size:32pt;&quot;&gt;&lt;br /&gt;&lt;/p&gt;
&lt;p align=&quot;center&quot; style=&quot; margin-top:0px; margin-bottom:0px; margin-left:0px; margin-right:0px; -qt-block-indent:0; text-indent:0px;&quot;&gt;&lt;span style=&quot; font-family:'Cambria'; font-size:32pt; font-weight:600;&quot;&gt;Created By&lt;/span&gt;&lt;/p&gt;
&lt;p align=&quot;center&quot; style=&quot; margin-top:0px; margin-bottom:0px; margin-left:0px; margin-right:0px; -qt-block-indent:0; text-indent:0px;&quot;&gt;&lt;span style=&quot; font-family:'Cambria'; font-size:32pt;&quot;&gt;Raiyan Lynch&lt;/span&gt;&lt;/p&gt;
&lt;p align=&quot;center&quot; style=&quot;-qt-paragraph-type:empty; margin-top:0px; margin-bottom:0px; margin-left:0px; margin-right:0px; -qt-block-indent:0; text-indent:0px; font-family:'Cambria'; font-size:32pt;&quot;&gt;&lt;br /&gt;&lt;/p&gt;
&lt;p align=&quot;center&quot; style=&quot; margin-top:0px; margin-bottom:0px; margin-left:0px; margin-right:0px; -qt-block-indent:0; text-indent:0px;&quot;&gt;&lt;span style=&quot; font-family:'Cambria'; font-size:32pt; font-weight:600;&quot;&gt;Directed By&lt;/span&gt;&lt;/p&gt;
&lt;p align=&quot;center&quot; style=&quot; margin-top:0px; margin-bottom:0px; margin-left:0px; margin-right:0px; -qt-block-indent:0; text-indent:0px;&quot;&gt;&lt;span style=&quot; font-family:'Cambria'; font-size:32pt;&quot;&gt;Raiyan Lynch&lt;/span&gt;&lt;/p&gt;
&lt;p align=&quot;center&quot; style=&quot;-qt-paragraph-type:empty; margin-top:0px; margin-bottom:0px; margin-left:0px; margin-right:0px; -qt-block-indent:0; text-indent:0px; font-family:'Cambria'; font-size:32pt;&quot;&gt;&lt;br /&gt;&lt;/p&gt;
&lt;p align=&quot;center&quot; style=&quot; margin-top:0px; margin-bottom:0px; margin-left:0px; margin-right:0px; -qt-block-indent:0; text-indent:0px;&quot;&gt;&lt;span style=&quot; font-family:'Cambria'; font-size:32pt; font-weight:600;&quot;&gt;Produced By&lt;/span&gt;&lt;/p&gt;
&lt;p align=&quot;center&quot; style=&quot; margin-top:0px; margin-bottom:0px; margin-left:0px; margin-right:0px; -qt-block-indent:0; text-indent:0px;&quot;&gt;&lt;span style=&quot; font-family:'Cambria'; font-size:32pt;&quot;&gt;Raiyan Lynch&lt;/span&gt;&lt;/p&gt;
&lt;p align=&quot;center&quot; style=&quot;-qt-paragraph-type:empty; margin-top:0px; margin-bottom:0px; margin-left:0px; margin-right:0px; -qt-block-indent:0; text-indent:0px; font-family:'Cambria'; font-size:32pt;&quot;&gt;&lt;br /&gt;&lt;/p&gt;
&lt;p align=&quot;center&quot; style=&quot; margin-top:0px; margin-bottom:0px; margin-left:0px; margin-right:0px; -qt-block-indent:0; text-indent:0px;&quot;&gt;&lt;span style=&quot; font-family:'Cambria'; font-size:32pt; font-weight:600;&quot;&gt;Player&lt;/span&gt;&lt;/p&gt;
&lt;p align=&quot;center&quot; style=&quot; margin-top:0px; margin-bottom:0px; margin-left:0px; margin-right:0px; -qt-block-indent:0; text-indent:0px;&quot;&gt;&lt;span style=&quot; font-family:'Cambria'; font-size:32pt;&quot;&gt;Raiyan Lynch&lt;/span&gt;&lt;/p&gt;
&lt;p align=&quot;center&quot; style=&quot;-qt-paragraph-type:empty; margin-top:0px; margin-bottom:0px; margin-left:0px; margin-right:0px; -qt-block-indent:0; text-indent:0px; font-family:'Cambria'; font-size:32pt;&quot;&gt;&lt;br /&gt;&lt;/p&gt;
&lt;p align=&quot;center&quot; style=&quot; margin-top:0px; margin-bottom:0px; margin-left:0px; margin-right:0px; -qt-block-indent:0; text-indent:0px;&quot;&gt;&lt;span style=&quot; font-family:'Cambria'; font-size:32pt; font-weight:600;&quot;&gt;Boss Servitor&lt;/span&gt;&lt;/p&gt;
&lt;p align=&quot;center&quot; style=&quot; margin-top:0px; margin-bottom:0px; margin-left:0px; margin-right:0px; -qt-block-indent:0; text-indent:0px;&quot;&gt;&lt;span style=&quot; font-family:'Cambria'; font-size:32pt;&quot;&gt;Himself&lt;/span&gt;&lt;/p&gt;
&lt;p align=&quot;center&quot; style=&quot;-qt-paragraph-type:empty; margin-top:0px; margin-bottom:0px; margin-left:0px; margin-right:0px; -qt-block-indent:0; text-indent:0px; font-family:'Cambria'; font-size:32pt;&quot;&gt;&lt;br /&gt;&lt;/p&gt;
&lt;p align=&quot;center&quot; style=&quot; margin-top:0px; margin-bottom:0px; margin-left:0px; margin-right:0px; -qt-block-indent:0; text-indent:0px;&quot;&gt;&lt;span style=&quot; font-family:'Cambria'; font-size:32pt; font-weight:600;&quot;&gt;Cinematographer&lt;/span&gt;&lt;/p&gt;
&lt;p align=&quot;center&quot; style=&quot; margin-top:0px; margin-bottom:0px; margin-left:0px; margin-right:0px; -qt-block-indent:0; text-indent:0px;&quot;&gt;&lt;span style=&quot; font-family:'Cambria'; font-size:32pt;&quot;&gt;Raiyan Lynch&lt;/span&gt;&lt;/p&gt;
&lt;p align=&quot;center&quot; style=&quot;-qt-paragraph-type:empty; margin-top:0px; margin-bottom:0px; margin-left:0px; margin-right:0px; -qt-block-indent:0; text-indent:0px; font-family:'Cambria'; font-size:32pt;&quot;&gt;&lt;br /&gt;&lt;/p&gt;
&lt;p align=&quot;center&quot; style=&quot; margin-top:0px; margin-bottom:0px; margin-left:0px; margin-right:0px; -qt-block-indent:0; text-indent:0px;&quot;&gt;&lt;span style=&quot; font-family:'Cambria'; font-size:32pt; font-weight:600;&quot;&gt;General Busybody&lt;/span&gt;&lt;/p&gt;
&lt;p align=&quot;center&quot; style=&quot; margin-top:0px; margin-bottom:0px; margin-left:0px; margin-right:0px; -qt-block-indent:0; text-indent:0px;&quot;&gt;&lt;span style=&quot; font-family:'Cambria'; font-size:32pt;&quot;&gt;Dan Lynch&lt;/span&gt;&lt;/p&gt;
&lt;p align=&quot;center&quot; style=&quot;-qt-paragraph-type:empty; margin-top:0px; margin-bottom:0px; margin-left:0px; margin-right:0px; -qt-block-indent:0; text-indent:0px; font-family:'Cambria'; font-size:32pt;&quot;&gt;&lt;br /&gt;&lt;/p&gt;
&lt;p align=&quot;center&quot; style=&quot; margin-top:0px; margin-bottom:0px; margin-left:0px; margin-right:0px; -qt-block-indent:0; text-indent:0px;&quot;&gt;&lt;span style=&quot; font-family:'Cambria'; font-size:32pt; font-weight:600;&quot;&gt;Caterer&lt;/span&gt;&lt;/p&gt;
&lt;p align=&quot;center&quot; style=&quot; margin-top:0px; margin-bottom:0px; margin-left:0px; margin-right:0px; -qt-block-indent:0; text-indent:0px;&quot;&gt;&lt;span style=&quot; font-family:'Cambria'; font-size:32pt;&quot;&gt;Susnita Lynch&lt;/span&gt;&lt;/p&gt;
&lt;p align=&quot;center&quot; style=&quot;-qt-paragraph-type:empty; margin-top:0px; margin-bottom:0px; margin-left:0px; margin-right:0px; -qt-block-indent:0; text-indent:0px; font-family:'Cambria'; font-size:32pt;&quot;&gt;&lt;br /&gt;&lt;/p&gt;
&lt;p align=&quot;center&quot; style=&quot; margin-top:0px; margin-bottom:0px; margin-left:0px; margin-right:0px; -qt-block-indent:0; text-indent:0px;&quot;&gt;&lt;span style=&quot; font-family:'Cambria'; font-size:32pt; font-weight:600;&quot;&gt;Brother&lt;/span&gt;&lt;/p&gt;
&lt;p align=&quot;center&quot; style=&quot; margin-top:0px; margin-bottom:0px; margin-left:0px; margin-right:0px; -qt-block-indent:0; text-indent:0px;&quot;&gt;&lt;span style=&quot; font-family:'Cambria'; font-size:32pt;&quot;&gt;Arun Lynch&lt;/span&gt;&lt;/p&gt;
&lt;p align=&quot;center&quot; style=&quot;-qt-paragraph-type:empty; margin-top:0px; margin-bottom:0px; margin-left:0px; margin-right:0px; -qt-block-indent:0; text-indent:0px; font-family:'Cambria'; font-size:32pt;&quot;&gt;&lt;br /&gt;&lt;/p&gt;
&lt;p align=&quot;center&quot; style=&quot; margin-top:0px; margin-bottom:0px; margin-left:0px; margin-right:0px; -qt-block-indent:0; text-indent:0px;&quot;&gt;&lt;span style=&quot; font-family:'Cambria'; font-size:32pt; font-weight:600;&quot;&gt;Cuddly Buddy&lt;/span&gt;&lt;/p&gt;
&lt;p align=&quot;center&quot; style=&quot; margin-top:0px; margin-bottom:0px; margin-left:0px; margin-right:0px; -qt-block-indent:0; text-indent:0px;&quot;&gt;&lt;span style=&quot; font-family:'Cambria'; font-size:32pt;&quot;&gt;Jasper Lynch (The Dog)&lt;/span&gt;&lt;/p&gt;
&lt;p align=&quot;center&quot; style=&quot;-qt-paragraph-type:empty; margin-top:0px; margin-bottom:0px; margin-left:0px; margin-right:0px; -qt-block-indent:0; text-indent:0px; font-family:'Cambria'; font-size:32pt;&quot;&gt;&lt;br /&gt;&lt;/p&gt;
&lt;p align=&quot;center&quot; style=&quot;-qt-paragraph-type:empty; margin-top:0px; margin-bottom:0px; margin-left:0px; margin-right:0px; -qt-block-indent:0; text-indent:0px; font-family:'Cambria'; font-size:32pt;&quot;&gt;&lt;br /&gt;&lt;/p&gt;
&lt;p align=&quot;center&quot; style=&quot;-qt-paragraph-type:empty; margin-top:0px; margin-bottom:0px; margin-left:0px; margin-right:0px; -qt-block-indent:0; text-indent:0px; font-family:'Cambria'; font-size:32pt;&quot;&gt;&lt;br /&gt;&lt;/p&gt;
&lt;p align=&quot;center&quot; style=&quot; margin-top:0px; margin-bottom:0px; margin-left:0px; margin-right:0px; -qt-block-indent:0; text-indent:0px;&quot;&gt;&lt;span style=&quot; font-family:'Cambria'; font-size:20pt; font-style:italic;&quot;&gt;Many Fallen vandals were harmed in the making of this video.&lt;/span&gt;&lt;/p&gt;
&lt;p align=&quot;center&quot; style=&quot;-qt-paragraph-type:empty; margin-top:0px; margin-bottom:0px; margin-left:0px; margin-right:0px; -qt-block-indent:0; text-indent:0px; font-family:'Cambria'; font-size:32pt;&quot;&gt;&lt;br /&gt;&lt;/p&gt;
&lt;p align=&quot;center&quot; style=&quot;-qt-paragraph-type:empty; margin-top:0px; margin-bottom:0px; margin-left:0px; margin-right:0px; -qt-block-indent:0; text-indent:0px; font-family:'Cambria'; font-size:32pt;&quot;&gt;&lt;br /&gt;&lt;/p&gt;
&lt;p style=&quot; margin-top:0px; margin-bottom:0px; margin-left:0px; margin-right:0px; -qt-block-indent:0; text-indent:0px;&quot;&gt;&lt;span style=&quot; font-family:'Cambria'; font-size:15pt;&quot;&gt;This is a work of fiction. Names, characters, places and incidents either are products of the author’s imagination or are used fictitiously. Any resemblance to actual events or locales or persons, living or dead, is entirely intentional.&lt;/span&gt;&lt;/p&gt;&lt;/body&gt;&lt;/html&gt;</property>
      <property name="shotcut:animIn">00:00:13.467</property>
      <property name="shotcut:animOut">00:00:00.000</property>
      <property name="shotcut:preset">scroll-up</property>
    </filter>
  </producer>
  <playlist id="playlist6">
    <property name="shotcut:video">1</property>
    <property name="shotcut:name">Text</property>
    <entry producer="producer18" in="00:00:00.000" out="00:00:02.800"/>
    <entry producer="tractor0" in="00:00:00.000" out="00:00:00.167"/>
    <entry producer="producer19" in="00:00:03.183" out="00:00:06.150"/>
    <blank length="00:00:18.283"/>
    <entry producer="producer20" in="00:00:00.000" out="00:00:07.050"/>
    <entry producer="tractor1" in="00:00:00.000" out="00:00:00.383"/>
    <entry producer="producer21" in="00:00:00.467" out="00:00:04.800"/>
    <blank length="00:00:03.483"/>
    <entry producer="producer22" in="00:00:00.000" out="00:00:03.983"/>
    <blank length="00:00:04.117"/>
    <entry producer="producer23" in="00:00:00.000" out="00:00:03.600"/>
    <blank length="00:00:02.633"/>
    <entry producer="producer24" in="00:00:02.050" out="00:00:03.633"/>
    <blank length="00:00:04.483"/>
    <entry producer="producer25" in="00:00:00.000" out="00:00:20.817"/>
    <entry producer="producer26" in="00:00:00.000" out="00:00:03.733"/>
    <entry producer="producer27" in="00:00:00.000" out="00:00:00.983"/>
    <entry producer="producer28" in="00:00:01.000" out="00:00:01.983"/>
    <entry producer="producer29" in="00:00:02.533" out="00:00:02.983"/>
    <entry producer="producer30" in="00:00:02.000" out="00:00:02.983"/>
    <blank length="00:00:12.433"/>
    <entry producer="producer31" in="00:00:01.817" out="00:00:03.300"/>
    <blank length="00:00:03.950"/>
    <entry producer="producer32" in="00:00:00.000" out="00:00:01.617"/>
    <blank length="00:00:04.967"/>
    <entry producer="producer33" in="00:00:00.000" out="00:00:00.317"/>
    <blank length="00:00:17.350"/>
    <entry producer="producer34" in="00:00:00.000" out="00:00:01.083"/>
    <blank length="00:00:04.183"/>
    <entry producer="producer35" in="00:00:00.000" out="00:00:01.033"/>
    <entry producer="producer36" in="00:00:01.050" out="00:00:02.033"/>
    <entry producer="producer37" in="00:00:02.050" out="00:00:02.917"/>
    <blank length="00:00:08.700"/>
    <entry producer="producer38" in="00:00:00.000" out="00:00:01.233"/>
    <blank length="00:00:05.067"/>
    <entry producer="producer39" in="00:00:00.000" out="00:00:07.550"/>
    <blank length="00:00:16.033"/>
    <entry producer="producer44" in="00:00:00.000" out="00:00:03.983"/>
    <blank length="00:00:12.167"/>
    <entry producer="producer40" in="00:00:00.000" out="00:00:03.933"/>
    <entry producer="tractor2" in="00:00:00.000" out="00:00:00.033"/>
    <entry producer="producer41" in="00:00:00.050" out="00:00:02.433"/>
    <blank length="00:00:06.967"/>
    <entry producer="producer42" in="00:00:00.000" out="00:00:03.983"/>
    <blank length="00:00:26.667"/>
    <entry producer="producer43" in="00:00:00.000" out="00:00:04.250"/>
    <entry producer="producer45" in="00:00:04.267" out="00:00:06.300"/>
    <entry producer="producer46" in="00:00:00.000" out="00:00:03.983"/>
    <blank length="00:00:18.350"/>
    <entry producer="producer47" in="00:00:00.000" out="00:00:02.883"/>
    <blank length="00:00:15.350"/>
    <entry producer="producer48" in="00:00:00.000" out="00:00:00.633"/>
    <blank length="00:01:07.600"/>
    <entry producer="producer49" in="00:00:00.000" out="00:00:03.983"/>
    <blank length="00:00:20.667"/>
    <entry producer="producer50" in="00:00:00.000" out="00:00:01.017"/>
    <entry producer="producer51" in="00:00:01.033" out="00:00:02.050"/>
    <entry producer="producer52" in="00:00:02.067" out="00:00:02.783"/>
    <blank length="00:00:22.883"/>
    <entry producer="producer53" in="00:00:00.667" out="00:00:00.917"/>
    <blank length="00:00:03.567"/>
    <entry producer="producer54" in="00:00:00.000" out="00:00:00.267"/>
    <blank length="00:00:04.867"/>
    <entry producer="producer55" in="00:00:00.400" out="00:00:01.300"/>
    <blank length="00:00:05.567"/>
    <entry producer="producer56" in="00:00:00.417" out="00:00:01.017"/>
    <blank length="00:12:39.317"/>
    <entry producer="producer57" in="00:00:00.000" out="00:00:02.633"/>
    <entry producer="producer58" in="00:00:02.650" out="00:00:03.067"/>
    <entry producer="producer59" in="00:00:03.083" out="00:00:05.633"/>
    <blank length="00:00:53.583"/>
    <entry producer="producer60" in="00:00:00.283" out="00:00:13.733"/>
  </playlist>
  <chain id="chain130" out="00:02:09.667">
    <property name="length">00:02:09.683</property>
    <property name="eof">pause</property>
    <property name="resource">D:/Videos/Projects/Destiny/Addins/monster's inc theme.mp4</property>
    <property name="mlt_service">avformat-novalidate</property>
    <property name="seekable">1</property>
    <property name="audio_index">1</property>
    <property name="video_index">0</property>
    <property name="mute_on_pause">0</property>
    <property name="xml">was here</property>
    <property name="shotcut:hash">70a2bbcd3897732939c2e306c2a93a9a</property>
    <property name="shotcut:caption">monster's inc theme.mp4</property>
    <filter id="filter113" out="00:01:20.817">
      <property name="window">75</property>
      <property name="max_gain">20dB</property>
      <property name="level">00:01:19.500=0;00:01:20.817=-60</property>
      <property name="mlt_service">volume</property>
      <property name="shotcut:filter">fadeOutVolume</property>
      <property name="shotcut:animOut">00:00:01.333</property>
    </filter>
    <filter id="filter114" out="00:01:20.817">
      <property name="window">75</property>
      <property name="max_gain">20dB</property>
      <property name="level">-8.9</property>
      <property name="mlt_service">volume</property>
    </filter>
  </chain>
  <chain id="chain131" out="00:02:09.667">
    <property name="length">00:02:09.683</property>
    <property name="eof">pause</property>
    <property name="resource">D:/Videos/Projects/Destiny/Addins/monster's inc theme.mp4</property>
    <property name="mlt_service">avformat-novalidate</property>
    <property name="seekable">1</property>
    <property name="audio_index">1</property>
    <property name="video_index">0</property>
    <property name="mute_on_pause">0</property>
    <property name="xml">was here</property>
    <property name="shotcut:hash">70a2bbcd3897732939c2e306c2a93a9a</property>
    <property name="shotcut:caption">monster's inc theme.mp4</property>
    <filter id="filter115" in="00:01:20.833" out="00:02:09.667">
      <property name="window">75</property>
      <property name="max_gain">20dB</property>
      <property name="level">00:00:00.000=-60;00:00:00.483=0</property>
      <property name="mlt_service">volume</property>
      <property name="shotcut:filter">fadeInVolume</property>
      <property name="shotcut:animIn">00:00:00.500</property>
    </filter>
  </chain>
  <chain id="chain132" out="00:03:29.083">
    <property name="length">00:03:29.100</property>
    <property name="eof">pause</property>
    <property name="resource">D:/Videos/Projects/Destiny/Addins/montage music- wow wow.mp4</property>
    <property name="mlt_service">avformat-novalidate</property>
    <property name="seekable">1</property>
    <property name="audio_index">1</property>
    <property name="video_index">0</property>
    <property name="mute_on_pause">0</property>
    <property name="xml">was here</property>
    <property name="shotcut:hash">63325924570260ddf9332b1aab4d8db9</property>
    <property name="ignore_points">0</property>
    <property name="shotcut:caption">montage music- wow wow.mp4</property>
    <filter id="filter116" out="00:00:24.650">
      <property name="window">75</property>
      <property name="max_gain">20dB</property>
      <property name="level">-7.6</property>
      <property name="mlt_service">volume</property>
    </filter>
    <filter id="filter117" out="00:00:24.650">
      <property name="window">75</property>
      <property name="max_gain">20dB</property>
      <property name="level">00:00:24.167=0;00:00:24.650=-60</property>
      <property name="mlt_service">volume</property>
      <property name="shotcut:filter">fadeOutVolume</property>
      <property name="shotcut:animOut">00:00:00.500</property>
    </filter>
  </chain>
  <chain id="chain133" out="00:03:29.083">
    <property name="length">00:03:29.100</property>
    <property name="eof">pause</property>
    <property name="resource">D:/Videos/Projects/Destiny/Addins/montage music- wow wow.mp4</property>
    <property name="mlt_service">avformat-novalidate</property>
    <property name="seekable">1</property>
    <property name="audio_index">1</property>
    <property name="video_index">0</property>
    <property name="mute_on_pause">0</property>
    <property name="xml">was here</property>
    <property name="shotcut:hash">63325924570260ddf9332b1aab4d8db9</property>
    <property name="ignore_points">0</property>
    <property name="shotcut:caption">montage music- wow wow.mp4</property>
    <filter id="filter118" in="00:00:24.667" out="00:00:39.533">
      <property name="window">75</property>
      <property name="max_gain">20dB</property>
      <property name="level">-7.6</property>
      <property name="mlt_service">volume</property>
    </filter>
    <filter id="filter119" in="00:00:24.667" out="00:00:39.533">
      <property name="window">75</property>
      <property name="max_gain">20dB</property>
      <property name="level">00:00:00.000=-60;00:00:00.483=0</property>
      <property name="mlt_service">volume</property>
      <property name="shotcut:filter">fadeInVolume</property>
      <property name="shotcut:animIn">00:00:00.500</property>
    </filter>
    <filter id="filter120" in="00:00:24.667" out="00:00:39.533">
      <property name="window">75</property>
      <property name="max_gain">20dB</property>
      <property name="level">00:00:14.383=0;00:00:14.867=-60</property>
      <property name="mlt_service">volume</property>
      <property name="shotcut:filter">fadeOutVolume</property>
      <property name="shotcut:animOut">00:00:00.500</property>
    </filter>
  </chain>
  <chain id="chain134" out="00:03:29.083">
    <property name="length">00:03:29.100</property>
    <property name="eof">pause</property>
    <property name="resource">D:/Videos/Projects/Destiny/Addins/montage music- wow wow.mp4</property>
    <property name="mlt_service">avformat-novalidate</property>
    <property name="seekable">1</property>
    <property name="audio_index">1</property>
    <property name="video_index">0</property>
    <property name="mute_on_pause">0</property>
    <property name="xml">was here</property>
    <property name="shotcut:hash">63325924570260ddf9332b1aab4d8db9</property>
    <property name="ignore_points">0</property>
    <property name="shotcut:caption">montage music- wow wow.mp4</property>
    <filter id="filter121" in="00:00:45.467" out="00:00:47.000">
      <property name="window">75</property>
      <property name="max_gain">20dB</property>
      <property name="level">-7.6</property>
      <property name="mlt_service">volume</property>
    </filter>
    <filter id="filter122" in="00:00:43.717" out="00:00:47.000">
      <property name="window">75</property>
      <property name="max_gain">20dB</property>
      <property name="level">00:00:00.000=-60;00:00:01.317=0</property>
      <property name="mlt_service">volume</property>
      <property name="shotcut:filter">fadeInVolume</property>
      <property name="shotcut:animIn">00:00:01.333</property>
    </filter>
    <filter id="filter123" in="00:00:43.717" out="00:00:47.000">
      <property name="window">75</property>
      <property name="max_gain">20dB</property>
      <property name="level">00:00:03.300=</property>
      <property name="mlt_service">volume</property>
      <property name="shotcut:filter">fadeOutVolume</property>
      <property name="shotcut:animOut">00:00:00.500</property>
    </filter>
  </chain>
  <chain id="chain135" out="00:03:29.083">
    <property name="length">00:03:29.100</property>
    <property name="eof">pause</property>
    <property name="resource">D:/Videos/Projects/Destiny/Addins/montage music- wow wow.mp4</property>
    <property name="mlt_service">avformat-novalidate</property>
    <property name="seekable">1</property>
    <property name="audio_index">1</property>
    <property name="video_index">0</property>
    <property name="mute_on_pause">0</property>
    <property name="xml">was here</property>
    <property name="shotcut:hash">63325924570260ddf9332b1aab4d8db9</property>
    <property name="ignore_points">0</property>
    <property name="shotcut:caption">montage music- wow wow.mp4</property>
    <filter id="filter124" in="00:00:45.467" out="00:02:04.000">
      <property name="window">75</property>
      <property name="max_gain">20dB</property>
      <property name="level">-7.6</property>
      <property name="mlt_service">volume</property>
    </filter>
    <filter id="filter125" in="00:00:47.017" out="00:02:04.000">
      <property name="window">75</property>
      <property name="max_gain">20dB</property>
      <property name="level">00:00:00.000=-60;00:00:00.483=0</property>
      <property name="mlt_service">volume</property>
      <property name="shotcut:filter">fadeInVolume</property>
      <property name="shotcut:animIn">00:00:00.500</property>
    </filter>
  </chain>
  <chain id="chain136" out="00:03:29.083">
    <property name="length">00:03:29.100</property>
    <property name="eof">pause</property>
    <property name="resource">D:/Videos/Projects/Destiny/Addins/montage music- wow wow.mp4</property>
    <property name="mlt_service">avformat-novalidate</property>
    <property name="seekable">1</property>
    <property name="audio_index">1</property>
    <property name="video_index">0</property>
    <property name="mute_on_pause">0</property>
    <property name="xml">was here</property>
    <property name="shotcut:hash">63325924570260ddf9332b1aab4d8db9</property>
    <property name="ignore_points">0</property>
    <property name="shotcut:caption">montage music- wow wow.mp4</property>
    <filter id="filter126" in="00:02:04.017" out="00:02:04.433">
      <property name="window">75</property>
      <property name="max_gain">20dB</property>
      <property name="level">-7.6</property>
      <property name="mlt_service">volume</property>
    </filter>
    <filter id="filter127" in="00:02:04.017" out="00:02:04.433">
      <property name="window">75</property>
      <property name="max_gain">20dB</property>
      <property name="level">12.5</property>
      <property name="mlt_service">volume</property>
    </filter>
  </chain>
  <chain id="chain137" out="00:03:29.083">
    <property name="length">00:03:29.100</property>
    <property name="eof">pause</property>
    <property name="resource">D:/Videos/Projects/Destiny/Addins/montage music- wow wow.mp4</property>
    <property name="mlt_service">avformat-novalidate</property>
    <property name="seekable">1</property>
    <property name="audio_index">1</property>
    <property name="video_index">0</property>
    <property name="mute_on_pause">0</property>
    <property name="xml">was here</property>
    <property name="shotcut:hash">63325924570260ddf9332b1aab4d8db9</property>
    <property name="ignore_points">0</property>
    <property name="shotcut:caption">montage music- wow wow.mp4</property>
    <filter id="filter128" in="00:02:04.450" out="00:02:05.233">
      <property name="window">75</property>
      <property name="max_gain">20dB</property>
      <property name="level">-7.6</property>
      <property name="mlt_service">volume</property>
    </filter>
  </chain>
  <chain id="chain138" out="00:03:29.083">
    <property name="length">00:03:29.100</property>
    <property name="eof">pause</property>
    <property name="resource">D:/Videos/Projects/Destiny/Addins/montage music- wow wow.mp4</property>
    <property name="mlt_service">avformat-novalidate</property>
    <property name="seekable">1</property>
    <property name="audio_index">1</property>
    <property name="video_index">0</property>
    <property name="mute_on_pause">0</property>
    <property name="xml">was here</property>
    <property name="shotcut:hash">63325924570260ddf9332b1aab4d8db9</property>
    <property name="ignore_points">0</property>
    <property name="shotcut:caption">montage music- wow wow.mp4</property>
    <filter id="filter129" in="00:02:05.250" out="00:02:06.167">
      <property name="window">75</property>
      <property name="max_gain">20dB</property>
      <property name="level">2.9</property>
      <property name="mlt_service">volume</property>
    </filter>
  </chain>
  <chain id="chain139" out="00:03:29.083">
    <property name="length">00:03:29.100</property>
    <property name="eof">pause</property>
    <property name="resource">D:/Videos/Projects/Destiny/Addins/montage music- wow wow.mp4</property>
    <property name="mlt_service">avformat-novalidate</property>
    <property name="seekable">1</property>
    <property name="audio_index">1</property>
    <property name="video_index">0</property>
    <property name="mute_on_pause">0</property>
    <property name="xml">was here</property>
    <property name="shotcut:hash">63325924570260ddf9332b1aab4d8db9</property>
    <property name="ignore_points">0</property>
    <property name="shotcut:caption">montage music- wow wow.mp4</property>
    <filter id="filter130" in="00:02:06.183" out="00:02:15.367">
      <property name="window">75</property>
      <property name="max_gain">20dB</property>
      <property name="level">-7.6</property>
      <property name="mlt_service">volume</property>
    </filter>
  </chain>
  <chain id="chain140" out="00:03:29.083">
    <property name="length">00:03:29.100</property>
    <property name="eof">pause</property>
    <property name="resource">D:/Videos/Projects/Destiny/Addins/montage music- wow wow.mp4</property>
    <property name="mlt_service">avformat-novalidate</property>
    <property name="seekable">1</property>
    <property name="audio_index">1</property>
    <property name="video_index">0</property>
    <property name="mute_on_pause">0</property>
    <property name="xml">was here</property>
    <property name="shotcut:hash">63325924570260ddf9332b1aab4d8db9</property>
    <property name="ignore_points">0</property>
    <property name="shotcut:caption">montage music- wow wow.mp4</property>
    <filter id="filter131" in="00:02:15.383" out="00:02:16.233">
      <property name="window">75</property>
      <property name="max_gain">20dB</property>
      <property name="level">1.1</property>
      <property name="mlt_service">volume</property>
    </filter>
  </chain>
  <chain id="chain141" out="00:03:29.083">
    <property name="length">00:03:29.100</property>
    <property name="eof">pause</property>
    <property name="resource">D:/Videos/Projects/Destiny/Addins/montage music- wow wow.mp4</property>
    <property name="mlt_service">avformat-novalidate</property>
    <property name="seekable">1</property>
    <property name="audio_index">1</property>
    <property name="video_index">0</property>
    <property name="mute_on_pause">0</property>
    <property name="xml">was here</property>
    <property name="shotcut:hash">63325924570260ddf9332b1aab4d8db9</property>
    <property name="ignore_points">0</property>
    <property name="shotcut:caption">montage music- wow wow.mp4</property>
    <filter id="filter132" in="00:02:16.250" out="00:02:29.333">
      <property name="window">75</property>
      <property name="max_gain">20dB</property>
      <property name="level">-7.6</property>
      <property name="mlt_service">volume</property>
    </filter>
  </chain>
  <chain id="chain142" out="00:03:29.083">
    <property name="length">00:03:29.100</property>
    <property name="eof">pause</property>
    <property name="resource">D:/Videos/Projects/Destiny/Addins/montage music- wow wow.mp4</property>
    <property name="mlt_service">avformat-novalidate</property>
    <property name="seekable">1</property>
    <property name="audio_index">1</property>
    <property name="video_index">0</property>
    <property name="mute_on_pause">0</property>
    <property name="xml">was here</property>
    <property name="shotcut:hash">63325924570260ddf9332b1aab4d8db9</property>
    <property name="ignore_points">0</property>
    <property name="shotcut:caption">montage music- wow wow.mp4</property>
    <filter id="filter133" in="00:02:29.350" out="00:02:30.683">
      <property name="window">75</property>
      <property name="max_gain">20dB</property>
      <property name="level">-13.2</property>
      <property name="mlt_service">volume</property>
    </filter>
  </chain>
  <chain id="chain143" out="00:03:29.083">
    <property name="length">00:03:29.100</property>
    <property name="eof">pause</property>
    <property name="resource">D:/Videos/Projects/Destiny/Addins/montage music- wow wow.mp4</property>
    <property name="mlt_service">avformat-novalidate</property>
    <property name="seekable">1</property>
    <property name="audio_index">1</property>
    <property name="video_index">0</property>
    <property name="mute_on_pause">0</property>
    <property name="xml">was here</property>
    <property name="shotcut:hash">63325924570260ddf9332b1aab4d8db9</property>
    <property name="ignore_points">0</property>
    <property name="shotcut:caption">montage music- wow wow.mp4</property>
    <filter id="filter134" in="00:02:30.700" out="00:02:33.717">
      <property name="window">75</property>
      <property name="max_gain">20dB</property>
      <property name="level">-7.6</property>
      <property name="mlt_service">volume</property>
    </filter>
  </chain>
  <chain id="chain144" out="00:03:29.083">
    <property name="length">00:03:29.100</property>
    <property name="eof">pause</property>
    <property name="resource">D:/Videos/Projects/Destiny/Addins/montage music- wow wow.mp4</property>
    <property name="mlt_service">avformat-novalidate</property>
    <property name="seekable">1</property>
    <property name="audio_index">1</property>
    <property name="video_index">0</property>
    <property name="mute_on_pause">0</property>
    <property name="xml">was here</property>
    <property name="shotcut:hash">63325924570260ddf9332b1aab4d8db9</property>
    <property name="ignore_points">0</property>
    <property name="shotcut:caption">montage music- wow wow.mp4</property>
    <filter id="filter135" in="00:02:33.733" out="00:02:34.050">
      <property name="window">75</property>
      <property name="max_gain">20dB</property>
      <property name="level">9.5</property>
      <property name="mlt_service">volume</property>
    </filter>
  </chain>
  <chain id="chain145" out="00:03:29.083">
    <property name="length">00:03:29.100</property>
    <property name="eof">pause</property>
    <property name="resource">D:/Videos/Projects/Destiny/Addins/montage music- wow wow.mp4</property>
    <property name="mlt_service">avformat-novalidate</property>
    <property name="seekable">1</property>
    <property name="audio_index">1</property>
    <property name="video_index">0</property>
    <property name="mute_on_pause">0</property>
    <property name="xml">was here</property>
    <property name="shotcut:hash">63325924570260ddf9332b1aab4d8db9</property>
    <property name="ignore_points">0</property>
    <property name="shotcut:caption">montage music- wow wow.mp4</property>
    <filter id="filter136" in="00:02:34.067" out="00:03:09.933">
      <property name="window">75</property>
      <property name="max_gain">20dB</property>
      <property name="level">-7.6</property>
      <property name="mlt_service">volume</property>
    </filter>
  </chain>
  <chain id="chain146" out="00:03:29.083">
    <property name="length">00:03:29.100</property>
    <property name="eof">pause</property>
    <property name="resource">D:/Videos/Projects/Destiny/Addins/montage music- wow wow.mp4</property>
    <property name="mlt_service">avformat-novalidate</property>
    <property name="seekable">1</property>
    <property name="audio_index">1</property>
    <property name="video_index">0</property>
    <property name="mute_on_pause">0</property>
    <property name="xml">was here</property>
    <property name="shotcut:hash">63325924570260ddf9332b1aab4d8db9</property>
    <property name="ignore_points">0</property>
    <property name="shotcut:caption">montage music- wow wow.mp4</property>
    <filter id="filter137" in="00:03:09.950" out="00:03:14.517">
      <property name="window">75</property>
      <property name="max_gain">20dB</property>
      <property name="level">-13.4</property>
      <property name="mlt_service">volume</property>
    </filter>
  </chain>
  <chain id="chain147" out="00:03:29.083">
    <property name="length">00:03:29.100</property>
    <property name="eof">pause</property>
    <property name="resource">D:/Videos/Projects/Destiny/Addins/montage music- wow wow.mp4</property>
    <property name="mlt_service">avformat-novalidate</property>
    <property name="seekable">1</property>
    <property name="audio_index">1</property>
    <property name="video_index">0</property>
    <property name="mute_on_pause">0</property>
    <property name="xml">was here</property>
    <property name="shotcut:hash">63325924570260ddf9332b1aab4d8db9</property>
    <property name="ignore_points">0</property>
    <property name="shotcut:caption">montage music- wow wow.mp4</property>
    <filter id="filter138" in="00:03:14.533" out="00:03:18.233">
      <property name="window">75</property>
      <property name="max_gain">20dB</property>
      <property name="level">-7.6</property>
      <property name="mlt_service">volume</property>
    </filter>
  </chain>
  <chain id="chain148" out="00:03:29.083">
    <property name="length">00:03:29.100</property>
    <property name="eof">pause</property>
    <property name="resource">D:/Videos/Projects/Destiny/Addins/montage music- wow wow.mp4</property>
    <property name="mlt_service">avformat-novalidate</property>
    <property name="seekable">1</property>
    <property name="audio_index">1</property>
    <property name="video_index">0</property>
    <property name="mute_on_pause">0</property>
    <property name="xml">was here</property>
    <property name="shotcut:hash">63325924570260ddf9332b1aab4d8db9</property>
    <property name="ignore_points">0</property>
    <property name="shotcut:caption">montage music- wow wow.mp4</property>
    <filter id="filter139" in="00:03:18.250" out="00:03:22.500">
      <property name="window">75</property>
      <property name="max_gain">20dB</property>
      <property name="level">-11.9</property>
      <property name="mlt_service">volume</property>
    </filter>
  </chain>
  <chain id="chain149" out="00:03:29.083">
    <property name="length">00:03:29.100</property>
    <property name="eof">pause</property>
    <property name="resource">D:/Videos/Projects/Destiny/Addins/montage music- wow wow.mp4</property>
    <property name="mlt_service">avformat-novalidate</property>
    <property name="seekable">1</property>
    <property name="audio_index">1</property>
    <property name="video_index">0</property>
    <property name="mute_on_pause">0</property>
    <property name="xml">was here</property>
    <property name="shotcut:hash">63325924570260ddf9332b1aab4d8db9</property>
    <property name="ignore_points">0</property>
    <property name="shotcut:caption">montage music- wow wow.mp4</property>
    <filter id="filter140" in="00:03:22.517" out="00:03:29.083">
      <property name="window">75</property>
      <property name="max_gain">20dB</property>
      <property name="level">-7.6</property>
      <property name="mlt_service">volume</property>
    </filter>
  </chain>
  <playlist id="playlist7">
    <property name="shotcut:audio">1</property>
    <property name="shotcut:name">Music Main</property>
    <blank length="00:00:00.017"/>
    <entry producer="chain130" in="00:00:00.000" out="00:01:20.817"/>
    <blank length="00:00:14.717"/>
    <entry producer="chain131" in="00:01:20.833" out="00:02:09.667"/>
    <blank length="00:01:08.467"/>
    <entry producer="chain132" in="00:00:00.000" out="00:00:24.650"/>
    <blank length="00:00:06.317"/>
    <entry producer="chain133" in="00:00:24.667" out="00:00:39.533"/>
    <blank length="00:00:10.083"/>
    <entry producer="chain134" in="00:00:43.717" out="00:00:47.000"/>
    <blank length="00:00:08.800"/>
    <entry producer="chain135" in="00:00:47.017" out="00:02:04.000"/>
    <entry producer="chain136" in="00:02:04.017" out="00:02:04.433"/>
    <entry producer="chain137" in="00:02:04.450" out="00:02:05.233"/>
    <entry producer="chain138" in="00:02:05.250" out="00:02:06.167"/>
    <entry producer="chain139" in="00:02:06.183" out="00:02:15.367"/>
    <entry producer="chain140" in="00:02:15.383" out="00:02:16.233"/>
    <entry producer="chain141" in="00:02:16.250" out="00:02:29.333"/>
    <entry producer="chain142" in="00:02:29.350" out="00:02:30.683"/>
    <entry producer="chain143" in="00:02:30.700" out="00:02:33.717"/>
    <entry producer="chain144" in="00:02:33.733" out="00:02:34.050"/>
    <entry producer="chain145" in="00:02:34.067" out="00:03:09.933"/>
    <entry producer="chain146" in="00:03:09.950" out="00:03:14.517"/>
    <entry producer="chain147" in="00:03:14.533" out="00:03:18.233"/>
    <entry producer="chain148" in="00:03:18.250" out="00:03:22.500"/>
    <entry producer="chain149" in="00:03:22.517" out="00:03:29.083"/>
  </playlist>
  <chain id="chain150" out="00:01:32.217">
    <property name="length">00:01:32.233</property>
    <property name="eof">pause</property>
    <property name="resource">D:/Videos/Projects/Destiny/Addins/aot theme.mp4</property>
    <property name="mlt_service">avformat-novalidate</property>
    <property name="seekable">1</property>
    <property name="audio_index">1</property>
    <property name="video_index">0</property>
    <property name="mute_on_pause">0</property>
    <property name="xml">was here</property>
    <property name="shotcut:hash">75eba5e71e2112749ebe11e33dde4558</property>
    <property name="shotcut:caption">aot theme.mp4</property>
  </chain>
  <chain id="chain151" out="00:01:32.217">
    <property name="length">00:01:32.233</property>
    <property name="eof">pause</property>
    <property name="resource">D:/Videos/Projects/Destiny/Addins/aot theme.mp4</property>
    <property name="mlt_service">avformat-novalidate</property>
    <property name="seekable">1</property>
    <property name="audio_index">1</property>
    <property name="video_index">0</property>
    <property name="mute_on_pause">0</property>
    <property name="xml">was here</property>
    <property name="shotcut:hash">75eba5e71e2112749ebe11e33dde4558</property>
    <property name="shotcut:caption">aot theme.mp4</property>
  </chain>
  <chain id="chain152" out="00:01:32.217">
    <property name="length">00:01:32.233</property>
    <property name="eof">pause</property>
    <property name="resource">D:/Videos/Projects/Destiny/Addins/aot theme.mp4</property>
    <property name="mlt_service">avformat</property>
    <property name="seekable">1</property>
    <property name="audio_index">1</property>
    <property name="video_index">0</property>
    <property name="mute_on_pause">1</property>
    <property name="video_delay">0</property>
    <property name="shotcut:hash">75eba5e71e2112749ebe11e33dde4558</property>
    <property name="shotcut:caption">aot theme.mp4</property>
    <property name="xml">was here</property>
  </chain>
  <chain id="chain153" out="00:01:32.217">
    <property name="length">00:01:32.233</property>
    <property name="eof">pause</property>
    <property name="resource">D:/Videos/Projects/Destiny/Addins/aot theme.mp4</property>
    <property name="mlt_service">avformat</property>
    <property name="seekable">1</property>
    <property name="audio_index">1</property>
    <property name="video_index">0</property>
    <property name="mute_on_pause">1</property>
    <property name="video_delay">0</property>
    <property name="shotcut:hash">75eba5e71e2112749ebe11e33dde4558</property>
    <property name="shotcut:caption">aot theme.mp4</property>
    <property name="xml">was here</property>
  </chain>
  <chain id="chain154" out="00:01:32.217">
    <property name="length">00:01:32.233</property>
    <property name="eof">pause</property>
    <property name="resource">D:/Videos/Projects/Destiny/Addins/aot theme.mp4</property>
    <property name="mlt_service">avformat</property>
    <property name="seekable">1</property>
    <property name="audio_index">1</property>
    <property name="video_index">0</property>
    <property name="mute_on_pause">1</property>
    <property name="video_delay">0</property>
    <property name="shotcut:hash">75eba5e71e2112749ebe11e33dde4558</property>
    <property name="shotcut:caption">aot theme.mp4</property>
    <property name="xml">was here</property>
  </chain>
  <chain id="chain155" out="00:01:32.217">
    <property name="length">00:01:32.233</property>
    <property name="eof">pause</property>
    <property name="resource">D:/Videos/Projects/Destiny/Addins/aot theme.mp4</property>
    <property name="mlt_service">avformat</property>
    <property name="seekable">1</property>
    <property name="audio_index">1</property>
    <property name="video_index">0</property>
    <property name="mute_on_pause">1</property>
    <property name="video_delay">0</property>
    <property name="shotcut:hash">75eba5e71e2112749ebe11e33dde4558</property>
    <property name="shotcut:caption">aot theme.mp4</property>
    <property name="xml">was here</property>
  </chain>
  <chain id="chain156" out="00:01:32.217">
    <property name="length">00:01:32.233</property>
    <property name="eof">pause</property>
    <property name="resource">D:/Videos/Projects/Destiny/Addins/aot theme.mp4</property>
    <property name="mlt_service">avformat</property>
    <property name="seekable">1</property>
    <property name="audio_index">1</property>
    <property name="video_index">0</property>
    <property name="mute_on_pause">1</property>
    <property name="video_delay">0</property>
    <property name="shotcut:hash">75eba5e71e2112749ebe11e33dde4558</property>
    <property name="shotcut:caption">aot theme.mp4</property>
    <property name="xml">was here</property>
  </chain>
  <chain id="chain157" out="00:01:32.217">
    <property name="length">00:01:32.233</property>
    <property name="eof">pause</property>
    <property name="resource">D:/Videos/Projects/Destiny/Addins/aot theme.mp4</property>
    <property name="mlt_service">avformat</property>
    <property name="seekable">1</property>
    <property name="audio_index">1</property>
    <property name="video_index">0</property>
    <property name="mute_on_pause">1</property>
    <property name="video_delay">0</property>
    <property name="shotcut:hash">75eba5e71e2112749ebe11e33dde4558</property>
    <property name="shotcut:caption">aot theme.mp4</property>
    <property name="xml">was here</property>
  </chain>
  <chain id="chain158" out="00:01:32.217">
    <property name="length">00:01:32.233</property>
    <property name="eof">pause</property>
    <property name="resource">D:/Videos/Projects/Destiny/Addins/aot theme.mp4</property>
    <property name="mlt_service">avformat</property>
    <property name="seekable">1</property>
    <property name="audio_index">1</property>
    <property name="video_index">0</property>
    <property name="mute_on_pause">1</property>
    <property name="video_delay">0</property>
    <property name="shotcut:hash">75eba5e71e2112749ebe11e33dde4558</property>
    <property name="shotcut:caption">aot theme.mp4</property>
    <property name="xml">was here</property>
  </chain>
  <chain id="chain159" out="00:01:32.217">
    <property name="length">00:01:32.233</property>
    <property name="eof">pause</property>
    <property name="resource">D:/Videos/Projects/Destiny/Addins/aot theme.mp4</property>
    <property name="mlt_service">avformat</property>
    <property name="seekable">1</property>
    <property name="audio_index">1</property>
    <property name="video_index">0</property>
    <property name="mute_on_pause">1</property>
    <property name="video_delay">0</property>
    <property name="shotcut:hash">75eba5e71e2112749ebe11e33dde4558</property>
    <property name="shotcut:caption">aot theme.mp4</property>
    <property name="xml">was here</property>
  </chain>
  <chain id="chain160" out="00:01:32.217">
    <property name="length">00:01:32.233</property>
    <property name="eof">pause</property>
    <property name="resource">D:/Videos/Projects/Destiny/Addins/aot theme.mp4</property>
    <property name="mlt_service">avformat-novalidate</property>
    <property name="seekable">1</property>
    <property name="audio_index">1</property>
    <property name="video_index">0</property>
    <property name="mute_on_pause">0</property>
    <property name="xml">was here</property>
    <property name="shotcut:hash">75eba5e71e2112749ebe11e33dde4558</property>
    <property name="shotcut:caption">aot theme.mp4</property>
  </chain>
  <chain id="chain161" out="00:01:32.217">
    <property name="length">00:01:32.233</property>
    <property name="eof">pause</property>
    <property name="resource">D:/Videos/Projects/Destiny/Addins/aot theme.mp4</property>
    <property name="mlt_service">avformat</property>
    <property name="seekable">1</property>
    <property name="audio_index">1</property>
    <property name="video_index">0</property>
    <property name="mute_on_pause">1</property>
    <property name="video_delay">0</property>
    <property name="shotcut:hash">75eba5e71e2112749ebe11e33dde4558</property>
    <property name="shotcut:caption">aot theme.mp4</property>
    <property name="xml">was here</property>
  </chain>
  <chain id="chain162" out="00:01:32.217">
    <property name="length">00:01:32.233</property>
    <property name="eof">pause</property>
    <property name="resource">D:/Videos/Projects/Destiny/Addins/aot theme.mp4</property>
    <property name="mlt_service">avformat</property>
    <property name="seekable">1</property>
    <property name="audio_index">1</property>
    <property name="video_index">0</property>
    <property name="mute_on_pause">1</property>
    <property name="video_delay">0</property>
    <property name="shotcut:hash">75eba5e71e2112749ebe11e33dde4558</property>
    <property name="shotcut:caption">aot theme.mp4</property>
    <property name="xml">was here</property>
  </chain>
  <chain id="chain163" out="00:01:32.217">
    <property name="length">00:01:32.233</property>
    <property name="eof">pause</property>
    <property name="resource">D:/Videos/Projects/Destiny/Addins/aot theme.mp4</property>
    <property name="mlt_service">avformat</property>
    <property name="seekable">1</property>
    <property name="audio_index">1</property>
    <property name="video_index">0</property>
    <property name="mute_on_pause">1</property>
    <property name="video_delay">0</property>
    <property name="shotcut:hash">75eba5e71e2112749ebe11e33dde4558</property>
    <property name="shotcut:caption">aot theme.mp4</property>
    <property name="xml">was here</property>
  </chain>
  <chain id="chain164" out="00:01:32.217">
    <property name="length">00:01:32.233</property>
    <property name="eof">pause</property>
    <property name="resource">D:/Videos/Projects/Destiny/Addins/aot theme.mp4</property>
    <property name="mlt_service">avformat</property>
    <property name="seekable">1</property>
    <property name="audio_index">1</property>
    <property name="video_index">0</property>
    <property name="mute_on_pause">1</property>
    <property name="video_delay">0</property>
    <property name="shotcut:hash">75eba5e71e2112749ebe11e33dde4558</property>
    <property name="shotcut:caption">aot theme.mp4</property>
    <property name="xml">was here</property>
  </chain>
  <chain id="chain165" out="00:01:32.217">
    <property name="length">00:01:32.233</property>
    <property name="eof">pause</property>
    <property name="resource">D:/Videos/Projects/Destiny/Addins/aot theme.mp4</property>
    <property name="mlt_service">avformat</property>
    <property name="seekable">1</property>
    <property name="audio_index">1</property>
    <property name="video_index">0</property>
    <property name="mute_on_pause">1</property>
    <property name="video_delay">0</property>
    <property name="shotcut:hash">75eba5e71e2112749ebe11e33dde4558</property>
    <property name="shotcut:caption">aot theme.mp4</property>
    <property name="xml">was here</property>
  </chain>
  <chain id="chain166" out="00:01:32.217">
    <property name="length">00:01:32.233</property>
    <property name="eof">pause</property>
    <property name="resource">D:/Videos/Projects/Destiny/Addins/aot theme.mp4</property>
    <property name="mlt_service">avformat</property>
    <property name="seekable">1</property>
    <property name="audio_index">1</property>
    <property name="video_index">0</property>
    <property name="mute_on_pause">1</property>
    <property name="video_delay">0</property>
    <property name="shotcut:hash">75eba5e71e2112749ebe11e33dde4558</property>
    <property name="shotcut:caption">aot theme.mp4</property>
    <property name="xml">was here</property>
  </chain>
  <chain id="chain167" out="00:01:32.217">
    <property name="length">00:01:32.233</property>
    <property name="eof">pause</property>
    <property name="resource">D:/Videos/Projects/Destiny/Addins/aot theme.mp4</property>
    <property name="mlt_service">avformat</property>
    <property name="seekable">1</property>
    <property name="audio_index">1</property>
    <property name="video_index">0</property>
    <property name="mute_on_pause">1</property>
    <property name="video_delay">0</property>
    <property name="shotcut:hash">75eba5e71e2112749ebe11e33dde4558</property>
    <property name="shotcut:caption">aot theme.mp4</property>
    <property name="xml">was here</property>
  </chain>
  <chain id="chain168" out="00:01:32.217">
    <property name="length">00:01:32.233</property>
    <property name="eof">pause</property>
    <property name="resource">D:/Videos/Projects/Destiny/Addins/aot theme.mp4</property>
    <property name="mlt_service">avformat</property>
    <property name="seekable">1</property>
    <property name="audio_index">1</property>
    <property name="video_index">0</property>
    <property name="mute_on_pause">1</property>
    <property name="video_delay">0</property>
    <property name="shotcut:hash">75eba5e71e2112749ebe11e33dde4558</property>
    <property name="shotcut:caption">aot theme.mp4</property>
    <property name="xml">was here</property>
  </chain>
  <chain id="chain169" out="00:01:04.000">
    <property name="length">00:01:04.017</property>
    <property name="eof">pause</property>
    <property name="resource">D:/Videos/Projects/Destiny/Addins/kahoot theme outro.mp4</property>
    <property name="mlt_service">avformat-novalidate</property>
    <property name="seekable">1</property>
    <property name="audio_index">1</property>
    <property name="video_index">0</property>
    <property name="mute_on_pause">0</property>
    <property name="xml">was here</property>
    <property name="shotcut:hash">f2421d63fdff123bfe1f707aa11a200f</property>
    <property name="shotcut:caption">kahoot theme outro.mp4</property>
    <property name="shotcut:defaultAudioIndex">1</property>
    <filter id="filter141" out="00:00:10.667">
      <property name="window">75</property>
      <property name="max_gain">20dB</property>
      <property name="level">00:00:09.683=0;00:00:10.667=-60</property>
      <property name="mlt_service">volume</property>
      <property name="shotcut:filter">fadeOutVolume</property>
      <property name="shotcut:animOut">00:00:01.000</property>
    </filter>
  </chain>
  <playlist id="playlist8">
    <property name="shotcut:video">1</property>
    <property name="shotcut:name">SCRATCH</property>
    <entry producer="chain150" in="00:00:00.000" out="00:01:06.800"/>
    <entry producer="chain151" in="00:01:06.817" out="00:01:09.967"/>
    <entry producer="chain152" in="00:01:09.983" out="00:01:12.733"/>
    <entry producer="chain153" in="00:01:12.733" out="00:01:15.300"/>
    <entry producer="chain154" in="00:01:15.317" out="00:01:17.917"/>
    <entry producer="chain155" in="00:01:17.917" out="00:01:20.617"/>
    <entry producer="chain156" in="00:01:20.617" out="00:01:23.333"/>
    <entry producer="chain157" in="00:01:23.333" out="00:01:25.967"/>
    <entry producer="chain158" in="00:01:25.983" out="00:01:27.933"/>
    <entry producer="chain159" in="00:01:27.933" out="00:01:32.217"/>
    <blank length="00:11:48.217"/>
    <entry producer="chain160" in="00:01:06.817" out="00:01:09.967"/>
    <entry producer="chain161" in="00:01:09.983" out="00:01:12.733"/>
    <blank length="00:01:27.483"/>
    <entry producer="chain162" in="00:01:12.733" out="00:01:15.300"/>
    <entry producer="chain163" in="00:01:15.317" out="00:01:17.917"/>
    <blank length="00:00:19.683"/>
    <entry producer="chain164" in="00:01:17.917" out="00:01:20.617"/>
    <entry producer="chain165" in="00:01:20.617" out="00:01:23.333"/>
    <blank length="00:00:23.233"/>
    <entry producer="chain166" in="00:01:23.333" out="00:01:25.967"/>
    <entry producer="chain167" in="00:01:25.983" out="00:01:27.933"/>
    <blank length="00:00:13.933"/>
    <entry producer="chain168" in="00:01:27.933" out="00:01:32.217"/>
    <blank length="00:03:31.417"/>
    <entry producer="chain169" in="00:00:00.000" out="00:00:10.667"/>
  </playlist>
  <tractor id="tractor3" title="Shotcut version 21.09.22" in="00:00:00.000" out="00:20:50.867">
    <property name="shotcut">1</property>
    <property name="shotcut:projectAudioChannels">2</property>
    <property name="shotcut:projectFolder">1</property>
    <property name="shotcut:scaleFactor">0.894736</property>
    <property name="shotcut:trackHeight">45</property>
    <track producer="background"/>
    <track producer="playlist0"/>
    <track producer="playlist1" hide="audio"/>
    <track producer="playlist2" hide="audio"/>
    <track producer="playlist3" hide="both"/>
    <track producer="playlist4" hide="both"/>
    <track producer="playlist5" hide="both"/>
    <track producer="playlist6" hide="audio"/>
    <track producer="playlist7" hide="both"/>
    <track producer="playlist8" hide="video"/>
    <transition id="transition6">
      <property name="a_track">0</property>
      <property name="b_track">1</property>
      <property name="mlt_service">mix</property>
      <property name="always_active">1</property>
      <property name="sum">1</property>
    </transition>
    <transition id="transition7">
      <property name="a_track">0</property>
      <property name="b_track">1</property>
      <property name="version">0.9</property>
      <property name="mlt_service">frei0r.cairoblend</property>
      <property name="threads">0</property>
      <property name="disable">1</property>
    </transition>
    <transition id="transition8">
      <property name="a_track">0</property>
      <property name="b_track">2</property>
      <property name="mlt_service">mix</property>
      <property name="always_active">1</property>
      <property name="sum">1</property>
    </transition>
    <transition id="transition9">
      <property name="a_track">1</property>
      <property name="b_track">2</property>
      <property name="version">0.9</property>
      <property name="mlt_service">frei0r.cairoblend</property>
      <property name="threads">0</property>
      <property name="disable">0</property>
    </transition>
    <transition id="transition10">
      <property name="a_track">0</property>
      <property name="b_track">3</property>
      <property name="mlt_service">mix</property>
      <property name="always_active">1</property>
      <property name="sum">1</property>
    </transition>
    <transition id="transition11">
      <property name="a_track">1</property>
      <property name="b_track">3</property>
      <property name="version">0.9</property>
      <property name="mlt_service">frei0r.cairoblend</property>
      <property name="threads">0</property>
      <property name="disable">0</property>
    </transition>
    <transition id="transition12">
      <property name="a_track">0</property>
      <property name="b_track">4</property>
      <property name="mlt_service">mix</property>
      <property name="always_active">1</property>
      <property name="sum">1</property>
    </transition>
    <transition id="transition13">
      <property name="a_track">0</property>
      <property name="b_track">5</property>
      <property name="mlt_service">mix</property>
      <property name="always_active">1</property>
      <property name="sum">1</property>
    </transition>
    <transition id="transition14">
      <property name="a_track">0</property>
      <property name="b_track">6</property>
      <property name="mlt_service">mix</property>
      <property name="always_active">1</property>
      <property name="sum">1</property>
    </transition>
    <transition id="transition15">
      <property name="a_track">0</property>
      <property name="b_track">7</property>
      <property name="mlt_service">mix</property>
      <property name="always_active">1</property>
      <property name="sum">1</property>
    </transition>
    <transition id="transition16">
      <property name="a_track">1</property>
      <property name="b_track">7</property>
      <property name="version">0.9</property>
      <property name="mlt_service">frei0r.cairoblend</property>
      <property name="threads">0</property>
      <property name="disable">0</property>
    </transition>
    <transition id="transition17">
      <property name="a_track">0</property>
      <property name="b_track">8</property>
      <property name="mlt_service">mix</property>
      <property name="always_active">1</property>
      <property name="sum">1</property>
    </transition>
    <transition id="transition18">
      <property name="a_track">0</property>
      <property name="b_track">9</property>
      <property name="mlt_service">mix</property>
      <property name="always_active">1</property>
      <property name="sum">1</property>
    </transition>
    <transition id="transition19">
      <property name="a_track">1</property>
      <property name="b_track">9</property>
      <property name="version">0.9</property>
      <property name="mlt_service">frei0r.cairoblend</property>
      <property name="threads">0</property>
      <property name="disable">0</property>
    </transition>
  </tractor>
</mlt>
